SplineFontDB: 3.0
FontName: NovaScript
FullName: NovaScript
FamilyName: NovaScript
Weight: Regular
Copyright: wmk69 (wmk69@o2.pl)\nSIL Open Font License v.1.1
Version: 1.02
ItalicAngle: -13
UnderlinePosition: -81
UnderlineWidth: 122
Ascent: 1638
Descent: 410
LayerCount: 2
Layer: 0 1 "Warstwa t+AUIA-a"  1
Layer: 1 1 "Plan pierwszy"  0
XUID: [1021 783 23647091 12580756]
FSType: 0
OS2Version: 3
OS2_WeightWidthSlopeOnly: 0
OS2_UseTypoMetrics: 1
CreationTime: 1260698820
ModificationTime: 1306680084
PfmFamily: 33
TTFWeight: 500
TTFWidth: 5
LineGap: 0
VLineGap: 0
Panose: 2 12 6 4 2 2 2 13 2 4
OS2TypoAscent: 1814
OS2TypoAOffset: 0
OS2TypoDescent: -560
OS2TypoDOffset: 0
OS2TypoLinegap: 0
OS2WinAscent: 1814
OS2WinAOffset: 0
OS2WinDescent: 560
OS2WinDOffset: 0
HheadAscent: 1814
HheadAOffset: 0
HheadDescent: -560
HheadDOffset: 0
OS2SubXSize: 1434
OS2SubYSize: 1331
OS2SubXOff: 0
OS2SubYOff: 287
OS2SupXSize: 1434
OS2SupYSize: 1331
OS2SupXOff: 0
OS2SupYOff: 977
OS2StrikeYSize: 102
OS2StrikeYPos: 512
OS2Vendor: '    '
OS2CodePages: 20000093.00000000
OS2UnicodeRanges: 8000002f.4000204b.00000000.00000000
Lookup: 258 0 0 "'kern' Kerning poziomy w tablicy 0"  {"Podtablica 'kern' Kerning poziomy w tablicy 0"  } ['kern' ('DFLT' <'dflt' > 'grek' <'dflt' > 'latn' <'dflt' > ) ]
DEI: 91125
KernClass2: 29 17 "Podtablica 'kern' Kerning poziomy w tablicy 0" 
 147 A D H M N V W Agrave Aacute Acircumflex Atilde Adieresis Aring Eth Ntilde Dcaron Dcroat Hcircumflex Hbar Nacute Ncommaaccent Ncaron Eng Wcircumflex
 12 B germandbls
 183 C G O Q Ccedilla Ograve Oacute Ocircumflex Otilde Odieresis Oslash Cacute Ccircumflex Cdotaccent Ccaron Gcircumflex Gbreve Gdotaccent Gcommaaccent Omacron Obreve Ohungarumlaut uni01E4
 81 E AE Egrave Eacute Ecircumflex Edieresis Emacron Ebreve Edotaccent Eogonek Ecaron
 1 F
 182 I J U Y Igrave Iacute Icircumflex Ugrave Uacute Ucircumflex Udieresis Yacute Iogonek Idotaccent IJ Jcircumflex Utilde Umacron Ubreve Uring Uhungarumlaut Uogonek Ycircumflex Ydieresis

StartChar: .notdef
Encoding: 65536 -1 0
Width: 844
Flags: W
HStem: 0 68<234 642> 1297 68<517 925>
VStem: 150 544<0 544> 465 544<821 1365>
DStem2: 150 0 218.301 0 0.224951 0.97437<85.1531 1346.32> 626.301 0 694 0 0.224951 0.97437<69.7887 1330.95>
LayerCount: 2
Fore
SplineSet
150 0 m 1,0,-1
 465 1365 l 1,1,-1
 1009 1365 l 1,2,-1
 694 0 l 1,3,-1
 150 0 l 1,0,-1
234 68 m 1,4,-1
 642 68 l 1,5,-1
 925 1297 l 1,6,-1
 517 1297 l 1,7,-1
 234 68 l 1,4,-1
EndSplineSet
Validated: 1
EndChar

StartChar: exclam
Encoding: 33 33 4
Width: 600
GlyphClass: 2
Flags: W
HStem: 0 264<253.008 407.947> 1492 20G<697.889 742.379>
VStem: 196 268<55.4863 207.199>
DStem2: 199.969 0 397.729 0 0.224951 0.97437<459.113 1458.9>
LayerCount: 2
Fore
SplineSet
200 132 m 0,0,1
 214 188 214 188 260 226 c 128,-1,2
 306 264 306 264 361 264 c 128,-1,3
 416 264 416 264 444 226 c 0,4,5
 464 199 464 199 464 165 c 0,6,7
 464 149 464 149 460 132 c 0,8,9
 447 76 447 76 401 38 c 0,10,11
 354 0 354 0 300 0 c 128,-1,12
 246 0 246 0 217 38 c 0,13,14
 196 66 196 66 196 97 c 0,15,16
 196 113 196 113 200 132 c 0,0,1
526 1422 m 1,17,-1
 747 1512 l 1,18,-1
 491 404 l 1,19,-1
 272 312 l 1,20,-1
 526 1422 l 1,17,-1
EndSplineSet
Validated: 1
EndChar

StartChar: quotedbl
Encoding: 34 34 5
Width: 972
GlyphClass: 2
Flags: W
HStem: 985 530
VStem: 450 649
DStem2: 450 982 649.3 982 0.224951 0.97437<127.963 479.326> 775.307 982 975.607 982 0.224951 0.97437<131.267 482.404>
LayerCount: 2
Fore
SplineSet
1099 1515 m 1,0,-1
 995 1066 l 1,1,-1
 776 985 l 1,2,-1
 884 1452 l 1,3,-1
 1099 1515 l 1,0,-1
772 1512 m 1,4,-1
 668 1063 l 1,5,-1
 450 982 l 1,6,-1
 558 1449 l 1,7,-1
 772 1512 l 1,4,-1
EndSplineSet
Validated: 1
EndChar

StartChar: numbersign
Encoding: 35 35 6
Width: 1355
GlyphClass: 2
Flags: W
HStem: 491 198<400 529 773 855 1099 1226> 817 198<474 604 847 929 1173 1300>
DStem2: 467.769 225 665.991 225 0.224951 0.97437<137.984 272.956 520.77 607.472 855.061 988.084> 794 225 992.222 225 0.224951 0.97437<136.958 271.93 519.743 606.221 854.034 987.058>
LayerCount: 2
Fore
SplineSet
687 316 m 1,0,-1
 468 226 l 1,1,-1
 529 491 l 1,2,-1
 264 491 l 1,3,-1
 400 689 l 1,4,-1
 575 689 l 1,5,-1
 604 817 l 1,6,-1
 339 817 l 1,7,-1
 474 1015 l 1,8,-1
 649 1015 l 1,9,-1
 689 1188 l 1,10,-1
 909 1280 l 1,11,-1
 847 1015 l 1,12,-1
 975 1014 l 1,13,-1
 1015 1187 l 1,14,-1
 1234 1279 l 1,15,-1
 1173 1014 l 1,16,-1
 1438 1014 l 1,17,-1
 1300 816 l 1,18,-1
 1127 816 l 1,19,-1
 1099 688 l 1,20,-1
 1364 688 l 1,21,-1
 1226 490 l 1,22,-1
 1053 490 l 1,23,-1
 1013 315 l 1,24,-1
 794 225 l 1,25,-1
 855 490 l 1,26,-1
 727 491 l 1,27,-1
 687 316 l 1,0,-1
773 689 m 1,28,-1
 901 688 l 1,29,-1
 929 816 l 1,30,-1
 802 817 l 1,31,-1
 773 689 l 1,28,-1
EndSplineSet
Validated: 1
EndChar

StartChar: dollar
Encoding: 36 36 7
Width: 1241
GlyphClass: 2
Flags: W
VStem: 213 215<271.215 358> 421 199<999.358 1203.85>
DStem2: 456 -204 652.76 -204 0.224951 0.97437<138.681 224.766 454.759 978.232 1208.02 1559.03 1782.86 1839.2> 675 992 681 773 0.936783 -0.34991<-74.6748 56.2978 276.189 460.661> 867.161 -204 1063.78 -204 0.224951 0.97437<532.831 833.494>
LayerCount: 2
Fore
SplineSet
434 452 m 1,0,1
 428 426 428 426 428 398 c 0,2,3
 428 319 428 319 475 268 c 0,4,5
 508 232 508 232 552 213 c 1,6,-1
 681 773 l 1,7,-1
 530 830 l 1,8,9
 421 885 421 885 421 1030 c 0,10,11
 421 1054 421 1054 424 1081 c 2,12,-1
 426 1098 l 1,13,14
 466 1267 466 1267 615 1389 c 0,15,16
 727 1481 727 1481 850 1504 c 1,17,-1
 870 1588 l 1,18,-1
 1088 1677 l 1,19,-1
 1046 1496 l 1,20,21
 1125 1471 1125 1471 1184 1410 c 0,22,23
 1248 1344 1248 1344 1260 1258 c 1,24,-1
 1062 1206 l 1,25,26
 1043 1271 1043 1271 1001 1300 c 1,27,-1
 910 906 l 1,28,29
 1139 822 1139 822 1155 810 c 0,30,31
 1239 746 1239 746 1239 610 c 0,32,33
 1239 574 1239 574 1233 531 c 1,34,-1
 1224 490 l 1,35,36
 1177 286 1177 286 999 142 c 0,37,38
 856 26 856 26 700 1 c 1,39,-1
 674 -112 l 1,40,-1
 456 -204 l 1,41,-1
 506 13 l 1,42,43
 358 50 358 50 291 136 c 1,44,45
 227 229 227 229 213 337 c 1,46,-1
 213 358 l 1,47,-1
 434 452 l 1,0,1
863 706 m 1,48,-1
 745 196 l 1,49,50
 824 213 824 213 903 280 c 1,51,52
 1000 372 1000 372 1029 497 c 1,53,-1
 1034 525 l 1,54,55
 1032 634 1032 634 953 672 c 1,56,-1
 863 706 l 1,48,-1
620 1070 m 0,57,58
 620 1012 620 1012 675 992 c 2,59,-1
 728 973 l 1,60,-1
 807 1315 l 1,61,62
 762 1300 762 1300 731 1274 c 0,63,64
 639 1197 639 1197 626 1128 c 0,65,66
 626 1126 626 1126 624 1113 c 2,67,-1
 622 1100 l 2,68,69
 620 1087 620 1087 620 1070 c 0,57,58
EndSplineSet
Validated: 1
EndChar

StartChar: percent
Encoding: 37 37 8
Width: 1734
GlyphClass: 2
Flags: W
HStem: 0 151<1262.59 1455.59> 539 150<1328.43 1523.36> 822 151<564.593 757.593> 1361 150<630.427 825.357>
VStem: 374 165<995.736 1252.68> 847 161<1075.93 1340.33> 1072 165<173.736 430.681> 1545 161<253.928 518.326>
DStem2: 288 -135 447 -219 0.581797 0.813334<24.1858 2195.57>
LayerCount: 2
Fore
SplineSet
727 1361 m 0,0,1
 669 1361 669 1361 619 1306 c 0,2,3
 563 1244 563 1244 546 1168 c 0,4,5
 539 1137 539 1137 539 1109 c 0,6,7
 539 1107 539 1107 539 1105 c 0,8,9
 539 1064 539 1064 557 1030 c 0,10,11
 587 973 587 973 648 973 c 0,12,13
 719 973 719 973 769 1029 c 0,14,15
 820 1087 820 1087 839 1166 c 0,16,17
 847 1200 847 1200 847 1230 c 0,18,19
 847 1232 847 1232 847 1235 c 0,20,21
 847 1268 847 1268 834 1300 c 0,22,23
 809 1361 809 1361 727 1361 c 0,0,1
995 1158 m 0,24,25
 972 1062 972 1062 917 990 c 0,26,27
 863 919 863 919 777 868 c 0,28,29
 699 822 699 822 613 822 c 0,30,31
 537 822 537 822 471 868 c 0,32,33
 407 913 407 913 383 991 c 0,34,35
 374 1021 374 1021 374 1059 c 0,36,37
 374 1103 374 1103 387 1159 c 0,38,39
 411 1262 411 1262 469 1339 c 0,40,41
 531 1421 531 1421 608 1465 c 0,42,43
 689 1511 689 1511 772 1511 c 0,44,45
 847 1511 847 1511 914 1465 c 0,46,47
 975 1423 975 1423 997 1344 c 0,48,49
 1008 1305 1008 1305 1008 1258 c 0,50,51
 1008 1210 1008 1210 995 1158 c 0,24,25
1425 539 m 0,52,53
 1367 539 1367 539 1317 484 c 0,54,55
 1261 422 1261 422 1244 346 c 0,56,57
 1237 315 1237 315 1237 287 c 0,58,59
 1237 285 1237 285 1237 283 c 0,60,61
 1237 242 1237 242 1255 208 c 0,62,63
 1285 151 1285 151 1346 151 c 0,64,65
 1417 151 1417 151 1467 207 c 0,66,67
 1518 265 1518 265 1537 344 c 0,68,69
 1545 378 1545 378 1545 408 c 0,70,71
 1545 410 1545 410 1545 413 c 0,72,73
 1545 446 1545 446 1532 478 c 0,74,75
 1507 539 1507 539 1425 539 c 0,52,53
1693 336 m 0,76,77
 1670 240 1670 240 1615 168 c 0,78,79
 1561 97 1561 97 1475 46 c 0,80,81
 1397 0 1397 0 1311 0 c 0,82,83
 1235 0 1235 0 1169 46 c 0,84,85
 1105 91 1105 91 1081 169 c 0,86,87
 1072 199 1072 199 1072 237 c 0,88,89
 1072 281 1072 281 1085 337 c 0,90,91
 1109 440 1109 440 1167 517 c 0,92,93
 1229 599 1229 599 1306 643 c 0,94,95
 1387 689 1387 689 1470 689 c 0,96,97
 1545 689 1545 689 1612 643 c 0,98,99
 1673 601 1673 601 1695 522 c 0,100,101
 1706 483 1706 483 1706 436 c 0,102,103
 1706 388 1706 388 1693 336 c 0,76,77
288 -135 m 1,104,-1
 1565 1651 l 1,105,-1
 1726 1569 l 1,106,-1
 447 -219 l 1,107,-1
 288 -135 l 1,104,-1
EndSplineSet
Validated: 1
EndChar

StartChar: ampersand
Encoding: 38 38 9
Width: 1641
GlyphClass: 2
Flags: W
HStem: 0 21G<1276.81 1333.75> 744 197<740.602 853> 1316 179<805.386 1168>
VStem: 244 200<280.373 559.714> 513 200<968.851 1226.17>
DStem2: 709 205 755 17 0.73748 0.675369<0 376.828 629.223 1122.26> 987 940 853 744 0.505694 -0.862713<101.329 361.5 578.222 963.164>
LayerCount: 2
Fore
SplineSet
987 940 m 1,0,-1
 1173 630 l 1,1,-1
 1543 956 l 1,2,-1
 1693 876 l 1,3,-1
 1257 480 l 1,4,-1
 1487 87 l 1,5,-1
 1288 0 l 1,6,-1
 1100 336 l 1,7,-1
 755 17 l 1,8,-1
 638 18 l 2,9,10
 420 20 420 20 318 151 c 1,11,12
 244 240 244 240 244 359 c 1,13,14
 245 409 245 409 257 462 c 0,15,16
 299 648 299 648 457 796 c 0,17,18
 503 839 503 839 568 874 c 1,19,-1
 554 893 l 1,20,21
 513 955 513 955 513 1040 c 0,22,23
 513 1086 513 1086 525 1138 c 0,24,25
 554 1263 554 1263 666 1376 c 0,26,27
 783 1494 783 1494 1011 1495 c 2,28,-1
 1291 1496 l 1,29,-1
 1168 1316 l 1,30,-1
 975 1316 l 2,31,32
 823 1316 823 1316 763 1234 c 0,33,34
 733 1193 733 1193 720 1136 c 1,35,-1
 718 1126 l 2,36,37
 713 1102 713 1102 713 1079 c 0,38,39
 712 1051 712 1051 721 1020 c 0,40,41
 744 941 744 941 867 941 c 2,42,-1
 870 941 l 1,43,-1
 987 940 l 1,0,-1
444 405 m 0,44,45
 444 339 444 339 487 282 c 0,46,47
 535 218 535 218 683 207 c 2,48,-1
 709 205 l 1,49,-1
 1019 483 l 1,50,-1
 853 744 l 1,51,-1
 801 744 l 2,52,53
 644 744 644 744 569 672 c 128,-1,54
 494 600 494 600 452 475 c 2,55,-1
 451 472 l 2,56,57
 444 451 444 451 444 405 c 0,44,45
EndSplineSet
Validated: 1
EndChar

StartChar: quotesingle
Encoding: 39 39 10
Width: 648
GlyphClass: 2
Flags: W
HStem: 982 530
VStem: 451 322
DStem2: 451 982 650.3 982 0.224951 0.97437<127.963 479.326>
LayerCount: 2
Fore
SplineSet
773 1512 m 1,0,-1
 669 1063 l 1,1,-1
 451 982 l 1,2,-1
 559 1449 l 1,3,-1
 773 1512 l 1,0,-1
EndSplineSet
Validated: 1
EndChar

StartChar: parenleft
Encoding: 40 40 11
Width: 740
GlyphClass: 2
Flags: W
VStem: 267 198<59.408 701.078>
DStem2: 535 -48 335 -108 0.301347 -0.953515<-362.695 198.596> 754 1588 887 1477 0.630169 0.776458<-424.789 202.419>
LayerCount: 2
Fore
SplineSet
402 -320 m 1,0,1
 360 -200 360 -200 350 -159 c 0,2,3
 348 -151 348 -151 335 -108 c 0,4,5
 295 22 295 22 272 218 c 0,6,7
 267 263 267 263 267 316 c 0,8,9
 268 467 268 467 318 734 c 0,10,11
 356 935 356 935 496 1197 c 0,12,13
 581 1356 581 1356 715 1537 c 1,14,-1
 754 1588 l 1,15,16
 792 1636 792 1636 883 1744 c 1,17,-1
 1043 1659 l 1,18,19
 968 1574 968 1574 931 1532 c 1,20,21
 909 1504 909 1504 887 1477 c 0,22,23
 776 1333 776 1333 665 1138 c 0,24,25
 562 957 562 957 505 717 c 0,26,27
 465 549 465 549 465 389 c 0,28,29
 465 339 465 339 469 291 c 0,30,31
 480 166 480 166 535 -48 c 0,32,33
 543 -79 543 -79 551 -101 c 0,34,35
 564 -139 564 -139 596 -237 c 1,36,-1
 402 -320 l 1,0,1
EndSplineSet
Validated: 1
EndChar

StartChar: parenright
Encoding: 41 41 12
Width: 740
GlyphClass: 2
Flags: W
VStem: 607 191<699.057 1376.75>
DStem2: 34 -237 190 -320 0.614198 0.789152<30.3153 708.932>
LayerCount: 2
Fore
SplineSet
34 -237 m 1,0,1
 112 -142 112 -142 147 -99 c 1,2,-1
 183 -48 l 1,3,4
 313 119 313 119 405 291 c 0,5,6
 516 499 516 499 567 717 c 0,7,8
 607 889 607 889 607 1032 c 0,9,10
 607 1088 607 1088 601 1138 c 0,11,12
 571 1382 571 1382 535 1477 c 0,13,14
 522 1511 522 1511 516 1528 c 0,15,16
 504 1566 504 1566 463 1659 c 1,17,-1
 663 1744 l 1,18,19
 704 1636 704 1636 720 1588 c 1,20,-1
 735 1537 l 1,21,22
 779 1378 779 1378 794 1214 c 0,23,24
 798 1171 798 1171 798 1082 c 0,25,26
 798 920 798 920 756 706 c 0,27,28
 712 484 712 484 578 238 c 0,29,30
 485 67 485 67 355 -108 c 0,31,32
 326 -147 326 -147 316 -159 c 1,33,34
 285 -202 285 -202 190 -320 c 1,35,-1
 34 -237 l 1,0,1
EndSplineSet
Validated: 1
EndChar

StartChar: asterisk
Encoding: 42 42 13
Width: 1190
GlyphClass: 2
Flags: W
HStem: 1492 20G<995.391 1038.38>
DStem2: 355 905 503 779 0.89069 0.454612<74.541 294.577 697.23 915.031> 630 1321 422 1196 0.831845 -0.555007<0 157.894 487.304 647.693> 632 589 830.222 589 0.224951 0.97437<136.958 297.639 694.159 852.892>
LayerCount: 2
Fore
SplineSet
851 679 m 1,0,-1
 632 589 l 1,1,-1
 699 879 l 1,2,-1
 503 779 l 1,3,-1
 355 905 l 1,4,-1
 639 1050 l 1,5,-1
 422 1196 l 1,6,-1
 630 1321 l 1,7,-1
 778 1222 l 1,8,-1
 824 1420 l 1,9,-1
 1043 1512 l 1,10,-1
 976 1222 l 1,11,-1
 1170 1321 l 1,12,-1
 1320 1196 l 1,13,-1
 1035 1050 l 1,14,-1
 1253 905 l 1,15,-1
 1047 779 l 1,16,-1
 897 879 l 1,17,-1
 851 679 l 1,0,-1
EndSplineSet
Validated: 1
EndChar

StartChar: plus
Encoding: 43 43 14
Width: 1083
GlyphClass: 2
Flags: W
HStem: 600 198<354 581 824 1050>
DStem2: 497 238 695.222 238 0.224951 0.97437<136.958 371.618 619.206 851.918>
LayerCount: 2
Fore
SplineSet
716 328 m 1,0,-1
 497 238 l 1,1,-1
 581 600 l 1,2,-1
 219 600 l 1,3,-1
 354 798 l 1,4,-1
 626 798 l 1,5,-1
 689 1068 l 1,6,-1
 908 1160 l 1,7,-1
 824 798 l 1,8,-1
 1187 798 l 1,9,-1
 1050 600 l 1,10,-1
 779 600 l 1,11,-1
 716 328 l 1,0,-1
EndSplineSet
Validated: 1
EndChar

StartChar: comma
Encoding: 44 44 15
Width: 608
GlyphClass: 2
Flags: W
HStem: -262 542
VStem: 69 434
DStem2: 69 -177 239 -262 0.501633 0.86508<11.7458 528.275>
LayerCount: 2
Fore
SplineSet
239 -262 m 1,0,-1
 69 -177 l 1,1,-1
 334 280 l 1,2,-1
 503 194 l 1,3,-1
 239 -262 l 1,0,-1
EndSplineSet
Validated: 1
EndChar

StartChar: hyphen
Encoding: 45 45 16
Width: 1083
GlyphClass: 2
Flags: W
HStem: 600 198<354 1050>
LayerCount: 2
Fore
SplineSet
354 798 m 1,0,-1
 1187 798 l 1,1,-1
 1050 600 l 1,2,-1
 219 600 l 1,3,-1
 354 798 l 1,0,-1
EndSplineSet
Validated: 1
EndChar

StartChar: period
Encoding: 46 46 17
Width: 560
GlyphClass: 2
Flags: W
HStem: 0 264<233.008 387.947>
VStem: 176 268<55.4863 207.199>
LayerCount: 2
Fore
SplineSet
180 132 m 0,0,1
 194 188 194 188 240 226 c 128,-1,2
 286 264 286 264 341 264 c 128,-1,3
 396 264 396 264 424 226 c 0,4,5
 444 199 444 199 444 165 c 0,6,7
 444 149 444 149 440 132 c 0,8,9
 427 76 427 76 381 38 c 0,10,11
 334 0 334 0 280 0 c 128,-1,12
 226 0 226 0 197 38 c 0,13,14
 176 66 176 66 176 98 c 0,15,16
 176 115 176 115 180 132 c 0,0,1
EndSplineSet
Validated: 1
EndChar

StartChar: slash
Encoding: 47 47 18
Width: 1065
GlyphClass: 2
Flags: W
DStem2: -20 -132 139 -216 0.581797 0.813334<24.1858 2195.57>
LayerCount: 2
Fore
SplineSet
-20 -132 m 1,0,-1
 1257 1654 l 1,1,-1
 1418 1572 l 1,2,-1
 139 -216 l 1,3,-1
 -20 -132 l 1,0,-1
EndSplineSet
Validated: 1
EndChar

StartChar: zero
Encoding: 48 48 19
Width: 1324
GlyphClass: 2
Flags: W
HStem: -1 194<581.14 859.844> 1328 190<824.167 1103.7>
VStem: 246 210<340.18 815.022> 1225 201<692.352 1185.66>
LayerCount: 2
Fore
SplineSet
713 193 m 0,0,1
 813 193 813 193 911 268 c 1,2,3
 1020 350 1020 350 1090 476 c 0,4,5
 1159 599 1159 599 1203 754 c 1,6,-1
 1204 760 l 1,7,8
 1225 894 1225 894 1225 980 c 0,9,10
 1225 1017 1225 1017 1221 1045 c 0,11,12
 1202 1179 1202 1179 1138 1252 c 0,13,14
 1071 1328 1071 1328 974 1328 c 0,15,16
 880 1328 880 1328 775 1252 c 0,17,18
 686 1187 686 1187 601 1049 c 0,19,20
 515 909 515 909 482 778 c 0,21,22
 456 674 456 674 456 572 c 0,23,24
 456 519 456 519 463 468 c 0,25,26
 480 343 480 343 548 268 c 128,-1,27
 616 193 616 193 713 193 c 0,0,1
662 -1 m 0,28,29
 550 -1 550 -1 458 60 c 0,30,31
 368 120 368 120 314 219 c 0,32,33
 267 305 267 305 250 460 c 0,34,35
 246 496 246 496 246 561 c 0,36,37
 246 635 246 635 275 758 c 0,38,39
 312 915 312 915 387 1053 c 0,40,41
 463 1194 463 1194 563 1296 c 0,42,43
 662 1397 662 1397 780 1457 c 0,44,45
 900 1518 900 1518 1012 1518 c 0,46,47
 1123 1518 1123 1518 1216 1457 c 0,48,49
 1304 1400 1304 1400 1359 1296 c 0,50,51
 1410 1199 1410 1199 1423 1053 c 0,52,53
 1426 1018 1426 1018 1426 982 c 0,54,55
 1426 874 1426 874 1399 758 c 0,56,57
 1363 605 1363 605 1287 464 c 0,58,59
 1210 322 1210 322 1111 221 c 0,60,61
 1014 122 1014 122 894 60 c 0,62,63
 776 -1 776 -1 662 -1 c 0,28,29
EndSplineSet
Validated: 1
EndChar

StartChar: one
Encoding: 49 49 20
Width: 780
GlyphClass: 2
Flags: W
HStem: 0 21G<338.597 381.174> 1493 20G<591.807 729.5>
VStem: 625 208<1135.53 1311.9>
DStem2: 280 1212 403 1138 0.742852 0.669456<41.831 301.687> 334 0 529.76 0 0.224951 0.97437<138.456 1337.42>
LayerCount: 2
Fore
SplineSet
334 0 m 1,0,-1
 622 1253 l 2,1,2
 625 1267 625 1267 625 1277 c 0,3,4
 626 1309 626 1309 596 1312 c 1,5,-1
 403 1138 l 1,6,-1
 280 1212 l 1,7,-1
 614 1513 l 1,8,-1
 626 1513 l 2,9,10
 833 1513 833 1513 833 1350 c 0,11,12
 833 1327 833 1327 829 1301 c 1,13,-1
 551 92 l 1,14,-1
 334 0 l 1,0,-1
EndSplineSet
Validated: 1
EndChar

StartChar: two
Encoding: 50 50 21
Width: 1238
GlyphClass: 2
Flags: W
HStem: 0 186<345.582 973.023> 1328 183<741.878 1058.67>
VStem: 1142 203<939.589 1243.21>
LayerCount: 2
Fore
SplineSet
323 910 m 1,0,-1
 344 1018 l 1,1,2
 391 1220 391 1220 570 1367 c 1,3,4
 748 1511 748 1511 952 1511 c 0,5,6
 1155 1511 1155 1511 1267 1366 c 0,7,8
 1345 1265 1345 1265 1345 1134 c 0,9,10
 1345 1079 1345 1079 1331 1018 c 2,11,-1
 1321 977 l 1,12,13
 1250 799 1250 799 1114 698 c 0,14,15
 999 613 999 613 799 546 c 1,16,17
 394 390 394 390 342 189 c 1,18,19
 363 186 363 186 441 186 c 0,20,21
 472 186 472 186 553 187 c 0,22,23
 676 189 676 189 880 195 c 0,24,25
 943 197 943 197 974 211 c 0,26,27
 1012 228 1012 228 1043 289 c 1,28,-1
 1185 205 l 1,29,30
 1087 18 1087 18 829 4 c 1,31,-1
 352 0 l 1,32,33
 145 0 145 0 145 165 c 0,34,35
 145 188 145 188 149 214 c 1,36,37
 284 489 284 489 681 672 c 1,38,-1
 752 705 l 1,39,40
 1024 792 1024 792 1114 967 c 1,41,-1
 1132 1011 l 1,42,43
 1142 1054 1142 1054 1142 1093 c 0,44,45
 1142 1173 1142 1173 1101 1238 c 0,46,47
 1044 1328 1044 1328 887 1328 c 0,48,49
 784 1328 784 1328 679 1238 c 0,50,51
 576 1150 576 1150 544 1011 c 1,52,-1
 542 999 l 1,53,-1
 323 910 l 1,0,-1
EndSplineSet
Validated: 1
EndChar

StartChar: three
Encoding: 51 51 22
Width: 1186
GlyphClass: 2
Flags: W
HStem: 4 192<493.181 809.278> 1298 194<578 1086>
VStem: 202 209<280.536 517.372> 1011 198<401.896 692.486>
DStem2: 726 1000 912 952 0.770322 0.637655<112.672 467.337>
LayerCount: 2
Fore
SplineSet
440 1298 m 1,0,-1
 578 1492 l 1,1,-1
 1134 1491 l 2,2,3
 1325 1491 1325 1491 1339 1372 c 0,4,5
 1341 1355 1341 1355 1336 1331 c 0,6,7
 1325 1280 1325 1280 1264 1232 c 2,8,-1
 912 952 l 1,9,-1
 937 948 l 1,10,11
 992 932 992 932 1033 910 c 0,12,13
 1086 882 1086 882 1141 820 c 1,14,15
 1209 741 1209 741 1209 598 c 0,16,17
 1209 566 1209 566 1205 526 c 2,18,-1
 1203 506 l 1,19,20
 1156 303 1156 303 977 153 c 0,21,22
 799 4 799 4 595 4 c 128,-1,23
 391 4 391 4 279 148 c 1,24,25
 202 251 202 251 202 383 c 0,26,27
 202 438 202 438 215 497 c 2,28,-1
 221 524 l 1,29,-1
 441 615 l 1,30,-1
 425 548 l 2,31,32
 411 488 411 488 411 428 c 0,33,34
 411 352 411 352 447 292 c 0,35,36
 505 196 505 196 639 196 c 0,37,38
 775 196 775 196 881 290 c 0,39,40
 977 375 977 375 1006 504 c 1,41,-1
 1009 526 l 2,42,43
 1011 544 1011 544 1011 571 c 0,44,45
 1011 654 1011 654 942 720 c 0,46,47
 886 774 886 774 792 777 c 0,48,49
 669 781 669 781 657 871 c 0,50,51
 655 886 655 886 658 901 c 0,52,53
 666 943 666 943 726 1000 c 1,54,-1
 1086 1298 l 1,55,-1
 440 1298 l 1,0,-1
EndSplineSet
Validated: 1
EndChar

StartChar: four
Encoding: 52 52 23
Width: 1103
GlyphClass: 2
Flags: W
HStem: 0 21G<654.548 697.174> 387 187<391 738 977 1022> 1495 20G<982.463 1081.5>
DStem2: 238 646 391 574 0.659301 0.75188<46.7377 873.714> 650 0 845.76 0 0.224951 0.97437<138.456 396.877 633.822 1234.7>
LayerCount: 2
Fore
SplineSet
650 0 m 1,0,-1
 738 387 l 1,1,-1
 368 387 l 2,2,3
 165 387 165 387 165 487 c 0,4,5
 165 501 165 501 169 517 c 0,6,7
 182 571 182 571 238 646 c 1,8,-1
 1000 1515 l 1,9,-1
 1012 1515 l 2,10,11
 1151 1515 1151 1515 1151 1367 c 0,12,13
 1151 1337 1151 1337 1145 1301 c 1,14,-1
 977 575 l 1,15,-1
 1156 578 l 1,16,-1
 1022 390 l 1,17,-1
 935 390 l 1,18,-1
 867 92 l 1,19,-1
 650 0 l 1,0,-1
781 574 m 1,20,-1
 928 1203 l 1,21,-1
 391 574 l 1,22,-1
 781 574 l 1,20,-1
EndSplineSet
Validated: 1
EndChar

StartChar: five
Encoding: 53 53 24
Width: 1185
GlyphClass: 2
Flags: W
HStem: 4 181<495.45 809.877> 807 169<629.062 921.748> 1302 190<782.317 1242>
VStem: 205 200<277.807 529.227> 1011 200<403.785 714.844>
DStem2: 430 926 627 948 0.417293 0.908772<102.2 500.005>
LayerCount: 2
Fore
SplineSet
221 524 m 1,0,-1
 439 615 l 1,1,-1
 416 518 l 2,2,3
 405 471 405 471 405 429 c 0,4,5
 405 343 405 343 450 276 c 0,6,7
 511 185 511 185 662 185 c 0,8,9
 775 185 775 185 876 278 c 0,10,11
 962 357 962 357 1004 504 c 2,12,-1
 1008 518 l 1,13,14
 1011 542 1011 542 1011 564 c 0,15,16
 1011 633 1011 633 983 688 c 0,17,18
 948 756 948 756 887 784 c 0,19,20
 836 807 836 807 779 807 c 0,21,22
 776 807 776 807 774 807 c 0,23,24
 747 807 747 807 741 806 c 0,25,26
 570 775 570 775 542 770 c 0,27,28
 521 766 521 766 503 766 c 0,29,30
 443 766 443 766 422 800 c 0,31,32
 412 816 412 816 412 841 c 0,33,34
 412 858 412 858 417 880 c 2,35,-1
 419 889 l 2,36,37
 423 906 423 906 430 926 c 1,38,-1
 610 1318 l 1,39,40
 737 1492 737 1492 925 1492 c 2,41,-1
 929 1492 l 1,42,-1
 950 1492 l 1,43,-1
 1374 1493 l 1,44,-1
 1242 1301 l 1,45,-1
 893 1302 l 1,46,47
 830 1298 830 1298 806 1281 c 0,48,49
 772 1257 772 1257 762 1232 c 1,50,-1
 627 948 l 1,51,-1
 659 956 l 2,52,53
 742 976 742 976 832 976 c 0,54,55
 917 976 917 976 1000 946 c 0,56,57
 1089 914 1089 914 1157 812 c 1,58,59
 1211 726 1211 726 1211 616 c 0,60,61
 1211 569 1211 569 1201 516 c 1,62,-1
 1198 497 l 1,63,64
 1151 292 1151 292 974 148 c 128,-1,65
 797 4 797 4 593 4 c 128,-1,66
 389 4 389 4 277 148 c 1,67,68
 205 270 205 270 205 399 c 0,69,70
 205 449 205 449 218 510 c 2,71,-1
 221 524 l 1,0,-1
EndSplineSet
Validated: 1
EndChar

StartChar: six
Encoding: 54 54 25
Width: 1252
GlyphClass: 2
Flags: W
HStem: 0 189<580.789 877.845> 794 193<670.606 992.855> 1329 190<821.323 1105.96>
VStem: 248 228<298.839 627.859> 1071 208<394.463 717.658>
LayerCount: 2
Fore
SplineSet
745 189 m 0,0,1
 840 189 840 189 944 278 c 0,2,3
 1026 348 1026 348 1063 488 c 1,4,5
 1071 530 1071 530 1071 567 c 0,6,7
 1071 649 1071 649 1032 710 c 1,8,9
 973 794 973 794 837 794 c 128,-1,10
 701 794 701 794 590 712 c 0,11,12
 526 665 526 665 488 553 c 0,13,14
 479 526 479 526 476 479 c 0,15,16
 475 464 475 464 476 448 c 0,17,18
 485 334 485 334 544 267 c 0,19,20
 609 193 609 193 706 190 c 0,21,22
 735 189 735 189 745 189 c 0,0,1
1390 1167 m 1,23,-1
 1193 1088 l 1,24,25
 1193 1094 1193 1094 1193 1112 c 0,26,27
 1193 1184 1193 1184 1138 1253 c 0,28,29
 1077 1329 1077 1329 975 1329 c 0,30,31
 874 1329 874 1329 775 1253 c 0,32,33
 683 1182 683 1182 599 1046 c 0,34,35
 535 942 535 942 508 848 c 1,36,-1
 572 891 l 1,37,38
 722 987 722 987 886 987 c 0,39,40
 1089 987 1089 987 1201 842 c 1,41,42
 1279 744 1279 744 1279 613 c 0,43,44
 1279 608 1279 608 1279 603 c 0,45,46
 1279 569 1279 569 1272 518 c 1,47,-1
 1269 505 l 1,48,-1
 1262 477 l 2,49,50
 1213 282 1213 282 1044 145 c 1,51,52
 867 0 867 0 662 0 c 0,53,54
 547 0 547 0 458 60 c 0,55,56
 367 122 367 122 315 222 c 0,57,58
 264 321 264 321 251 464 c 0,59,60
 248 498 248 498 248 532 c 0,61,62
 250 647 250 647 275 759 c 0,63,64
 309 913 309 913 387 1054 c 0,65,66
 466 1198 466 1198 563 1297 c 0,67,68
 658 1394 658 1394 781 1458 c 0,69,70
 898 1519 898 1519 1012 1519 c 0,71,72
 1127 1519 1127 1519 1218 1457 c 0,73,74
 1349 1367 1349 1367 1386 1196 c 1,75,-1
 1390 1167 l 1,23,-1
EndSplineSet
Validated: 1
EndChar

StartChar: seven
Encoding: 55 55 26
Width: 993
GlyphClass: 2
Flags: W
HStem: 0 21G<162.256 197.718> 1299 194<489 1010>
DStem2: 149 0 434 117 0.552477 0.833528<254.979 1558.44>
LayerCount: 2
Fore
SplineSet
149 0 m 1,0,-1
 1010 1299 l 1,1,-1
 350 1299 l 1,2,-1
 489 1493 l 1,3,-1
 1058 1492 l 2,4,5
 1260 1492 1260 1492 1260 1390 c 0,6,7
 1260 1377 1260 1377 1257 1362 c 0,8,9
 1247 1312 1247 1312 1189 1233 c 1,10,-1
 434 117 l 1,11,-1
 149 0 l 1,0,-1
EndSplineSet
Validated: 1
EndChar

StartChar: eight
Encoding: 56 56 27
Width: 1184
GlyphClass: 2
Flags: W
HStem: -3 195<483.147 802.895> 794 176<689.787 917.466> 1348 168<737.278 1033.32>
VStem: 199 205<269.344 586.75> 436 199<1022.8 1248.12> 1006 205<390.961 702.47> 1082 195<1076.34 1296.8>
LayerCount: 2
Fore
SplineSet
416 512 m 1,0,-1
 413 497 l 2,1,2
 404 451 404 451 404 412 c 0,3,4
 404 333 404 333 440 280 c 0,5,6
 500 192 500 192 637 192 c 0,7,8
 758 192 758 192 872 280 c 0,9,10
 965 352 965 352 996 472 c 1,11,12
 1006 518 1006 518 1006 558 c 0,13,14
 1005 641 1005 641 966 696 c 1,15,16
 905 794 905 794 772 794 c 0,17,18
 616 794 616 794 530 701 c 0,19,20
 450 615 450 615 416 512 c 1,0,-1
828 970 m 0,21,22
 913 970 913 970 995 1030 c 1,23,24
 1056 1084 1056 1084 1071 1148 c 2,25,-1
 1078 1178 l 2,26,27
 1082 1195 1082 1195 1082 1211 c 0,28,29
 1082 1259 1082 1259 1045 1295 c 1,30,31
 986 1348 986 1348 892 1348 c 0,32,33
 827 1348 827 1348 749 1310 c 0,34,35
 675 1273 675 1273 641 1172 c 2,36,-1
 639 1166 l 1,37,-1
 638 1160 l 2,38,39
 635 1144 635 1144 635 1129 c 0,40,41
 637 1069 637 1069 676 1026 c 0,42,43
 727 970 727 970 828 970 c 0,21,22
536 896 m 1,44,45
 436 981 436 981 436 1087 c 1,46,47
 435 1113 435 1113 442 1142 c 2,48,-1
 445 1155 l 2,49,50
 478 1300 478 1300 624 1408 c 128,-1,51
 770 1516 770 1516 940 1516 c 0,52,53
 1102 1516 1102 1516 1206 1412 c 0,54,55
 1277 1341 1277 1341 1277 1239 c 0,56,57
 1277 1203 1277 1203 1268 1162 c 2,58,-1
 1262 1135 l 1,59,60
 1233 1011 1233 1011 1067 892 c 1,61,62
 1094 881 1094 881 1133 839 c 0,63,64
 1211 755 1211 755 1211 611 c 0,65,66
 1211 565 1211 565 1203 515 c 1,67,-1
 1200 502 l 1,68,-1
 1193 474 l 1,69,70
 1150 284 1150 284 976 142 c 0,71,72
 798 -3 798 -3 588 -3 c 0,73,74
 379 -3 379 -3 268 142 c 1,75,76
 199 243 199 243 199 371 c 0,77,78
 199 409 199 409 205 450 c 0,79,80
 205 451 205 451 212 483 c 0,81,82
 237 596 237 596 286 672 c 0,83,84
 360 787 360 787 503 888 c 1,85,-1
 536 896 l 1,44,45
EndSplineSet
Validated: 1
EndChar

StartChar: nine
Encoding: 57 57 28
Width: 1252
GlyphClass: 2
Flags: W
HStem: 0 190<497.043 781.677> 532 193<610.145 932.394> 1330 189<725.155 1022.21>
VStem: 324 208<801.342 1124.54> 1127 228<891.141 1220.16>
LayerCount: 2
Fore
SplineSet
858 1330 m 0,0,1
 763 1330 763 1330 659 1241 c 0,2,3
 577 1171 577 1171 540 1031 c 1,4,5
 532 989 532 989 532 952 c 0,6,7
 532 870 532 870 571 809 c 1,8,9
 630 725 630 725 766 725 c 128,-1,10
 902 725 902 725 1013 807 c 0,11,12
 1077 854 1077 854 1115 966 c 0,13,14
 1124 993 1124 993 1127 1040 c 0,15,16
 1128 1055 1128 1055 1127 1071 c 0,17,18
 1118 1185 1118 1185 1059 1252 c 0,19,20
 994 1326 994 1326 897 1329 c 0,21,22
 868 1330 868 1330 858 1330 c 0,0,1
213 352 m 1,23,-1
 410 431 l 1,24,25
 410 425 410 425 410 407 c 0,26,27
 410 335 410 335 465 266 c 0,28,29
 526 190 526 190 628 190 c 0,30,31
 729 190 729 190 828 266 c 0,32,33
 920 337 920 337 1004 473 c 0,34,35
 1068 577 1068 577 1095 671 c 1,36,-1
 1031 628 l 1,37,38
 881 532 881 532 717 532 c 0,39,40
 514 532 514 532 402 677 c 1,41,42
 324 775 324 775 324 906 c 0,43,44
 324 911 324 911 324 916 c 0,45,46
 324 950 324 950 331 1001 c 1,47,-1
 334 1014 l 1,48,-1
 341 1042 l 2,49,50
 390 1237 390 1237 559 1374 c 1,51,52
 736 1519 736 1519 941 1519 c 0,53,54
 1056 1519 1056 1519 1145 1459 c 0,55,56
 1236 1397 1236 1397 1288 1297 c 0,57,58
 1339 1198 1339 1198 1352 1055 c 0,59,60
 1355 1021 1355 1021 1355 987 c 0,61,62
 1353 872 1353 872 1328 760 c 0,63,64
 1294 606 1294 606 1216 465 c 0,65,66
 1137 321 1137 321 1040 222 c 0,67,68
 945 125 945 125 822 61 c 0,69,70
 705 0 705 0 591 0 c 0,71,72
 476 0 476 0 385 62 c 0,73,74
 254 152 254 152 217 323 c 1,75,-1
 213 352 l 1,23,-1
EndSplineSet
Validated: 1
EndChar

StartChar: colon
Encoding: 58 58 29
Width: 562
GlyphClass: 2
Flags: W
HStem: 0 264<235.008 389.947> 553 264<360.008 514.947>
VStem: 178 268<55.4863 207.199> 303 268<608.486 760.199>
LayerCount: 2
Fore
SplineSet
307 685 m 0,0,1
 321 741 321 741 367 779 c 128,-1,2
 413 817 413 817 468 817 c 128,-1,3
 523 817 523 817 551 779 c 0,4,5
 571 752 571 752 571 718 c 0,6,7
 571 702 571 702 567 685 c 0,8,9
 554 629 554 629 508 591 c 0,10,11
 461 553 461 553 407 553 c 128,-1,12
 353 553 353 553 324 591 c 0,13,14
 303 619 303 619 303 651 c 0,15,16
 303 666 303 666 307 685 c 0,0,1
182 132 m 0,17,18
 196 188 196 188 242 226 c 128,-1,19
 288 264 288 264 343 264 c 128,-1,20
 398 264 398 264 426 226 c 0,21,22
 446 199 446 199 446 165 c 0,23,24
 446 149 446 149 442 132 c 0,25,26
 429 76 429 76 383 38 c 0,27,28
 336 0 336 0 282 0 c 128,-1,29
 228 0 228 0 199 38 c 0,30,31
 178 66 178 66 178 98 c 0,32,33
 178 113 178 113 182 132 c 0,17,18
EndSplineSet
Validated: 1
EndChar

StartChar: semicolon
Encoding: 59 59 30
Width: 628
GlyphClass: 2
Flags: W
HStem: 552 264<410.008 564.947>
VStem: 353 268<607.486 759.199>
DStem2: 69 -177 239 -262 0.501633 0.86508<11.7458 528.275>
LayerCount: 2
Fore
SplineSet
357 684 m 0,0,1
 371 740 371 740 417 778 c 128,-1,2
 463 816 463 816 518 816 c 128,-1,3
 573 816 573 816 601 778 c 0,4,5
 621 751 621 751 621 717 c 0,6,7
 621 701 621 701 617 684 c 0,8,9
 604 628 604 628 558 590 c 0,10,11
 511 552 511 552 457 552 c 128,-1,12
 403 552 403 552 374 590 c 0,13,14
 353 618 353 618 353 650 c 0,15,16
 353 665 353 665 357 684 c 0,0,1
239 -262 m 1,17,-1
 69 -177 l 1,18,-1
 334 280 l 1,19,-1
 503 194 l 1,20,-1
 239 -262 l 1,17,-1
EndSplineSet
Validated: 1
EndChar

StartChar: less
Encoding: 60 60 31
Width: 1139
GlyphClass: 2
Flags: W
DStem2: 535 678 218 599 0.864396 -0.502811<0 587.091> 333 767 535 678 0.883637 0.468173<136.827 918.614>
LayerCount: 2
Fore
SplineSet
333 767 m 1,0,-1
 1188 1220 l 1,1,-1
 1229 1038 l 1,2,-1
 535 678 l 1,3,-1
 1058 371 l 1,4,-1
 928 186 l 1,5,-1
 218 599 l 1,6,-1
 333 767 l 1,0,-1
EndSplineSet
Validated: 1
EndChar

StartChar: equal
Encoding: 61 61 32
Width: 1084
GlyphClass: 2
Flags: W
HStem: 436 176<311 1013> 784 176<392 1094>
LayerCount: 2
Fore
SplineSet
392 960 m 1,0,-1
 1225 960 l 1,1,-1
 1094 784 l 1,2,-1
 263 784 l 1,3,-1
 392 960 l 1,0,-1
311 612 m 1,4,-1
 1144 612 l 1,5,-1
 1013 436 l 1,6,-1
 182 436 l 1,7,-1
 311 612 l 1,4,-1
EndSplineSet
Validated: 1
EndChar

StartChar: greater
Encoding: 62 62 33
Width: 1139
GlyphClass: 2
Flags: W
DStem2: 235 368 276 186 0.883637 0.468173<0 781.786> 536 1220 406 1035 0.864088 -0.50334<0 587.23>
LayerCount: 2
Fore
SplineSet
1131 639 m 1,0,-1
 276 186 l 1,1,-1
 235 368 l 1,2,-1
 929 728 l 1,3,-1
 406 1035 l 1,4,-1
 536 1220 l 1,5,-1
 1245 807 l 1,6,-1
 1131 639 l 1,0,-1
EndSplineSet
Validated: 1
EndChar

StartChar: question
Encoding: 63 63 34
Width: 1287
GlyphClass: 2
Flags: W
HStem: 0 264<561.008 715.947> 1329 185<777.652 1107.47>
VStem: 504 268<55.4863 207.199> 1185 202<943.934 1249.5>
LayerCount: 2
Fore
SplineSet
508 132 m 0,0,1
 522 188 522 188 568 226 c 128,-1,2
 614 264 614 264 669 264 c 128,-1,3
 724 264 724 264 752 226 c 0,4,5
 772 199 772 199 772 165 c 0,6,7
 772 149 772 149 768 132 c 0,8,9
 755 76 755 76 709 38 c 0,10,11
 662 0 662 0 608 0 c 128,-1,12
 554 0 554 0 525 38 c 0,13,14
 504 66 504 66 504 98 c 0,15,16
 504 113 504 113 508 132 c 0,0,1
386 1021 m 1,17,18
 432 1223 432 1223 611 1370 c 1,19,20
 790 1514 790 1514 994 1514 c 0,21,22
 1199 1514 1199 1514 1309 1370 c 0,23,24
 1387 1268 1387 1268 1387 1137 c 0,25,26
 1387 1082 1387 1082 1373 1021 c 1,27,-1
 1362 980 l 1,28,29
 1299 828 1299 828 1159 716 c 0,30,31
 1152 710 1152 710 900 520 c 0,32,33
 810 452 810 452 794 400 c 2,34,-1
 790 387 l 1,35,-1
 576 294 l 1,36,-1
 605 419 l 1,37,38
 664 556 664 556 827 670 c 1,39,-1
 862 692 l 1,40,41
 1103 860 1103 860 1156 970 c 1,42,-1
 1174 1014 l 1,43,44
 1185 1060 1185 1060 1185 1101 c 0,45,46
 1184 1182 1184 1182 1145 1244 c 0,47,48
 1092 1329 1092 1329 943 1329 c 1,49,50
 807 1328 807 1328 708 1233 c 0,51,52
 617 1146 617 1146 586 1014 c 1,53,-1
 583 1002 l 1,54,-1
 365 924 l 1,55,-1
 386 1021 l 1,17,18
EndSplineSet
Validated: 1
EndChar

StartChar: at
Encoding: 64 64 35
Width: 1303
GlyphClass: 2
Flags: W
HStem: -391 194<540.961 820.032> 0 21G<966.561 1008.37> 934 194<777.335 1032.71>
VStem: 208 211<-53.3323 435.879> 524 215<221.037 341.07> 1106 196<666 851.08>
DStem2: 541 416 740 332 0.914478 0.404636<133.217 509.761> 871.731 -391 1061.72 -391 0.224951 0.97437<537.417 891.553>
LayerCount: 2
Fore
SplineSet
949 -273 m 1,0,1
 903 -305 903 -305 854 -330 c 0,2,3
 734 -391 734 -391 622 -391 c 128,-1,4
 510 -391 510 -391 418 -330 c 0,5,6
 329 -271 329 -271 275 -169 c 0,7,8
 224 -72 224 -72 211 74 c 0,9,10
 208 108 208 108 208 144 c 0,11,12
 208 251 208 251 235 368 c 0,13,14
 271 526 271 526 347 664 c 0,15,16
 424 805 424 805 523 906 c 0,17,18
 625 1010 625 1010 740 1068 c 0,19,20
 859 1128 859 1128 972 1128 c 0,21,22
 1089 1128 1089 1128 1175 1053 c 128,-1,23
 1261 978 1261 978 1289 847 c 0,24,25
 1302 787 1302 787 1302 723 c 0,26,27
 1302 646 1302 646 1283 564 c 2,28,-1
 1173 91 l 1,29,-1
 962 0 l 1,30,-1
 1071 478 l 1,31,-1
 740 332 l 1,32,33
 739 321 739 321 739 297 c 0,34,35
 739 272 739 272 754 238 c 1,36,37
 783 192 783 192 824 178 c 0,38,39
 834 174 834 174 891 174 c 0,40,41
 904 174 904 174 917 174 c 2,42,-1
 974 178 l 1,43,-1
 841 0 l 1,44,45
 814 -5 814 -5 789 -5 c 0,46,47
 765 -5 765 -5 741 0 c 0,48,49
 642 21 642 21 584 100 c 0,50,51
 524 181 524 181 524 290 c 0,52,53
 524 340 524 340 537 398 c 2,54,-1
 541 416 l 1,55,-1
 1106 666 l 1,56,-1
 1106 711 l 2,57,58
 1106 768 1106 768 1073 833 c 0,59,60
 1022 934 1022 934 933 934 c 0,61,62
 832 934 832 934 735 862 c 0,63,64
 634 786 634 786 557 655 c 0,65,66
 479 522 479 522 443 370 c 0,67,68
 419 268 419 268 419 176 c 0,69,70
 419 130 419 130 425 86 c 0,71,72
 441 -47 441 -47 508 -122 c 128,-1,73
 575 -197 575 -197 673 -197 c 0,74,75
 747 -197 747 -197 822 -154 c 1,76,-1
 949 -273 l 1,0,1
EndSplineSet
Validated: 1
EndChar

StartChar: A
Encoding: 65 65 36
Width: 1405
GlyphClass: 2
Flags: W
HStem: 0 21G<184.62 229.111> 21 182<744 802 1082 1190> 684 192<582 1202> 1303 211<853.624 1121.05>
VStem: 1243 209<875.219 1151.46>
DStem2: 180 0 380.222 0 0.224951 0.97437<137.407 747.002 943.979 1214.04>
LayerCount: 2
Fore
SplineSet
180 0 m 1,0,-1
 426 1065 l 1,1,2
 492 1203 492 1203 623 1324 c 0,3,4
 701 1396 701 1396 804 1447 c 0,5,6
 939 1514 939 1514 1036 1514 c 0,7,8
 1143 1514 1143 1514 1240 1447 c 0,9,10
 1333 1383 1333 1383 1386 1282 c 0,11,12
 1443 1173 1443 1173 1450 1039 c 0,13,14
 1452 999 1452 999 1452 943 c 0,15,16
 1452 846 1452 846 1431 764 c 0,17,18
 1387 592 1387 592 1322 473 c 0,19,20
 1284 404 1284 404 1183 295 c 0,21,22
 1130 238 1130 238 1082 203 c 1,23,-1
 1276 203 l 1,24,-1
 1190 21 l 1,25,-1
 660 21 l 1,26,-1
 744 203 l 1,27,-1
 802 217 l 1,28,29
 854 238 854 238 940 301 c 0,30,31
 1044 377 1044 377 1116 496 c 0,32,33
 1167 580 1167 580 1202 684 c 1,34,-1
 538 684 l 1,35,-1
 401 90 l 1,36,-1
 180 0 l 1,0,-1
582 876 m 1,37,-1
 1241 874 l 1,38,39
 1243 899 1243 899 1243 924 c 0,40,41
 1241 988 1241 988 1235 1038 c 0,42,43
 1224 1133 1224 1133 1151 1227 c 0,44,45
 1092 1303 1092 1303 987 1303 c 0,46,47
 889 1303 889 1303 788 1227 c 1,48,-1
 774 1215 l 1,49,50
 691 1146 691 1146 622 1050 c 1,51,-1
 582 876 l 1,37,-1
EndSplineSet
Validated: 1
EndChar

StartChar: B
Encoding: 66 66 37
Width: 1359
GlyphClass: 2
Flags: W
HStem: 0 21G<184.61 228.222> 21 189<583 975.889> 757 176<719 1045.19> 1317 195<857.334 1128.24>
VStem: 1120 196<355.104 681.203> 1168 201<1044.95 1276.18>
DStem2: 180 0 376.222 0 0.224951 0.97437<136.508 1205.15>
LayerCount: 2
Fore
SplineSet
180 0 m 1,0,-1
 425 1063 l 1,1,2
 489 1197 489 1197 622 1322 c 0,3,4
 698 1393 698 1393 804 1445 c 0,5,6
 941 1512 941 1512 1035 1512 c 0,7,8
 1161 1512 1161 1512 1233 1458 c 0,9,10
 1302 1406 1302 1406 1326 1369 c 0,11,12
 1369 1302 1369 1302 1369 1218 c 1,13,14
 1368 1176 1368 1176 1358 1130 c 0,15,16
 1331 1007 1331 1007 1221 910 c 1,17,-1
 1162 872 l 1,18,19
 1215 854 1215 854 1254 802 c 0,20,21
 1329 702 1329 702 1329 576 c 0,22,23
 1329 523 1329 523 1316 465 c 1,24,-1
 1316 462 l 1,25,26
 1270 271 1270 271 1117 145 c 0,27,28
 966 21 966 21 738 21 c 2,29,-1
 583 21 l 1,30,-1
 523 210 l 1,31,-1
 776 209 l 2,32,33
 931 209 931 209 1009 276 c 0,34,35
 1092 347 1092 347 1120 462 c 1,36,-1
 1120 465 l 1,37,38
 1128 499 1128 499 1128 531 c 0,39,40
 1128 600 1128 600 1092 658 c 0,41,42
 1031 757 1031 757 907 757 c 1,43,-1
 719 761 l 1,44,-1
 676 937 l 1,45,-1
 921 933 l 1,46,47
 1043 941 1043 941 1115 1032 c 0,48,49
 1149 1075 1149 1075 1163 1133 c 1,50,-1
 1164 1138 l 2,51,52
 1168 1155 1168 1155 1168 1172 c 0,53,54
 1167 1201 1167 1201 1157 1227 c 0,55,56
 1122 1317 1122 1317 994 1317 c 0,57,58
 916 1317 916 1317 796 1234 c 1,59,-1
 776 1218 l 1,60,61
 700 1152 700 1152 618 1050 c 1,62,-1
 397 90 l 1,63,-1
 180 0 l 1,0,-1
EndSplineSet
Validated: 1
EndChar

StartChar: C
Encoding: 67 67 38
Width: 1322
GlyphClass: 2
Flags: W
HStem: -1 190<628.834 903.924> 1328 190<873.199 1157.35>
VStem: 298 211<333.088 825.661>
LayerCount: 2
Fore
SplineSet
1281 472 m 1,0,1
 1236 340 1236 340 1144 224 c 0,2,3
 1071 132 1071 132 944 60 c 0,4,5
 836 -1 836 -1 712 -1 c 0,6,7
 601 -1 601 -1 508 60 c 0,8,9
 417 120 417 120 365 221 c 128,-1,10
 313 322 313 322 301 464 c 0,11,12
 298 499 298 499 298 534 c 0,13,14
 298 642 298 642 325 758 c 0,15,16
 362 917 362 917 437 1054 c 0,17,18
 515 1196 515 1196 613 1296 c 0,19,20
 713 1398 713 1398 830 1458 c 128,-1,21
 947 1518 947 1518 1062 1518 c 0,22,23
 1176 1518 1176 1518 1268 1456 c 1,24,25
 1398 1366 1398 1366 1436 1195 c 1,26,-1
 1440 1166 l 1,27,-1
 1243 1087 l 1,28,29
 1243 1099 1243 1099 1243 1111 c 0,30,31
 1243 1183 1243 1183 1188 1252 c 0,32,33
 1127 1328 1127 1328 1025 1328 c 0,34,35
 927 1328 927 1328 825 1252 c 128,-1,36
 723 1176 723 1176 645 1041 c 0,37,38
 566 904 566 904 530 748 c 0,39,40
 509 657 509 657 509 570 c 0,41,42
 509 516 509 516 515 476 c 0,43,44
 537 330 537 330 596 264 c 0,45,46
 663 189 663 189 756 189 c 0,47,48
 758 189 758 189 760 189 c 0,49,50
 914 189 914 189 1012 349 c 1,51,-1
 1024 373 l 1,52,-1
 1281 472 l 1,0,1
EndSplineSet
Validated: 1
EndChar

StartChar: D
Encoding: 68 68 39
Width: 1405
GlyphClass: 2
Flags: W
HStem: 0 21G<184.61 228.222> 21 189<583 862.807> 1303 211<854.081 1119.08>
VStem: 1243 210<682.582 1153.89>
DStem2: 180 0 376.222 0 0.224951 0.97437<136.508 1211.86>
LayerCount: 2
Fore
SplineSet
180 0 m 1,0,-1
 425 1063 l 1,1,2
 492 1200 492 1200 623 1324 c 0,3,4
 699 1396 699 1396 804 1447 c 0,5,6
 942 1514 942 1514 1036 1514 c 0,7,8
 1143 1514 1143 1514 1240 1447 c 0,9,10
 1334 1382 1334 1382 1386 1282 c 0,11,12
 1439 1180 1439 1180 1450 1039 c 0,13,14
 1453 1000 1453 1000 1453 963 c 0,15,16
 1453 859 1453 859 1431 764 c 0,17,18
 1394 607 1394 607 1321 485 c 0,19,20
 1186 261 1186 261 1018 138 c 0,21,22
 893 47 893 47 738 21 c 1,23,-1
 583 21 l 1,24,-1
 523 210 l 1,25,-1
 696 212 l 1,26,27
 862 236 862 236 942 298 c 0,28,29
 1012 353 1012 353 1106 486 c 0,30,31
 1176 585 1176 585 1228 778 c 1,32,33
 1243 838 1243 838 1243 919 c 0,34,35
 1243 975 1243 975 1235 1038 c 0,36,37
 1222 1138 1222 1138 1151 1227 c 0,38,39
 1090 1303 1090 1303 987 1303 c 0,40,41
 889 1303 889 1303 788 1227 c 1,42,-1
 774 1215 l 1,43,44
 686 1146 686 1146 616 1045 c 1,45,-1
 397 90 l 1,46,-1
 180 0 l 1,0,-1
EndSplineSet
Validated: 1
EndChar

StartChar: E
Encoding: 69 69 40
Width: 1234
GlyphClass: 2
Flags: W
HStem: 0 195<513.771 952.184> 794 171<724.064 815> 1348 168<767.278 1063.32>
VStem: 228 206<269.408 586.75> 466 199<1024.24 1246.17>
LayerCount: 2
Fore
SplineSet
1241 248 m 1,0,1
 1198 195 1198 195 1140 148 c 0,2,3
 957 0 957 0 672 0 c 0,4,5
 407 0 407 0 298 142 c 1,6,7
 228 244 228 244 228 345 c 0,8,9
 228 358 228 358 229 371 c 0,10,11
 235 449 235 449 235 450 c 128,-1,12
 235 451 235 451 242 483 c 0,13,14
 267 596 267 596 316 672 c 0,15,16
 390 787 390 787 533 888 c 1,17,-1
 566 896 l 1,18,19
 470 977 470 977 466 1087 c 0,20,21
 465 1112 465 1112 472 1142 c 2,22,-1
 475 1155 l 2,23,24
 509 1300 509 1300 654 1408 c 0,25,26
 800 1516 800 1516 970 1516 c 0,27,28
 1132 1516 1132 1516 1236 1412 c 0,29,30
 1254 1394 1254 1394 1267 1374 c 1,31,-1
 1099 1264 l 1,32,33
 1090 1280 1090 1280 1075 1295 c 1,34,35
 1016 1348 1016 1348 922 1348 c 0,36,37
 857 1348 857 1348 779 1310 c 0,38,39
 705 1273 705 1273 671 1172 c 2,40,-1
 669 1166 l 1,41,-1
 668 1160 l 2,42,43
 665 1142 665 1142 665 1129 c 0,44,45
 667 1069 667 1069 706 1026 c 0,46,47
 757 970 757 970 870 965 c 0,48,49
 933 962 933 962 966 962 c 0,50,51
 993 962 993 962 1000 964 c 1,52,-1
 815 794 l 1,53,54
 809 794 809 794 802 794 c 0,55,56
 646 794 646 794 560 701 c 0,57,58
 480 615 480 615 446 512 c 1,59,-1
 443 497 l 2,60,61
 434 452 434 452 434 412 c 0,62,63
 434 333 434 333 470 280 c 0,64,65
 526 195 526 195 723 195 c 128,-1,66
 920 195 920 195 1036 286 c 0,67,68
 1064 308 1064 308 1086 334 c 1,69,-1
 1241 248 l 1,0,1
EndSplineSet
Validated: 1
EndChar

StartChar: F
Encoding: 70 70 41
Width: 1197
GlyphClass: 2
Flags: W
HStem: 0 21G<184.62 227.692> 683 192<577 1078> 1303 211<854.203 1118.07>
DStem2: 180 0 375.991 0 0.224951 0.97437<137.482 744.902 941.879 1205.72>
LayerCount: 2
Fore
SplineSet
180 0 m 1,0,-1
 426 1065 l 1,1,2
 488 1196 488 1196 623 1324 c 0,3,4
 699 1396 699 1396 804 1447 c 0,5,6
 942 1514 942 1514 1036 1514 c 0,7,8
 1143 1514 1143 1514 1240 1447 c 128,-1,9
 1337 1380 1337 1380 1386 1282 c 0,10,11
 1392 1270 1392 1270 1397 1258 c 1,12,-1
 1200 1151 l 1,13,14
 1181 1190 1181 1190 1151 1227 c 0,15,16
 1089 1303 1089 1303 987 1303 c 0,17,18
 985 1303 985 1303 982 1303 c 0,19,20
 922 1302 922 1302 860 1272 c 1,21,22
 828 1252 828 1252 787 1223 c 1,23,-1
 773 1211 l 1,24,25
 685 1142 685 1142 615 1041 c 1,26,-1
 577 875 l 1,27,-1
 1214 875 l 1,28,-1
 1078 685 l 1,29,-1
 533 683 l 1,30,-1
 397 91 l 1,31,-1
 180 0 l 1,0,-1
EndSplineSet
Validated: 1
EndChar

StartChar: G
Encoding: 71 71 42
Width: 1422
GlyphClass: 2
Flags: W
HStem: 0 202<628.377 897.316> 688 190<971 1231> 1321 190<871.878 1154.21>
VStem: 298 211<344.868 824.562>
LayerCount: 2
Fore
SplineSet
1467 880 m 1,0,1
 1467 855 1467 855 1433 696 c 1,2,3
 1409 593 1409 593 1344 475 c 0,4,5
 1267 334 1267 334 1168 233 c 0,6,7
 1068 131 1068 131 945 67 c 0,8,9
 817 0 817 0 713 0 c 0,10,11
 712 0 712 0 710 0 c 0,12,13
 595 0 595 0 506 61 c 0,14,15
 417 121 417 121 363 222 c 0,16,17
 305 331 305 331 299 465 c 0,18,19
 298 489 298 489 298 512 c 0,20,21
 300 651 300 651 323 751 c 0,22,23
 357 898 357 898 436 1046 c 0,24,25
 511 1186 511 1186 612 1289 c 0,26,27
 708 1387 708 1387 829 1450 c 0,28,29
 946 1511 946 1511 1061 1511 c 0,30,31
 1175 1511 1175 1511 1267 1449 c 1,32,33
 1397 1359 1397 1359 1434 1188 c 1,34,-1
 1439 1159 l 1,35,-1
 1241 1080 l 1,36,-1
 1241 1111 l 2,37,38
 1241 1177 1241 1177 1186 1245 c 0,39,40
 1125 1321 1125 1321 1023 1321 c 0,41,42
 926 1321 926 1321 823 1245 c 0,43,44
 721 1169 721 1169 641 1034 c 0,45,46
 568 910 568 910 531 753 c 0,47,48
 509 659 509 659 509 564 c 0,49,50
 509 514 509 514 515 466 c 0,51,52
 528 365 528 365 598 277 c 0,53,54
 658 202 658 202 759 202 c 0,55,56
 862 202 862 202 958 278 c 0,57,58
 1073 369 1073 369 1129 467 c 0,59,60
 1202 595 1202 595 1231 689 c 1,61,-1
 841 688 l 1,62,-1
 971 878 l 1,63,-1
 1467 880 l 1,0,1
EndSplineSet
Validated: 1
EndChar

StartChar: H
Encoding: 72 72 43
Width: 1429
GlyphClass: 2
Flags: W
HStem: 0 21G<204.613 247.609> 20 182<770 828 1108 1216> 682 192<598 1226> 1492 20G<698.333 742.329 1194.42 1240>
VStem: 1273 207<876.49 1152.02>
DStem2: 200 0 397.76 0 0.224951 0.97437<138.906 743.928 941.13 1459.34>
LayerCount: 2
Fore
SplineSet
200 0 m 1,0,-1
 528 1422 l 1,1,-1
 747 1512 l 1,2,-1
 598 874 l 1,3,-1
 1269 874 l 1,4,5
 1273 911 1273 911 1273 945 c 0,6,7
 1273 995 1273 995 1264 1039 c 0,8,9
 1240 1156 1240 1156 1182 1233 c 0,10,11
 1087 1360 1087 1360 986 1360 c 0,12,13
 976 1360 976 1360 951 1348 c 1,14,-1
 1228 1513 l 1,15,16
 1252 1498 1252 1498 1310 1442 c 0,17,18
 1368 1385 1368 1385 1413 1292 c 0,19,20
 1466 1183 1466 1183 1477 1049 c 0,21,22
 1480 1014 1480 1014 1480 979 c 0,23,24
 1480 872 1480 872 1453 755 c 0,25,26
 1420 612 1420 612 1344 465 c 0,27,28
 1313 404 1313 404 1209 294 c 0,29,30
 1162 244 1162 244 1108 202 c 1,31,-1
 1302 202 l 1,32,-1
 1216 20 l 1,33,-1
 686 20 l 1,34,-1
 770 202 l 1,35,-1
 828 216 l 1,36,37
 882 237 882 237 966 300 c 0,38,39
 1072 380 1072 380 1139 488 c 0,40,41
 1193 575 1193 575 1226 682 c 1,42,-1
 553 682 l 1,43,-1
 419 92 l 1,44,-1
 200 0 l 1,0,-1
EndSplineSet
Validated: 1
EndChar

StartChar: I
Encoding: 73 73 44
Width: 598
GlyphClass: 2
Flags: W
HStem: 0 21G<204.613 247.609> 1491 20G<697.786 742.377>
VStem: 200 547
DStem2: 200 0 397.76 0 0.224951 0.97437<138.906 1459.34>
LayerCount: 2
Fore
SplineSet
200 0 m 1,0,-1
 528 1422 l 1,1,-1
 747 1511 l 1,2,-1
 419 92 l 1,3,-1
 200 0 l 1,0,-1
EndSplineSet
Validated: 1
EndChar

StartChar: J
Encoding: 74 74 45
Width: 987
GlyphClass: 2
Flags: W
HStem: 20 191<252.941 573.507> 1282 198<549 885>
DStem2: 594.111 20 791.421 20 0.224951 0.97437<265.246 1295.09>
LayerCount: 2
Fore
SplineSet
300 20 m 2,0,1
 101 20 101 20 50 196 c 1,2,-1
 232 280 l 1,3,4
 227 260 227 260 252 231 c 1,5,6
 282 211 282 211 326 211 c 2,7,-1
 330 211 l 1,8,-1
 425 211 l 2,9,10
 509 211 509 211 583 258 c 0,11,12
 660 307 660 307 689 434 c 1,13,-1
 695 457 l 1,14,-1
 885 1282 l 1,15,-1
 458 1282 l 1,16,-1
 549 1480 l 1,17,-1
 1129 1480 l 1,18,-1
 887 434 l 2,19,20
 848 264 848 264 699 143 c 0,21,22
 548 20 548 20 380 20 c 2,23,-1
 300 20 l 2,0,1
EndSplineSet
Validated: 1
EndChar

StartChar: K
Encoding: 75 75 46
Width: 1300
GlyphClass: 2
Flags: W
HStem: 0 21G<204.621 247.609> 20 182<733 791 1071 1179> 1492 20G<697.455 742.385 1267.25 1300.97>
VStem: 1072 186<393.378 642.9>
DStem2: 200 0 397.76 0 0.224951 0.97437<138.906 844.73 1009.26 1461.51> 669 940 910 932 0.736168 0.676799<172.002 806.317>
LayerCount: 2
Fore
SplineSet
200 0 m 1,0,-1
 529 1424 l 1,1,-1
 747 1512 l 1,2,-1
 615 940 l 1,3,-1
 669 940 l 1,4,-1
 1289 1510 l 1,5,-1
 1380 1358 l 1,6,-1
 910 932 l 1,7,8
 972 921 972 921 1027 896 c 0,9,10
 1118 855 1118 855 1179 784 c 0,11,12
 1231 725 1231 725 1249 637 c 0,13,14
 1258 594 1258 594 1258 553 c 128,-1,15
 1258 512 1258 512 1249 475 c 0,16,17
 1226 379 1226 379 1165 295 c 0,18,19
 1141 262 1141 262 1071 202 c 1,20,-1
 1265 202 l 1,21,-1
 1179 20 l 1,22,-1
 649 20 l 1,23,-1
 733 202 l 1,24,-1
 791 216 l 1,25,26
 874 242 874 242 941 300 c 0,27,28
 1032 379 1032 379 1063 457 c 0,29,30
 1067 467 1067 467 1068 473 c 0,31,32
 1072 496 1072 496 1072 517 c 0,33,34
 1071 582 1071 582 1038 629 c 0,35,36
 1001 681 1001 681 946 718 c 0,37,38
 879 762 879 762 777 771 c 1,39,-1
 612 770 l 1,40,41
 580 768 580 768 571 748 c 1,42,-1
 419 92 l 1,43,-1
 200 0 l 1,0,-1
EndSplineSet
Validated: 1
EndChar

StartChar: L
Encoding: 76 76 47
Width: 1110
GlyphClass: 2
Flags: W
HStem: 21 188<456.165 944.023> 1492 20G<698.333 742.351>
VStem: 250 206<212.301 401.922>
DStem2: 204.594 21 400.821 21 0.224951 0.97437<251.707 1437.84>
LayerCount: 2
Fore
SplineSet
747 1512 m 1,0,-1
 459 273 l 2,1,2
 456 259 456 259 456 249 c 0,3,4
 455 217 455 217 485 214 c 1,5,6
 520 209 520 209 611 209 c 0,7,8
 694 209 694 209 851 214 c 0,9,10
 914 216 914 216 945 230 c 0,11,12
 983 247 983 247 1014 308 c 1,13,-1
 1157 224 l 1,14,15
 1059 37 1059 37 800 23 c 1,16,-1
 457 21 l 1,17,18
 250 21 250 21 250 186 c 0,19,20
 250 209 250 209 254 235 c 1,21,-1
 528 1422 l 1,22,-1
 747 1512 l 1,0,-1
EndSplineSet
Validated: 1
EndChar

StartChar: M
Encoding: 77 77 48
Width: 2245
GlyphClass: 2
Flags: W
HStem: 0 21G<554 591.281 1026.57 1071.11> 20 182<1582 1640 1920 2028> 1305 205<868.25 1148.1 1681.44 1958.15>
VStem: 300 212<359.997 830.99> 2083 211<682.986 1160.38>
DStem2: 1022 0 1222.22 0 0.224951 0.97437<137.407 1157.9>
LayerCount: 2
Fore
SplineSet
559 0 m 1,0,1
 549 6 549 6 469 81 c 0,2,3
 411 136 411 136 367 229 c 0,4,5
 314 340 314 340 303 472 c 0,6,7
 300 507 300 507 300 543 c 0,8,9
 300 651 300 651 327 767 c 0,10,11
 359 903 359 903 434 1042 c 0,12,13
 513 1188 513 1188 609 1284 c 0,14,15
 712 1387 712 1387 832 1449 c 0,16,17
 948 1509 948 1509 1064 1510 c 1,18,-1
 1068 1510 l 2,19,20
 1186 1510 1186 1510 1267.5 1449 c 128,-1,21
 1349 1388 1349 1388 1385 1321 c 1,22,-1
 1411 1246 l 1,23,24
 1419 1258 1419 1258 1476 1325 c 0,25,26
 1535 1394 1535 1394 1645 1449 c 0,27,28
 1767 1510 1767 1510 1898 1510 c 2,29,-1
 1902 1510 l 2,30,31
 1992 1510 1992 1510 2081 1449 c 0,32,33
 2170 1389 2170 1389 2226 1284 c 0,34,35
 2281 1182 2281 1182 2291 1042 c 0,36,37
 2294 1002 2294 1002 2294 963 c 0,38,39
 2294 861 2294 861 2272 767 c 0,40,41
 2234 605 2234 605 2160 472 c 0,42,43
 2112 386 2112 386 2021 294 c 0,44,45
 1964 236 1964 236 1920 202 c 1,46,-1
 2114 202 l 1,47,-1
 2028 20 l 1,48,-1
 1498 20 l 1,49,-1
 1582 202 l 1,50,-1
 1640 216 l 1,51,52
 1696 238 1696 238 1778 300 c 0,53,54
 1880 377 1880 377 1954 495 c 0,55,56
 2031 619 2031 619 2068 780 c 0,57,58
 2083 845 2083 845 2083 921 c 0,59,60
 2083 977 2083 977 2075 1040 c 0,61,62
 2061 1150 2061 1150 1992 1229 c 0,63,64
 1922 1309 1922 1309 1828 1310 c 1,65,-1
 1826 1310 l 2,66,67
 1736 1310 1736 1310 1629 1229 c 1,68,-1
 1614 1217 l 1,69,70
 1523 1150 1523 1150 1465 1066 c 1,71,-1
 1243 90 l 1,72,-1
 1022 0 l 1,73,-1
 1266 1067 l 1,74,75
 1244 1151 1244 1151 1187 1222 c 1,76,-1
 1182 1229 l 1,77,78
 1115 1305 1115 1305 1018 1305 c 0,79,80
 915 1305 915 1305 819 1229 c 0,81,82
 705 1139 705 1139 648 1040 c 0,83,84
 563 893 563 893 537 780 c 0,85,86
 512 673 512 673 512 584 c 0,87,88
 512 537 512 537 519 495 c 0,89,90
 542 359 542 359 598 288 c 0,91,92
 700 159 700 159 801 159 c 0,93,94
 811 159 811 159 835 171 c 1,95,-1
 559 0 l 1,0,1
EndSplineSet
Validated: 1
EndChar

StartChar: N
Encoding: 78 78 49
Width: 1404
GlyphClass: 2
Flags: W
HStem: 0 21G<184.62 229.111> 18 182<742 800 1079 1188> 1303 211<854.081 1119.08>
VStem: 1243 210<682.531 1153.89>
DStem2: 180 0 380.222 0 0.224951 0.97437<137.407 1214.91>
LayerCount: 2
Fore
SplineSet
180 0 m 1,0,-1
 426 1065 l 1,1,2
 488 1196 488 1196 623 1324 c 0,3,4
 699 1396 699 1396 804 1447 c 0,5,6
 942 1514 942 1514 1036 1514 c 0,7,8
 1143 1514 1143 1514 1240 1447 c 0,9,10
 1334 1382 1334 1382 1386 1282 c 0,11,12
 1439 1180 1439 1180 1450 1039 c 0,13,14
 1453 1000 1453 1000 1453 962 c 0,15,16
 1453 859 1453 859 1431 764 c 0,17,18
 1395 609 1395 609 1320 470 c 0,19,20
 1274 385 1274 385 1181 292 c 0,21,22
 1122 233 1122 233 1079 200 c 1,23,-1
 1274 200 l 1,24,-1
 1188 18 l 1,25,-1
 658 18 l 1,26,-1
 742 200 l 1,27,-1
 800 214 l 1,28,29
 851 235 851 235 938 298 c 0,30,31
 1040 373 1040 373 1114 493 c 1,32,33
 1191 620 1191 620 1228 778 c 0,34,35
 1243 843 1243 843 1243 919 c 0,36,37
 1243 975 1243 975 1235 1038 c 0,38,39
 1222 1138 1222 1138 1151 1227 c 0,40,41
 1090 1303 1090 1303 987 1303 c 0,42,43
 889 1303 889 1303 788 1227 c 1,44,-1
 774 1215 l 1,45,46
 691 1146 691 1146 622 1050 c 1,47,-1
 401 90 l 1,48,-1
 180 0 l 1,0,-1
EndSplineSet
Validated: 1
EndChar

StartChar: O
Encoding: 79 79 50
Width: 1424
GlyphClass: 2
Flags: W
HStem: -1 194<631.14 909.844> 1328 190<874.167 1153.7>
VStem: 296 210<340.18 815.022> 1275 201<692.352 1185.66>
LayerCount: 2
Fore
SplineSet
763 193 m 0,0,1
 863 193 863 193 961 268 c 1,2,3
 1070 350 1070 350 1140 476 c 0,4,5
 1209 599 1209 599 1253 754 c 1,6,-1
 1254 760 l 1,7,8
 1275 894 1275 894 1275 980 c 0,9,10
 1275 1017 1275 1017 1271 1045 c 0,11,12
 1252 1179 1252 1179 1188 1252 c 0,13,14
 1121 1328 1121 1328 1024 1328 c 0,15,16
 930 1328 930 1328 825 1252 c 0,17,18
 736 1187 736 1187 651 1049 c 0,19,20
 565 909 565 909 532 778 c 0,21,22
 506 674 506 674 506 572 c 0,23,24
 506 519 506 519 513 468 c 0,25,26
 530 343 530 343 598 268 c 128,-1,27
 666 193 666 193 763 193 c 0,0,1
712 -1 m 0,28,29
 600 -1 600 -1 508 60 c 0,30,31
 418 120 418 120 364 219 c 0,32,33
 317 305 317 305 300 460 c 0,34,35
 296 496 296 496 296 561 c 0,36,37
 296 635 296 635 325 758 c 0,38,39
 362 915 362 915 437 1053 c 0,40,41
 513 1194 513 1194 613 1296 c 0,42,43
 712 1397 712 1397 830 1457 c 0,44,45
 950 1518 950 1518 1062 1518 c 0,46,47
 1173 1518 1173 1518 1266 1457 c 0,48,49
 1354 1400 1354 1400 1409 1296 c 0,50,51
 1460 1199 1460 1199 1473 1053 c 0,52,53
 1476 1018 1476 1018 1476 982 c 0,54,55
 1476 874 1476 874 1449 758 c 0,56,57
 1413 605 1413 605 1337 464 c 0,58,59
 1260 322 1260 322 1161 221 c 0,60,61
 1064 122 1064 122 944 60 c 0,62,63
 826 -1 826 -1 712 -1 c 0,28,29
EndSplineSet
Validated: 1
EndChar

StartChar: P
Encoding: 80 80 51
Width: 1287
GlyphClass: 2
Flags: W
HStem: 0 21G<184.61 228.222> 524 186<714 1009.72> 1307 204<847.278 1145.82>
VStem: 1238 198<925.616 1216.89>
DStem2: 180 0 376.222 0 0.224951 0.97437<136.508 1213.11>
LayerCount: 2
Fore
SplineSet
180 0 m 1,0,-1
 425 1063 l 1,1,2
 493 1204 493 1204 616 1321 c 0,3,4
 693 1394 693 1394 797 1444 c 0,5,6
 936 1511 936 1511 1029 1511 c 0,7,8
 1250 1511 1250 1511 1359 1367 c 0,9,10
 1436 1265 1436 1265 1436 1135 c 0,11,12
 1436 1079 1436 1079 1422 1018 c 0,13,14
 1375 814 1375 814 1197 669 c 0,15,16
 1018 524 1018 524 815 524 c 2,17,-1
 566 524 l 1,18,-1
 714 710 l 1,19,-1
 851 710 l 2,20,21
 972 710 972 710 1102 815 c 0,22,23
 1201 895 1201 895 1226 1006 c 1,24,25
 1227 1016 1227 1016 1229 1024 c 0,26,27
 1238 1057 1238 1057 1238 1089 c 0,28,29
 1238 1165 1238 1165 1184 1229 c 0,30,31
 1118 1307 1118 1307 991 1307 c 0,32,33
 902 1307 902 1307 782 1224 c 1,34,-1
 767 1212 l 1,35,36
 687 1144 687 1144 618 1048 c 1,37,-1
 397 90 l 1,38,-1
 180 0 l 1,0,-1
EndSplineSet
Validated: 1
EndChar

StartChar: Q
Encoding: 81 81 52
Width: 1424
GlyphClass: 2
Flags: W
HStem: -1 21G<656.5 731.5> 1328 190<873.656 1154.82>
VStem: 298 211<334.836 824.415> 1278 198<691.637 1178.39>
DStem2: 1089 155 816 214 0.438593 -0.898686<-11.887 292.365>
LayerCount: 2
Fore
SplineSet
791 6 m 1,0,1
 751 -1 751 -1 712 -1 c 0,2,3
 601 -1 601 -1 508 60 c 0,4,5
 418 119 418 119 365 221 c 0,6,7
 313 321 313 321 301 459 c 0,8,9
 298 494 298 494 298 530 c 0,10,11
 298 638 298 638 325 756 c 0,12,13
 360 911 360 911 437 1054 c 0,14,15
 507 1185 507 1185 613 1296 c 0,16,17
 712 1399 712 1399 830 1458 c 0,18,19
 950 1518 950 1518 1062 1518 c 0,20,21
 1176 1518 1176 1518 1266 1458 c 0,22,23
 1356 1397 1356 1397 1409 1296 c 0,24,25
 1461 1197 1461 1197 1473 1054 c 0,26,27
 1476 1018 1476 1018 1476 982 c 0,28,29
 1476 874 1476 874 1449 758 c 0,30,31
 1413 605 1413 605 1337 464 c 0,32,33
 1257 317 1257 317 1161 221 c 0,34,35
 1126 186 1126 186 1089 155 c 1,36,-1
 1225 -117 l 1,37,-1
 1020 -204 l 1,38,-1
 816 214 l 1,39,-1
 908 248 l 1,40,41
 1056 333 1056 333 1140 476 c 0,42,43
 1211 597 1211 597 1254 760 c 0,44,45
 1278 852 1278 852 1278 938 c 0,46,47
 1278 944 1278 944 1278 951 c 0,48,49
 1278 995 1278 995 1271 1045 c 0,50,51
 1254 1175 1254 1175 1188 1252 c 0,52,53
 1123 1328 1123 1328 1025 1328 c 128,-1,54
 927 1328 927 1328 825 1252 c 0,55,56
 724 1176 724 1176 647 1045 c 0,57,58
 569 912 569 912 533 760 c 0,59,60
 509 658 509 658 509 566 c 0,61,62
 509 520 509 520 515 476 c 0,63,64
 531 343 531 343 598 268 c 0,65,66
 651 209 651 209 723 196 c 1,67,-1
 791 6 l 1,0,1
EndSplineSet
Validated: 1
EndChar

StartChar: R
Encoding: 82 82 53
Width: 1337
GlyphClass: 2
Flags: W
HStem: 0 21G<184.61 228.222 953.618 1012.26> 1307 204<847.278 1145.82>
VStem: 1238 198<923.715 1216.89>
DStem2: 180 0 376.222 0 0.224951 0.97437<136.508 1213.11> 828 525 566 524 0.609638 -0.79268<0 502.116>
LayerCount: 2
Fore
SplineSet
180 0 m 1,0,-1
 425 1063 l 1,1,2
 493 1204 493 1204 616 1321 c 0,3,4
 693 1394 693 1394 797 1444 c 0,5,6
 936 1511 936 1511 1029 1511 c 0,7,8
 1250 1511 1250 1511 1359 1367 c 0,9,10
 1436 1265 1436 1265 1436 1135 c 0,11,12
 1436 1081 1436 1081 1422 1018 c 0,13,14
 1364 772 1364 772 1203 663 c 0,15,16
 1035 549 1035 549 828 525 c 1,17,-1
 1168 92 l 1,18,-1
 969 0 l 1,19,-1
 566 524 l 1,20,-1
 714 710 l 1,21,-1
 851 710 l 2,22,23
 972 710 972 710 1102 815 c 0,24,25
 1201 895 1201 895 1226 1006 c 1,26,27
 1227 1016 1227 1016 1229 1024 c 0,28,29
 1238 1057 1238 1057 1238 1089 c 0,30,31
 1238 1165 1238 1165 1184 1229 c 0,32,33
 1118 1307 1118 1307 991 1307 c 0,34,35
 902 1307 902 1307 782 1224 c 1,36,-1
 767 1212 l 1,37,38
 687 1144 687 1144 618 1048 c 1,39,-1
 397 90 l 1,40,-1
 180 0 l 1,0,-1
EndSplineSet
Validated: 1
EndChar

StartChar: S
Encoding: 83 83 54
Width: 1241
GlyphClass: 2
Flags: W
HStem: -6 196<514.897 830.041> 1330 182<747.589 1019.2>
VStem: 213 215<271.154 358> 421 199<999.358 1202.96>
DStem2: 675 992 530 830 0.936783 -0.34991<-74.4744 461.237> 912.873 -6 1109.49 -6 0.224951 0.97437<329.623 630.286>
LayerCount: 2
Fore
SplineSet
213 358 m 1,0,-1
 434 452 l 1,1,2
 428 426 428 426 428 398 c 0,3,4
 428 318 428 318 475 268 c 0,5,6
 548 190 548 190 666 190 c 0,7,8
 680 190 680 190 695 190 c 0,9,10
 798 190 798 190 903 280 c 1,11,12
 1000 372 1000 372 1029 497 c 1,13,-1
 1034 525 l 1,14,15
 1032 634 1032 634 953 672 c 1,16,-1
 530 830 l 1,17,18
 421 885 421 885 421 1030 c 0,19,20
 421 1054 421 1054 424 1081 c 2,21,-1
 426 1098 l 1,22,23
 465 1265 465 1265 615 1389 c 0,24,25
 764 1512 764 1512 934 1512 c 0,26,27
 1085 1512 1085 1512 1184 1410 c 0,28,29
 1248 1344 1248 1344 1260 1258 c 1,30,-1
 1062 1206 l 1,31,32
 1041 1281 1041 1281 988 1308 c 0,33,34
 945 1330 945 1330 892 1330 c 0,35,36
 797 1330 797 1330 731 1274 c 0,37,38
 640 1197 640 1197 626 1128 c 0,39,40
 620 1098 620 1098 620 1072 c 0,41,42
 620 1012 620 1012 675 992 c 0,43,44
 1135 825 1135 825 1155 810 c 0,45,46
 1239 746 1239 746 1239 610 c 0,47,48
 1239 574 1239 574 1233 531 c 1,49,-1
 1224 490 l 1,50,51
 1177 286 1177 286 999 142 c 1,52,53
 818 -6 818 -6 613 -6 c 0,54,55
 609 -6 609 -6 605 -6 c 0,56,57
 402 -6 402 -6 291 136 c 1,58,59
 227 229 227 229 213 337 c 1,60,-1
 213 358 l 1,0,-1
EndSplineSet
Validated: 1
EndChar

StartChar: T
Encoding: 84 84 55
Width: 1122
GlyphClass: 2
Flags: W
HStem: 0 21G<486.654 529.609> 1302 190<509.727 785 983 1369>
DStem2: 482 0 679.76 0 0.224951 0.97437<138.906 1336.79>
LayerCount: 2
Fore
SplineSet
638 1302 m 1,0,1
 592 1297 592 1297 551 1281 c 1,2,3
 472 1248 472 1248 433 1154 c 1,4,-1
 290 1238 l 1,5,6
 436 1492 436 1492 694 1492 c 2,7,-1
 696 1492 l 1,8,-1
 1458 1492 l 1,9,-1
 1369 1302 l 1,10,-1
 983 1302 l 1,11,-1
 701 92 l 1,12,-1
 482 0 l 1,13,-1
 785 1302 l 1,14,-1
 638 1302 l 1,0,1
EndSplineSet
Validated: 1
EndChar

StartChar: U
Encoding: 85 85 56
Width: 1424
GlyphClass: 2
Flags: W
HStem: 0 211<635.282 899.937> 1314 182<567 675 955 1013> 1494 20G<1524.89 1569.38>
VStem: 301 210<360.163 832.582>
DStem2: 1024.88 0 1224.34 0 0.224951 0.97437<385.252 1461.31>
LayerCount: 2
Fore
SplineSet
567 1496 m 1,0,-1
 1097 1496 l 1,1,-1
 1013 1314 l 1,2,-1
 955 1300 l 1,3,4
 906 1280 906 1280 817 1216 c 0,5,6
 714 1141 714 1141 640 1021 c 0,7,8
 563 896 563 896 526 736 c 0,9,10
 511 671 511 671 511 595 c 0,11,12
 511 539 511 539 519 476 c 0,13,14
 532 374 532 374 603 287 c 0,15,16
 665 211 665 211 767 211 c 0,17,18
 865 211 865 211 966 287 c 1,19,-1
 981 299 l 1,20,21
 1063 368 1063 368 1132 464 c 1,22,-1
 1353 1424 l 1,23,-1
 1574 1514 l 1,24,-1
 1328 449 l 1,25,26
 1266 318 1266 318 1131 190 c 0,27,28
 1055 118 1055 118 950 67 c 0,29,30
 812 0 812 0 719 0 c 0,31,32
 611 0 611 0 514 67 c 0,33,34
 420 132 420 132 368 232 c 0,35,36
 315 334 315 334 304 475 c 0,37,38
 301 514 301 514 301 552 c 0,39,40
 301 655 301 655 323 750 c 0,41,42
 357 899 357 899 435 1044 c 0,43,44
 478 1124 478 1124 574 1222 c 0,45,46
 632 1281 632 1281 675 1314 c 1,47,-1
 481 1314 l 1,48,-1
 567 1496 l 1,0,-1
EndSplineSet
Validated: 1
EndChar

StartChar: V
Encoding: 86 86 57
Width: 1425
GlyphClass: 2
Flags: W
HStem: 0 212<623.695 893.746> 1492 20G<699.562 744.382 1190.6 1232.5>
VStem: 1263 212<686.986 1157.27>
DStem2: 200.34 0 399.877 0 0.224951 0.97437<448.563 1460.46>
LayerCount: 2
Fore
SplineSet
749 1512 m 1,0,-1
 507 464 l 1,1,2
 531 368 531 368 582 299 c 2,3,-1
 591 287 l 1,4,5
 657 212 657 212 755 212 c 0,6,7
 859 212 859 212 954 287 c 0,8,9
 1069 378 1069 378 1125 476 c 0,10,11
 1212 629 1212 629 1238 736 c 0,12,13
 1263 840 1263 840 1263 930 c 0,14,15
 1263 978 1263 978 1256 1021 c 0,16,17
 1235 1153 1235 1153 1177 1228 c 0,18,19
 1080 1355 1080 1355 981 1355 c 0,20,21
 971 1355 971 1355 946 1343 c 1,22,-1
 1223 1514 l 1,23,24
 1242 1502 1242 1502 1304 1440 c 0,25,26
 1362 1382 1362 1382 1408 1287 c 0,27,28
 1461 1179 1461 1179 1472 1045 c 0,29,30
 1475 1010 1475 1010 1475 975 c 0,31,32
 1475 868 1475 868 1448 750 c 0,33,34
 1417 616 1417 616 1340 475 c 0,35,36
 1261 330 1261 330 1164 232 c 0,37,38
 1064 131 1064 131 941 67 c 0,39,40
 813 0 813 0 709 0 c 0,41,42
 708 0 708 0 706 0 c 0,43,44
 604 0 604 0 505 67 c 0,45,46
 415 128 415 128 377 192 c 0,47,48
 305 314 305 314 304 449 c 1,49,-1
 529 1423 l 1,50,-1
 749 1512 l 1,0,-1
EndSplineSet
Validated: 1
EndChar

StartChar: W
Encoding: 87 87 58
Width: 2245
GlyphClass: 2
Flags: W
HStem: 0 200<641.483 909.036 1452 1720.77> 1308 182<566 674 954 1012> 1490 20G<1522.89 1567.41 2002.6 2042>
VStem: 299 210<353.711 823.168> 2080 214<682.043 1152.14>
DStem2: 1025.49 0 1224.73 0 0.224951 0.97437<434.11 1456.83>
LayerCount: 2
Fore
SplineSet
566 1490 m 1,0,-1
 1096 1490 l 1,1,-1
 1012 1308 l 1,2,-1
 954 1294 l 1,3,4
 905 1274 905 1274 816 1210 c 0,5,6
 713 1135 713 1135 639 1015 c 0,7,8
 564 893 564 893 525 730 c 0,9,10
 509 663 509 663 509 596 c 0,11,12
 509 592 509 592 509 588 c 0,13,14
 509 536 509 536 518 470 c 0,15,16
 533 360 533 360 602 281 c 0,17,18
 673 200 673 200 769 200 c 0,19,20
 857 200 857 200 965 281 c 1,21,-1
 980 293 l 1,22,23
 1071 360 1071 360 1128 444 c 1,24,-1
 1351 1420 l 1,25,-1
 1572 1510 l 1,26,-1
 1327 443 l 1,27,28
 1350 359 1350 359 1406 288 c 1,29,-1
 1412 281 l 1,30,31
 1479 205 1479 205 1575 205 c 0,32,33
 1680 205 1680 205 1775 281 c 0,34,35
 1886 370 1886 370 1945 470 c 0,36,37
 2030 615 2030 615 2056 730 c 0,38,39
 2080 836 2080 836 2080 927 c 0,40,41
 2080 933 2080 933 2080 938 c 0,42,43
 2080 977 2080 977 2074 1015 c 0,44,45
 2053 1148 2053 1148 1995 1222 c 0,46,47
 1894 1351 1894 1351 1793 1351 c 0,48,49
 1783 1351 1783 1351 1758 1339 c 1,50,-1
 2035 1510 l 1,51,52
 2049 1503 2049 1503 2125 1429 c 0,53,54
 2186 1370 2186 1370 2227 1281 c 0,55,56
 2279 1169 2279 1169 2291 1038 c 0,57,58
 2294 1006 2294 1006 2294 973 c 0,59,60
 2292 858 2292 858 2266 743 c 0,61,62
 2235 608 2235 608 2160 468 c 0,63,64
 2082 324 2082 324 1984 226 c 0,65,66
 1880 122 1880 122 1762 61 c 0,67,68
 1646 1 1646 1 1530 0 c 1,69,-1
 1526 0 l 2,70,71
 1407 0 1407 0 1326 61 c 128,-1,72
 1245 122 1245 122 1209 189 c 1,73,-1
 1183 264 l 1,74,75
 1175 251 1175 251 1118 185 c 0,76,77
 1057 114 1057 114 949 61 c 0,78,79
 825 0 825 0 696 0 c 2,80,-1
 692 0 l 2,81,82
 602 0 602 0 513 61 c 0,83,84
 421 123 421 123 367 226 c 0,85,86
 317 322 317 322 303 468 c 0,87,88
 299 511 299 511 299 553 c 0,89,90
 300 654 300 654 321 743 c 0,91,92
 358 901 358 901 434 1038 c 0,93,94
 479 1119 479 1119 573 1216 c 0,95,96
 628 1273 628 1273 674 1308 c 1,97,-1
 480 1308 l 1,98,-1
 566 1490 l 1,0,-1
EndSplineSet
Validated: 1
EndChar

StartChar: X
Encoding: 88 88 59
Width: 1214
GlyphClass: 2
Flags: W
HStem: 0 21G<231.568 290.367 837.5 894> 1491 20G<678.947 730 1272.99 1331.43>
VStem: 441 213<1040.71 1415.83> 918 213<91.2185 469.925>
DStem2: 117 74 274 0 0.631769 0.775157<41.8261 831.331 1066.15 1855.11>
LayerCount: 2
Fore
SplineSet
117 74 m 1,0,-1
 650 718 l 1,1,2
 585 780 585 780 536 860 c 0,3,4
 469 969 469 969 451 1093 c 0,5,6
 441 1162 441 1162 441 1220 c 0,7,8
 441 1226 441 1226 441 1232 c 0,9,10
 441 1263 441 1263 445 1293 c 0,11,12
 456 1374 456 1374 462 1405 c 1,13,-1
 465 1416 l 1,14,-1
 736 1511 l 1,15,-1
 730 1502 l 1,16,17
 683 1437 683 1437 667 1361 c 0,18,19
 654 1300 654 1300 654 1236 c 0,20,21
 654 1137 654 1137 704 1027 c 0,22,23
 735 959 735 959 796 896 c 1,24,-1
 1289 1512 l 1,25,-1
 1446 1438 l 1,26,-1
 922 792 l 1,27,-1
 919 789 l 1,28,29
 985 727 985 727 1036 647 c 0,30,31
 1101 545 1101 545 1121 414 c 0,32,33
 1131 349 1131 349 1131 289 c 0,34,35
 1131 283 1131 283 1131 277 c 0,36,37
 1131 246 1131 246 1127 214 c 0,38,39
 1122 175 1122 175 1110 104 c 0,40,41
 1109 98 1109 98 1107 91 c 1,42,-1
 834 0 l 1,43,44
 841 6 841 6 847 11 c 0,45,46
 886 46 886 46 904 126 c 0,47,48
 918 191 918 191 918 271 c 0,49,50
 918 376 918 376 870 478 c 0,51,52
 837 548 837 548 774 611 c 1,53,-1
 274 0 l 1,54,-1
 117 74 l 1,0,-1
EndSplineSet
Validated: 1
EndChar

StartChar: Y
Encoding: 89 89 60
Width: 1375
GlyphClass: 2
Flags: W
HStem: 1 21G<978.651 1037.53> 331 196<620.009 951.705> 1314 182<518 626 906 964> 1492 20G<1462.29 1519.37>
VStem: 297 202<660.521 1002.41>
DStem2: 974 1 1174.3 1 0.224951 0.97437<114.847 441.474 644.284 1479.2>
LayerCount: 2
Fore
SplineSet
518 1496 m 1,0,-1
 1048 1496 l 1,1,-1
 964 1314 l 1,2,-1
 906 1300 l 1,3,4
 749 1256 749 1256 639 1149 c 0,5,6
 545 1058 545 1058 511 914 c 0,7,8
 499 863 499 863 499 818 c 0,9,10
 500 754 500 754 522 703 c 0,11,12
 562 610 562 610 619 570 c 0,13,14
 680 527 680 527 798 527 c 0,15,16
 856 527 856 527 968 572 c 1,17,-1
 988 582 l 1,18,19
 1081 633 1081 633 1135 693 c 1,20,-1
 1308 1442 l 1,21,-1
 1524 1512 l 1,22,-1
 1190 69 l 1,23,-1
 974 1 l 1,24,-1
 1074 431 l 1,25,26
 1025 403 1025 403 974 384 c 0,27,28
 835 331 835 331 745 331 c 0,29,30
 642 331 642 331 538 384 c 0,31,32
 440 434 440 434 383 513 c 0,33,34
 327 590 327 590 307 702 c 0,35,36
 297 758 297 758 297 808 c 0,37,38
 297 866 297 866 311 916 c 0,39,40
 346 1040 346 1040 420 1140 c 0,41,42
 511 1263 511 1263 626 1314 c 1,43,-1
 432 1314 l 1,44,-1
 518 1496 l 1,0,-1
EndSplineSet
Validated: 1
EndChar

StartChar: Z
Encoding: 90 90 61
Width: 1221
GlyphClass: 2
Flags: W
HStem: 20 188<404 979.931> 1308 184<588 987.619>
VStem: 1074 200<998.109 1218.35>
DStem2: 183 236 404 208 0.74929 0.662242<147.05 1171.78>
LayerCount: 2
Fore
SplineSet
438 1308 m 1,0,-1
 588 1492 l 1,1,-1
 877 1491 l 2,2,3
 1088 1491 1088 1491 1197 1346 c 0,4,5
 1274 1244 1274 1244 1274 1114 c 0,6,7
 1274 1059 1274 1059 1260 998 c 2,8,-1
 1250 957 l 1,9,-1
 404 208 l 1,10,-1
 886 210 l 2,11,12
 947 210 947 210 981 228 c 0,13,14
 1019 248 1019 248 1050 309 c 1,15,-1
 1193 225 l 1,16,17
 1094 34 1094 34 833 20 c 1,18,-1
 334 20 l 2,19,20
 132 20 132 20 132 123 c 0,21,22
 132 136 132 136 135 150 c 0,23,24
 145 196 145 196 183 236 c 1,25,26
 183 236 183 236 1061 1012 c 1,27,-1
 1068 1032 l 1,28,29
 1074 1056 1074 1056 1074 1080 c 0,30,31
 1072 1150 1072 1150 1030 1218 c 0,32,33
 974 1308 974 1308 816 1308 c 2,34,-1
 438 1308 l 1,0,-1
EndSplineSet
Validated: 1
EndChar

StartChar: bracketleft
Encoding: 91 91 62
Width: 763
GlyphClass: 2
Flags: W
HStem: -344 181<326.007 587> 1562 181<703.21 1025>
VStem: 117 209<-262.5 35.2812>
DStem2: 72.0559 -344 273.592 -344 0.224951 0.97437<268.869 2006.56>
LayerCount: 2
Fore
SplineSet
1155 1744 m 1,0,-1
 1025 1560 l 1,1,-1
 753 1562 l 1,2,3
 712 1558 712 1558 699 1503 c 2,4,-1
 329 -104 l 2,5,6
 326 -117 326 -117 326 -127 c 0,7,8
 326 -160 326 -160 355 -163 c 1,9,-1
 716 -160 l 1,10,-1
 587 -344 l 1,11,-1
 324 -344 l 2,12,13
 117 -344 117 -344 117 -181 c 0,14,15
 117 -158 117 -158 121 -132 c 1,16,-1
 503 1531 l 1,17,18
 569 1742 569 1742 804 1743 c 2,19,-1
 1155 1744 l 1,0,-1
EndSplineSet
Validated: 1
EndChar

StartChar: backslash
Encoding: 92 92 63
Width: 1065
GlyphClass: 2
Flags: W
VStem: 373 652
DStem2: 572 1654 373 1572 0.245596 -0.969372<30.6149 1842.55>
LayerCount: 2
Fore
SplineSet
1025 -132 m 1,0,-1
 826 -216 l 1,1,-1
 373 1572 l 1,2,-1
 572 1654 l 1,3,-1
 1025 -132 l 1,0,-1
EndSplineSet
Validated: 1
EndChar

StartChar: bracketright
Encoding: 93 93 64
Width: 763
GlyphClass: 2
Flags: W
HStem: -344 184<61 382.873> 1560 184<500 758.997>
VStem: 760 210<1378.45 1562.9>
LayerCount: 2
Fore
SplineSet
370 1560 m 1,0,-1
 500 1744 l 1,1,-1
 763 1744 l 2,2,3
 970 1744 970 1744 970 1581 c 0,4,5
 970 1558 970 1558 966 1532 c 1,6,-1
 583 -131 l 1,7,8
 517 -342 517 -342 282 -343 c 2,9,-1
 -68 -344 l 1,10,-1
 61 -160 l 1,11,-1
 334 -162 l 1,12,13
 387 -157 387 -157 387 -106 c 2,14,15
 387 -106 387 -106 387 -103 c 2,16,-1
 757 1504 l 2,17,18
 760 1518 760 1518 760 1528 c 0,19,20
 761 1560 761 1560 731 1563 c 1,21,-1
 370 1560 l 1,0,-1
EndSplineSet
Validated: 1
EndChar

StartChar: asciicircum
Encoding: 94 94 65
Width: 1180
GlyphClass: 2
Flags: W
HStem: 1062 456
DStem2: 350 1168 482 1062 0.865589 0.500754<61.1779 512.751>
LayerCount: 2
Fore
SplineSet
350 1168 m 1,0,-1
 955 1518 l 1,1,-1
 1370 1168 l 1,2,-1
 1171 1062 l 1,3,-1
 877 1281 l 1,4,-1
 482 1062 l 1,5,-1
 350 1168 l 1,0,-1
EndSplineSet
Validated: 1
EndChar

StartChar: underscore
Encoding: 95 95 66
Width: 1083
GlyphClass: 2
Flags: W
HStem: -410 198<121 816>
LayerCount: 2
Fore
SplineSet
121 -212 m 1,0,-1
 954 -212 l 1,1,-1
 816 -410 l 1,2,-1
 -15 -410 l 1,3,-1
 121 -212 l 1,0,-1
EndSplineSet
Validated: 1
EndChar

StartChar: grave
Encoding: 96 96 67
Width: 751
GlyphClass: 2
Flags: W
HStem: 990 522
VStem: 453 423
DStem2: 591 1512 453 1314 0.661775 -0.749703<57.1162 431.509>
LayerCount: 2
Fore
SplineSet
591 1512 m 1,0,-1
 876 1188 l 1,1,-1
 739 990 l 1,2,-1
 453 1314 l 1,3,-1
 591 1512 l 1,0,-1
EndSplineSet
Validated: 1
EndChar

StartChar: a
Encoding: 97 97 68
Width: 1112
GlyphClass: 2
Flags: W
HStem: -1 208<465.124 574.192> 20 182<918 1026> 933 194<631.416 868.024>
VStem: 210 202<263.555 645.529> 935 203<460.981 859.645>
LayerCount: 2
Fore
SplineSet
586 0 m 1,0,1
 573 -1 573 -1 561 -1 c 0,2,3
 426 2 426 2 338 75 c 0,4,5
 261 139 261 139 225 281 c 0,6,7
 210 340 210 340 210 406 c 0,8,9
 210 482 210 482 230 564 c 0,10,11
 281 772 281 772 382 908 c 0,12,13
 443 989 443 989 562 1062 c 0,14,15
 669 1127 669 1127 808 1127 c 0,16,17
 930 1127 930 1127 1014 1052 c 0,18,19
 1097 978 1097 978 1127 846 c 0,20,21
 1138 797 1138 797 1138 713 c 0,22,23
 1138 657 1138 657 1122 564 c 0,24,25
 1091 387 1091 387 997 281 c 0,26,27
 931 207 931 207 918 202 c 1,28,-1
 1112 202 l 1,29,-1
 1026 20 l 1,30,-1
 639 20 l 1,31,-1
 723 206 l 1,32,-1
 727 216 l 1,33,34
 753 265 753 265 789 302 c 0,35,36
 888 402 888 402 919 558 c 2,37,-1
 920 563 l 2,38,39
 935 638 935 638 935 685 c 0,40,41
 935 761 935 761 909 824 c 0,42,43
 864 933 864 933 763 933 c 0,44,45
 656 933 656 933 561 824 c 0,46,47
 471 721 471 721 430 564 c 0,48,49
 412 495 412 495 412 438 c 0,50,51
 412 435 412 435 412 432 c 0,52,53
 412 358 412 358 440 292 c 0,54,55
 476 207 476 207 558 207 c 0,56,57
 566 207 566 207 573 208 c 1,58,-1
 586 0 l 1,0,1
EndSplineSet
Validated: 1
EndChar

StartChar: b
Encoding: 98 98 69
Width: 1138
GlyphClass: 2
Flags: W
HStem: 0 194<538.044 764.387> 934 193<726.13 910.564> 1489 20G<644.81 691.534>
VStem: 261 208<270.718 670.805> 991 196<474.03 844.093>
DStem2: 150.021 0 354.79 0 0.224951 0.97437<501.272 1462.93>
LayerCount: 2
Fore
SplineSet
696 1509 m 1,0,-1
 485 564 l 1,1,2
 469 497 469 497 469 439 c 0,3,4
 469 364 469 364 496 303 c 0,5,6
 544 194 544 194 641 194 c 0,7,8
 736 194 736 194 836 302 c 0,9,10
 925 398 925 398 966 513 c 0,11,12
 991 583 991 583 991 660 c 0,13,14
 991 668 991 668 991 677 c 0,15,16
 991 760 991 760 957 825 c 0,17,18
 900 934 900 934 812 934 c 0,19,20
 771 934 771 934 732 919 c 1,21,-1
 690 1091 l 1,22,23
 775 1127 775 1127 854 1127 c 0,24,25
 976 1127 976 1127 1060 1052 c 0,26,27
 1143 978 1143 978 1173 846 c 0,28,29
 1187 785 1187 785 1187 720 c 0,30,31
 1187 644 1187 644 1168 563 c 0,32,33
 1132 409 1132 409 1043 281 c 0,34,35
 953 151 953 151 834 75 c 0,36,37
 717 0 717 0 594 0 c 0,38,39
 473 0 473 0 388 75 c 0,40,41
 306 147 306 147 275 281 c 0,42,43
 261 341 261 341 261 406 c 0,44,45
 261 487 261 487 280 563 c 2,46,-1
 281 567 l 1,47,-1
 481 1425 l 1,48,-1
 696 1509 l 1,0,-1
EndSplineSet
Validated: 1
EndChar

StartChar: c
Encoding: 99 99 70
Width: 1068
GlyphClass: 2
Flags: W
HStem: -1 193<481.869 706.896> 933 193<636.852 873.079>
VStem: 211 207<263.609 648.732>
LayerCount: 2
Fore
SplineSet
1067 429 m 1,0,1
 1027 332 1027 332 993 280 c 0,2,3
 911 156 911 156 784 74 c 0,4,5
 667 -1 667 -1 547 -1 c 0,6,7
 546 -1 546 -1 544 -1 c 0,8,9
 422 -1 422 -1 338 74 c 0,10,11
 256 147 256 147 225 280 c 0,12,13
 211 340 211 340 211 405 c 0,14,15
 211 481 211 481 230 563 c 0,16,17
 265 715 265 715 355 846 c 0,18,19
 444 976 444 976 564 1052 c 0,20,21
 679 1125 679 1125 804 1126 c 1,22,-1
 807 1126 l 2,23,24
 925 1126 925 1126 1010 1052 c 0,25,26
 1091 982 1091 982 1118 872 c 0,27,28
 1122 856 1122 856 1125 840 c 1,29,-1
 921 758 l 1,30,31
 917 814 917 814 900 850 c 0,32,33
 861 932 861 932 759 933 c 1,34,35
 759 933 759 933 757 933 c 0,36,37
 662 933 662 933 563 824 c 0,38,39
 474 726 474 726 438 585 c 2,40,41
 438 585 438 585 432 562 c 1,42,43
 418 484 418 484 418 436 c 0,44,45
 418 431 418 431 419 405 c 0,46,47
 422 349 422 349 442 301 c 0,48,49
 487 192 487 192 586 192 c 0,50,51
 587 192 587 192 588 192 c 0,52,53
 675 192 675 192 784 301 c 0,54,55
 792 309 792 309 800 320 c 1,56,-1
 1067 429 l 1,0,1
EndSplineSet
Validated: 1
EndChar

StartChar: d
Encoding: 100 100 71
Width: 1137
GlyphClass: 2
Flags: W
HStem: 0 194<481.843 724.291> 926 182<429 537 754.617 875> 1489 20G<1289.68 1330.34>
VStem: 206 207<272.746 615.953>
DStem2: 795.559 0 984.562 0 0.224951 0.97437<340.052 1452.17>
LayerCount: 2
Fore
SplineSet
429 1108 m 1,0,-1
 959 1108 l 1,1,-1
 875 926 l 1,2,-1
 863 926 l 1,3,4
 789 912 789 912 666 826 c 0,5,6
 545 741 545 741 475 644 c 0,7,8
 413 558 413 558 413 424 c 0,9,10
 413 374 413 374 442 303 c 0,11,12
 487 194 487 194 588 194 c 128,-1,13
 689 194 689 194 781 285 c 0,14,15
 885 388 885 388 926 565 c 2,16,-1
 1122 1415 l 1,17,-1
 1335 1509 l 1,18,-1
 1109 539 l 2,19,20
 1068 363 1068 363 969 219 c 0,21,22
 901 120 901 120 779 57 c 0,23,24
 669 0 669 0 543 0 c 0,25,26
 424 0 424 0 338 75 c 0,27,28
 254 148 254 148 224 281 c 0,29,30
 206 361 206 361 206 427 c 0,31,-1
 206 433 l 0,32,33
 206 510 206 510 236 589 c 0,34,35
 292 736 292 736 434 849 c 0,36,37
 512 911 512 911 537 926 c 1,38,-1
 343 926 l 1,39,-1
 429 1108 l 1,0,-1
EndSplineSet
Validated: 1
EndChar

StartChar: e
Encoding: 101 101 72
Width: 1073
GlyphClass: 2
Flags: W
HStem: 3 193<483.733 715.264> 466 192<658 884.192> 936 194<632.845 887.527>
VStem: 210 207<270.963 648.647> 930 196<703.678 893.483>
LayerCount: 2
Fore
SplineSet
1069 417 m 1,0,1
 1037 346 1037 346 994 284 c 0,2,3
 903 153 903 153 785 78 c 128,-1,4
 667 3 667 3 545 3 c 0,5,6
 427 3 427 3 339 78 c 128,-1,7
 251 153 251 153 223 279 c 0,8,9
 210 337 210 337 210 413 c 0,10,11
 210 475 210 475 228 554 c 0,12,13
 265 718 265 718 356 849 c 128,-1,14
 447 980 447 980 565 1055 c 0,15,16
 684 1130 684 1130 805 1130 c 0,17,18
 918 1130 918 1130 1011 1055 c 0,19,20
 1111 974 1111 974 1124 849 c 0,21,22
 1126 829 1126 829 1126 801 c 0,23,24
 1126 708 1126 708 1072 628 c 0,25,26
 1005 528 1005 528 812 484 c 0,27,28
 751 470 751 470 584 466 c 1,29,-1
 658 660 l 1,30,31
 687 658 687 658 725 658 c 0,32,33
 752 658 752 658 784 664 c 0,34,35
 909 687 909 687 926 764 c 0,36,37
 930 782 930 782 930 798 c 0,38,39
 931 824 931 824 918 850 c 0,40,41
 875 936 875 936 760 936 c 0,42,43
 657 936 657 936 560 826 c 1,44,45
 470 720 470 720 433 566 c 0,46,47
 417 499 417 499 417 441 c 0,48,49
 417 366 417 366 443 305 c 0,50,51
 489 196 489 196 589 196 c 0,52,53
 690 196 690 196 785 305 c 2,54,-1
 799 321 l 1,55,-1
 1069 417 l 1,0,1
EndSplineSet
Validated: 1
EndChar

StartChar: f
Encoding: 102 102 73
Width: 774
GlyphClass: 2
Flags: W
HStem: 0 21G<154.62 195.532> 926 182<622 846> 1318 194<770.153 951.287>
DStem2: 150 0 342.298 0 0.224951 0.97437<139.73 993.597>
LayerCount: 2
Fore
SplineSet
150 0 m 1,0,-1
 369 948 l 2,1,2
 405 1102 405 1102 494 1231 c 0,3,4
 586 1364 586 1364 703 1437 c 0,5,6
 823 1512 823 1512 943 1512 c 0,7,8
 1034 1512 1034 1512 1108 1467 c 1,9,-1
 942 1312 l 1,10,11
 922 1318 922 1318 898 1318 c 0,12,13
 800 1318 800 1318 703 1217 c 0,14,15
 655 1167 655 1167 622 1108 c 1,16,-1
 930 1108 l 1,17,-1
 846 926 l 1,18,-1
 556 926 l 1,19,-1
 364 94 l 1,20,-1
 150 0 l 1,0,-1
EndSplineSet
Validated: 1
EndChar

StartChar: g
Encoding: 103 103 74
Width: 1138
GlyphClass: 2
Flags: W
HStem: -382 21G<706.466 753.19> 0 193<484.544 671.87> 933 194<636.646 859.777>
VStem: 211 201<273.123 650.878> 929 208<456.195 856.342>
DStem2: 702 -382 897.607 -382 0.224951 0.97437<130.212 1090.9>
LayerCount: 2
Fore
SplineSet
702 -382 m 1,0,-1
 913 563 l 1,1,2
 929 629 929 629 929 687 c 0,3,4
 929 763 929 763 902 824 c 0,5,6
 854 933 854 933 757 933 c 0,7,8
 668 933 668 933 561 824 c 0,9,10
 503 765 503 765 465 677 c 0,11,12
 443 626 443 626 428 562 c 0,13,14
 412 494 412 494 412 429 c 128,-1,15
 412 364 412 364 441 302 c 0,16,17
 492 193 492 193 587 193 c 0,18,19
 627 193 627 193 666 208 c 1,20,-1
 708 36 l 1,21,22
 623 0 623 0 544 0 c 0,23,24
 423 0 423 0 338 75 c 0,25,26
 254 148 254 148 225 281 c 0,27,28
 211 344 211 344 211 409 c 0,29,30
 211 485 211 485 230 564 c 0,31,32
 267 720 267 720 355 846 c 0,33,34
 445 975 445 975 564 1052 c 0,35,36
 681 1127 681 1127 804 1127 c 0,37,38
 924 1127 924 1127 1010 1052 c 0,39,40
 1091 982 1091 982 1123 846 c 0,41,42
 1137 786 1137 786 1137 721 c 0,43,44
 1137 640 1137 640 1118 564 c 2,45,-1
 1117 560 l 1,46,-1
 917 -298 l 1,47,-1
 702 -382 l 1,0,-1
EndSplineSet
Validated: 1
EndChar

StartChar: h
Encoding: 104 104 75
Width: 1138
GlyphClass: 2
Flags: W
HStem: 0 21G<154.631 195.532> 20 182<627 685 931 1073> 933 194<682.638 912.959> 1489 20G<642.818 686.407>
VStem: 980 205<465.25 858.426>
DStem2: 150 0 342.298 0 0.224951 0.97437<139.73 848.766 1100.56 1458.59>
LayerCount: 2
Fore
SplineSet
150 0 m 1,0,-1
 479 1421 l 1,1,-1
 691 1509 l 1,2,-1
 581 1030 l 1,3,4
 593 1040 593 1040 614 1052 c 0,5,6
 738 1127 738 1127 854 1127 c 0,7,8
 974 1127 974 1127 1060 1052 c 0,9,10
 1143 980 1143 980 1173 846 c 0,11,12
 1185 792 1185 792 1185 728 c 0,13,14
 1185 652 1185 652 1168 564 c 0,15,16
 1141 422 1141 422 1048 300 c 0,17,18
 1009 249 1009 249 931 202 c 1,19,-1
 1159 202 l 1,20,-1
 1073 20 l 1,21,-1
 543 20 l 1,22,-1
 627 202 l 1,23,-1
 685 216 l 1,24,25
 765 246 765 246 836 322 c 0,26,27
 936 429 936 429 967 551 c 0,28,29
 980 602 980 602 980 677 c 1,30,31
 981 689 981 689 980 706 c 0,32,33
 976 775 976 775 955 824 c 0,34,35
 907 933 907 933 809 933 c 0,36,37
 714 933 714 933 614 832 c 1,38,39
 516 731 516 731 477 583 c 1,40,-1
 364 94 l 1,41,-1
 150 0 l 1,0,-1
EndSplineSet
Validated: 1
EndChar

StartChar: i
Encoding: 105 105 76
Width: 496
GlyphClass: 2
Flags: W
HStem: 0 195<320 477.004> 1112 20G<557.681 598.455> 1247 264<489.008 643.842>
VStem: 433 267<1302.49 1455.44> 522 13<240.422 266.595>
DStem2: 150.362 0 344.9 0 0.224951 0.97437<254.904 1065.3>
LayerCount: 2
Fore
SplineSet
436 1379 m 1,0,1
 450 1435 450 1435 496 1473 c 128,-1,2
 542 1511 542 1511 597 1511 c 128,-1,3
 652 1511 652 1511 680 1473 c 0,4,5
 700 1446 700 1446 700 1412 c 0,6,7
 700 1395 700 1395 696 1379 c 0,8,9
 682 1323 682 1323 637 1285 c 128,-1,10
 592 1247 592 1247 536 1247 c 0,11,12
 482 1247 482 1247 453 1285 c 1,13,14
 433 1313 433 1313 433 1340 c 0,15,16
 433 1358 433 1358 436 1379 c 1,0,1
475 21 m 1,17,18
 426 0 426 0 375 0 c 0,19,20
 265 0 265 0 225 76 c 0,21,22
 199 125 199 125 199 178 c 0,23,24
 199 182 199 182 199 186 c 0,25,26
 199 211 199 211 203 228 c 2,27,-1
 390 1038 l 1,28,-1
 603 1132 l 1,29,-1
 398 230 l 1,30,31
 404 195 404 195 448 195 c 0,32,33
 483 195 483 195 522 245 c 0,34,35
 529 254 529 254 535 267 c 1,36,-1
 475 21 l 1,17,18
EndSplineSet
Validated: 1
EndChar

StartChar: j
Encoding: 106 106 77
Width: 496
GlyphClass: 2
Flags: W
HStem: 1112 20G<557.681 598.452> 1247 264<489.008 643.842>
VStem: 10 2<-85 -73.4053> 433 267<1302.49 1455.44>
DStem2: 60.0534 -393 255.677 -393 0.224951 0.97437<218.928 1468.55>
LayerCount: 2
Fore
SplineSet
436 1379 m 1,0,1
 450 1435 450 1435 496 1473 c 128,-1,2
 542 1511 542 1511 597 1511 c 128,-1,3
 652 1511 652 1511 680 1473 c 0,4,5
 700 1446 700 1446 700 1412 c 0,6,7
 700 1395 700 1395 696 1379 c 0,8,9
 682 1323 682 1323 637 1285 c 128,-1,10
 592 1247 592 1247 536 1247 c 0,11,12
 482 1247 482 1247 453 1285 c 1,13,14
 433 1313 433 1313 433 1340 c 0,15,16
 433 1358 433 1358 436 1379 c 1,0,1
-47 -302 m 1,17,18
 10 -59 l 1,19,20
 9 -74 9 -74 12 -85 c 0,21,22
 23 -130 23 -130 54 -160 c 0,23,24
 93 -197 93 -197 115 -155 c 1,25,-1
 390 1038 l 1,26,-1
 603 1132 l 1,27,-1
 291 -240 l 2,28,29
 288 -254 288 -254 276 -280 c 0,30,31
 252 -330 252 -330 202 -366 c 0,32,33
 165 -393 165 -393 122 -393 c 0,34,35
 78 -393 78 -393 36 -370 c 0,36,37
 -12 -344 -12 -344 -47 -302 c 1,17,18
EndSplineSet
Validated: 1
EndChar

StartChar: k
Encoding: 107 107 78
Width: 1138
GlyphClass: 2
Flags: W
HStem: 0 21G<154.612 195.532> 20 182<667 725 1005 1094> 1102 20G<1080.07 1118.47> 1492 20G<651.766 694.425>
VStem: 936 200<314.283 543.99>
DStem2: 150 0 342.298 0 0.224951 0.97437<139.73 582.628 776.084 1455.22> 516 712 873 751 0.822542 0.568705<315.827 694.031>
LayerCount: 2
Fore
SplineSet
150 0 m 1,0,-1
 477 1418 l 1,1,-1
 699 1512 l 1,2,-1
 516 712 l 1,3,-1
 1109 1122 l 1,4,-1
 1180 972 l 1,5,-1
 873 751 l 1,6,7
 927 741 927 741 976 713 c 0,8,9
 1071 658 1071 658 1110 572 c 0,10,11
 1136 515 1136 515 1136 455 c 0,12,13
 1136 418 1136 418 1126 381 c 0,14,15
 1098 278 1098 278 1005 202 c 1,16,-1
 1180 202 l 1,17,-1
 1094 20 l 1,18,-1
 583 20 l 1,19,-1
 667 202 l 1,20,-1
 725 216 l 1,21,22
 898 271 898 271 928 380 c 0,23,24
 936 409 936 409 936 435 c 0,25,26
 936 496 936 496 892 544 c 0,27,28
 840 601 840 601 734 601 c 0,29,30
 732 601 732 601 731 601 c 0,31,32
 631 601 631 601 550 549 c 0,33,34
 455 488 455 488 430 380 c 2,35,-1
 364 94 l 1,36,-1
 150 0 l 1,0,-1
EndSplineSet
Validated: 1
EndChar

StartChar: l
Encoding: 108 108 79
Width: 499
GlyphClass: 2
Flags: W
HStem: 0 195<321.5 480.703> 1491 20G<649.333 693.363>
VStem: 522 13<238.945 266.595>
DStem2: 150.362 0 347.9 0 0.224951 0.97437<255.306 1458.51>
LayerCount: 2
Fore
SplineSet
479 23 m 1,0,1
 428 0 428 0 375 0 c 0,2,3
 268 0 268 0 228 76 c 0,4,5
 199 131 199 131 199 186 c 0,6,7
 199 211 199 211 203 228 c 2,8,-1
 479 1421 l 1,9,-1
 698 1511 l 1,10,-1
 401 230 l 1,11,12
 407 195 407 195 448 195 c 0,13,14
 483 195 483 195 522 245 c 0,15,16
 529 254 529 254 535 267 c 1,17,-1
 479 23 l 1,0,1
EndSplineSet
Validated: 1
EndChar

StartChar: m
Encoding: 109 109 80
Width: 1784
GlyphClass: 2
Flags: W
HStem: 0 21G<423 465 800.61 841.532> 20 182<1272 1330 1610 1718> 933 194<625.25 881.53 1327.63 1560.96>
VStem: 213 204<281.63 658.677> 1627 206<475.134 858.427>
DStem2: 796 0 988.298 0 0.224951 0.97437<139.73 713.579>
LayerCount: 2
Fore
SplineSet
446 0 m 1,0,1
 400 26 400 26 340 83 c 0,2,3
 256 162 256 162 227 289 c 0,4,5
 213 350 213 350 213 414 c 0,6,7
 213 491 213 491 232 572 c 0,8,9
 267 723 267 723 357 854 c 0,10,11
 446 984 446 984 566 1060 c 0,12,13
 684 1135 684 1135 806 1135 c 0,14,15
 927 1135 927 1135 1012 1060 c 0,16,17
 1073 1006 1073 1006 1106 918 c 1,18,19
 1176 999 1176 999 1260 1052 c 0,20,21
 1379 1127 1379 1127 1500 1127 c 0,22,23
 1619 1127 1619 1127 1706 1052 c 0,24,25
 1787 982 1787 982 1819 846 c 0,26,27
 1833 786 1833 786 1833 722 c 0,28,29
 1833 646 1833 646 1814 564 c 0,30,31
 1779 411 1779 411 1689 281 c 0,32,33
 1643 214 1643 214 1610 202 c 1,34,-1
 1804 202 l 1,35,-1
 1718 20 l 1,36,-1
 1188 20 l 1,37,-1
 1272 202 l 1,38,-1
 1330 216 l 2,39,40
 1419 238 1419 238 1481 302 c 0,41,42
 1580 403 1580 403 1611 558 c 2,43,-1
 1612 563 l 1,44,45
 1627 628 1627 628 1627 686 c 0,46,47
 1627 762 1627 762 1601 824 c 0,48,49
 1555 933 1555 933 1455 933 c 0,50,51
 1360 933 1360 933 1260 832 c 1,52,53
 1149 693 1149 693 1120 571 c 1,54,55
 1118 562 l 2,56,-1
 1010 94 l 1,57,-1
 796 0 l 1,58,-1
 926 564 l 1,59,60
 926 564 926 564 927 567 c 0,61,62
 938 617 938 617 945 680 c 0,63,64
 946 689 946 689 946 698 c 0,65,66
 942 791 942 791 910 850 c 0,67,68
 861 941 861 941 763 941 c 2,69,-1
 761 941 l 1,70,71
 659 940 659 940 565 832 c 0,72,73
 470 723 470 723 434 571 c 0,74,75
 417 499 417 499 417 440 c 0,76,77
 417 364 417 364 445 310 c 0,78,79
 490 224 490 224 543 196 c 1,80,-1
 601 170 l 1,81,82
 484 38 484 38 446 0 c 1,0,1
EndSplineSet
Validated: 1
EndChar

StartChar: n
Encoding: 110 110 81
Width: 1115
GlyphClass: 2
Flags: W
HStem: 0 21G<134.694 175.532> 20 182<606 664 944 1052> 933 194<662.221 894.997>
VStem: 961 203<460.987 859.869>
DStem2: 130 0 322.298 0 0.224951 0.97437<139.73 848.321>
LayerCount: 2
Fore
SplineSet
130 0 m 1,0,-1
 268 588 l 2,1,2
 309 762 309 762 408 908 c 0,3,4
 472 1002 472 1002 588 1062 c 0,5,6
 714 1127 714 1127 834 1127 c 0,7,8
 952 1127 952 1127 1040 1052 c 0,9,10
 1122 983 1122 983 1153 846 c 0,11,12
 1164 797 1164 797 1164 719 c 0,13,14
 1164 656 1164 656 1148 564 c 0,15,16
 1117 386 1117 386 1023 281 c 0,17,18
 957 207 957 207 944 202 c 1,19,-1
 1138 202 l 1,20,-1
 1052 20 l 1,21,-1
 522 20 l 1,22,-1
 606 202 l 1,23,-1
 664 216 l 2,24,25
 753 238 753 238 815 302 c 0,26,27
 914 403 914 403 945 558 c 2,28,-1
 946 563 l 2,29,30
 961 638 961 638 961 685 c 0,31,32
 961 761 961 761 935 824 c 0,33,34
 890 933 890 933 789 933 c 0,35,36
 694 933 694 933 594 832 c 0,37,38
 490 727 490 727 452 562 c 2,39,-1
 344 94 l 1,40,-1
 130 0 l 1,0,-1
EndSplineSet
Validated: 1
EndChar

StartChar: o
Encoding: 111 111 82
Width: 1088
GlyphClass: 2
Flags: W
HStem: 3 193<484.168 719.631> 936 194<632.643 868.619>
VStem: 208 210<270.929 641.221> 932 206<485.215 866.087>
LayerCount: 2
Fore
SplineSet
589 196 m 0,0,1
 700 196 700 196 785 305 c 0,2,3
 868 412 868 412 913 554 c 1,4,-1
 917 566 l 1,5,6
 932 622 932 622 932 679 c 0,7,8
 931 754 931 754 906 827 c 0,9,10
 869 936 869 936 760 936 c 0,11,12
 657 936 657 936 560 826 c 1,13,14
 467 716 467 716 433 566 c 0,15,16
 418 500 418 500 418 443 c 0,17,18
 418 367 418 367 444 305 c 0,19,20
 490 196 490 196 589 196 c 0,0,1
545 3 m 0,21,22
 427 3 427 3 339 78 c 0,23,24
 254 150 254 150 223 275 c 0,25,26
 208 335 208 335 208 395 c 0,27,28
 208 473 208 473 228 554 c 1,29,30
 266 720 266 720 356 849 c 0,31,32
 447 980 447 980 565 1055 c 128,-1,33
 683 1130 683 1130 805 1130 c 128,-1,34
 927 1130 927 1130 1011 1055 c 0,35,36
 1093 982 1093 982 1124 849 c 0,37,38
 1138 789 1138 789 1138 724 c 0,39,40
 1138 647 1138 647 1119 566 c 0,41,42
 1082 410 1082 410 994 284 c 0,43,44
 902 153 902 153 785 78 c 128,-1,45
 668 3 668 3 545 3 c 0,21,22
EndSplineSet
Validated: 1
EndChar

StartChar: p
Encoding: 112 112 83
Width: 1138
GlyphClass: 2
Flags: W
HStem: -382 21G<66.6598 107.532> 20 182<551 609 889 997> 933 194<670.692 914.997>
VStem: 981 207<494.476 859.69>
DStem2: 62 -382 254.298 -382 0.224951 0.97437<139.73 1251.62>
LayerCount: 2
Fore
SplineSet
62 -382 m 1,0,-1
 288 588 l 2,1,2
 329 764 329 764 428 908 c 0,3,4
 496 1007 496 1007 618 1070 c 0,5,6
 729 1127 729 1127 854 1127 c 0,7,8
 972 1127 972 1127 1060 1052 c 1,9,10
 1144 979 1144 979 1173 846 c 0,11,12
 1188 777 1188 777 1188 698 c 0,13,14
 1188 634 1188 634 1168 564 c 0,15,16
 1124 411 1124 411 1008 293 c 0,17,18
 949 233 949 233 889 202 c 1,19,-1
 1083 202 l 1,20,-1
 997 20 l 1,21,-1
 467 20 l 1,22,-1
 551 202 l 1,23,-1
 609 216 l 1,24,25
 715 238 715 238 800 314 c 0,26,27
 941 440 941 440 965 558 c 2,28,-1
 966 563 l 2,29,30
 981 638 981 638 981 685 c 0,31,32
 981 761 981 761 955 824 c 0,33,34
 910 933 910 933 809 933 c 0,35,36
 706 933 706 933 616 842 c 0,37,38
 512 737 512 737 472 562 c 2,39,-1
 276 -288 l 1,40,-1
 62 -382 l 1,0,-1
EndSplineSet
Validated: 1
EndChar

StartChar: q
Encoding: 113 113 84
Width: 1138
GlyphClass: 2
Flags: W
HStem: -382 21G<706.466 747.119> 0 193<481.446 680.301> 933 194<625.785 861.796>
VStem: 211 198<276.656 650.767> 928 209<457.164 858.427>
DStem2: 702 -382 898.127 -382 0.224951 0.97437<319.169 1089.76>
LayerCount: 2
Fore
SplineSet
702 -382 m 1,0,-1
 913 563 l 2,1,2
 928 630 928 630 928 686 c 0,3,4
 928 762 928 762 902 824 c 0,5,6
 856 933 856 933 757 933 c 0,7,8
 645 933 645 933 561 824 c 0,9,10
 467 702 467 702 441 620 c 1,11,-1
 427 572 l 1,12,13
 409 500 409 500 409 439 c 0,14,15
 409 382 409 382 441 302 c 0,16,17
 485 193 485 193 591 193 c 0,18,19
 634 193 634 193 676 212 c 1,20,-1
 704 34 l 1,21,22
 621 0 621 0 544 0 c 0,23,24
 423 0 423 0 338 75 c 0,25,26
 254 148 254 148 225 281 c 0,27,28
 211 344 211 344 211 409 c 0,29,30
 211 485 211 485 230 564 c 0,31,32
 267 720 267 720 355 846 c 0,33,34
 445 975 445 975 564 1052 c 0,35,36
 681 1127 681 1127 804 1127 c 0,37,38
 923 1127 923 1127 1010 1052 c 0,39,40
 1091 982 1091 982 1123 846 c 0,41,42
 1137 786 1137 786 1137 722 c 0,43,44
 1137 640 1137 640 1118 564 c 2,45,-1
 1117 560 l 1,46,-1
 960 -114 l 1,47,-1
 1126 -28 l 1,48,-1
 1081 -214 l 1,49,-1
 702 -382 l 1,0,-1
EndSplineSet
Validated: 1
EndChar

StartChar: r
Encoding: 114 114 85
Width: 748
GlyphClass: 2
Flags: W
HStem: 0 21G<134.61 175.532> 934 194<661.235 839.214>
DStem2: 130 0 322.298 0 0.224951 0.97437<139.73 840.596>
LayerCount: 2
Fore
SplineSet
130 0 m 1,0,-1
 260 564 l 2,1,2
 295 714 295 714 386 847 c 0,3,4
 477 979 477 979 594 1053 c 0,5,6
 713 1128 713 1128 834 1128 c 0,7,8
 923 1128 923 1128 994 1087 c 1,9,-1
 828 930 l 1,10,11
 810 934 810 934 790 934 c 0,12,13
 692 934 692 934 594 833 c 0,14,15
 490 726 490 726 452 563 c 2,16,-1
 344 94 l 1,17,-1
 130 0 l 1,0,-1
EndSplineSet
Validated: 1
EndChar

StartChar: s
Encoding: 115 115 86
Width: 973
GlyphClass: 2
Flags: W
HStem: 0 182<389.274 681.186> 932 174<582.969 812.19>
VStem: 785 200<275.97 427.557>
DStem2: 525 700 420 526 0.960444 -0.278472<-25.4192 338.439>
LayerCount: 2
Fore
SplineSet
135 240 m 1,0,-1
 329 322 l 1,1,2
 332 285 332 285 371 243 c 0,3,4
 428 182 428 182 537 182 c 0,5,6
 616 182 616 182 683 225 c 0,7,8
 749 267 749 267 773 328 c 0,9,10
 781 349 781 349 783 358 c 0,11,12
 785 370 785 370 785 379 c 0,13,14
 786 414 786 414 758 428 c 1,15,-1
 420 526 l 1,16,17
 311 572 311 572 311 700 c 1,18,19
 314 733 314 733 320 759 c 0,20,21
 348 886 348 886 455 986 c 0,22,23
 584 1106 584 1106 745 1106 c 0,24,25
 907 1106 907 1106 992 1000 c 0,26,27
 1021 964 1021 964 1032 928 c 1,28,-1
 833 850 l 1,29,30
 822 879 822 879 807 894 c 0,31,32
 768 932 768 932 705 932 c 0,33,34
 704 932 704 932 702 932 c 0,35,36
 631 932 631 932 582 888 c 1,37,38
 532 837 532 837 517 782 c 0,39,40
 513 767 513 767 513 753 c 0,41,42
 514 724 514 724 525 700 c 1,43,-1
 573 684 l 1,44,-1
 790 628 l 1,45,46
 871 602 871 602 929 557 c 1,47,48
 985 515 985 515 985 428 c 0,49,50
 985 396 985 396 977 363 c 0,51,52
 944 223 944 223 819 128 c 0,53,54
 651 0 651 0 495 0 c 0,55,56
 317 0 317 0 208 116 c 0,57,58
 144 184 144 184 135 240 c 1,0,-1
EndSplineSet
Validated: 1
EndChar

StartChar: t
Encoding: 116 116 87
Width: 672
GlyphClass: 2
Flags: W
HStem: 0 21G<321.5 396.5> 926 182<604 838> 1491 20G<649.333 693.335>
VStem: 522 13<245 266.595>
DStem2: 150.362 -0 347.9 -0 0.224951 0.97437<255.306 994.865 1181.65 1458.51>
LayerCount: 2
Fore
SplineSet
465 25 m 1,0,1
 415 -0 415 -0 378 -0 c 0,2,3
 376 -0 376 -0 375 0 c 0,4,5
 268 0 268 0 228 76 c 0,6,7
 199 131 199 131 199 186 c 0,8,9
 199 211 199 211 203 228 c 2,10,-1
 479 1421 l 1,11,-1
 698 1511 l 1,12,-1
 604 1108 l 1,13,-1
 922 1108 l 1,14,-1
 838 926 l 1,15,-1
 562 926 l 1,16,-1
 401 230 l 1,17,18
 407 195 407 195 448 195 c 0,19,20
 483 195 483 195 522 245 c 0,21,22
 529 254 529 254 535 267 c 1,23,-1
 465 25 l 1,0,1
EndSplineSet
Validated: 1
EndChar

StartChar: u
Encoding: 117 117 88
Width: 1118
GlyphClass: 2
Flags: W
HStem: 0 194<484.038 728.154> 925 182<327 436 715 773> 1107 20G<1203.68 1244.31>
VStem: 215 204<265.283 665.159>
DStem2: 797.559 0 986.562 0 0.224951 0.97437<335.556 1060.16>
LayerCount: 2
Fore
SplineSet
327 1107 m 1,0,-1
 857 1107 l 1,1,-1
 773 925 l 1,2,-1
 715 911 l 1,3,4
 629 889 629 889 565 825 c 0,5,6
 466 725 466 725 435 569 c 2,7,-1
 434 564 l 2,8,9
 419 489 419 489 419 429 c 0,10,11
 419 363 419 363 444 303 c 0,12,13
 489 194 489 194 590 194 c 0,14,15
 695 194 695 194 793 292 c 0,16,17
 887 386 887 386 928 565 c 2,18,-1
 1036 1033 l 1,19,-1
 1249 1127 l 1,20,-1
 1111 539 l 2,21,22
 1070 365 1070 365 971 219 c 0,23,24
 907 125 907 125 791 65 c 0,25,26
 665 0 665 0 545 0 c 0,27,28
 427 0 427 0 340 75 c 0,29,30
 255 148 255 148 226 281 c 0,31,32
 215 331 215 331 215 393 c 0,33,34
 215 470 215 470 231 563 c 0,35,36
 261 736 261 736 357 846 c 0,37,38
 422 920 422 920 436 925 c 1,39,-1
 241 925 l 1,40,-1
 327 1107 l 1,0,-1
EndSplineSet
Validated: 1
EndChar

StartChar: v
Encoding: 118 118 89
Width: 1118
GlyphClass: 2
Flags: W
HStem: 0 194<511.663 746.427> 1113 20G<540.8 579.352 920 960>
VStem: 241 196<275.471 672.711> 965 202<483.773 856.073>
DStem2: 129.79 0 321.559 0 0.224951 0.97437<502.461 1060.11>
LayerCount: 2
Fore
SplineSet
584 1133 m 1,0,-1
 452 565 l 2,1,2
 437 499 437 499 437 443 c 0,3,4
 437 359 437 359 470 295 c 0,5,6
 522 194 522 194 619 194 c 0,7,8
 718 194 718 194 811 297 c 0,9,10
 906 402 906 402 948 573 c 0,11,12
 965 642 965 642 965 700 c 0,13,14
 965 776 965 776 935 832 c 0,15,16
 893 911 893 911 837 939 c 1,17,-1
 779 965 l 1,18,19
 906 1101 906 1101 934 1127 c 1,20,21
 986 1098 986 1098 1040 1052 c 0,22,23
 1121 983 1121 983 1153 846 c 0,24,25
 1167 786 1167 786 1167 722 c 0,26,27
 1167 646 1167 646 1148 564 c 0,28,29
 1113 414 1113 414 1023 281 c 0,30,31
 933 149 933 149 814 75 c 0,32,33
 694 0 694 0 574 0 c 0,34,35
 453 0 453 0 368 75 c 0,36,37
 286 147 286 147 255 281 c 0,38,39
 241 341 241 341 241 406 c 0,40,41
 241 483 241 483 260 564 c 2,42,-1
 368 1033 l 1,43,-1
 584 1133 l 1,0,-1
EndSplineSet
Validated: 1
EndChar

StartChar: w
Encoding: 119 119 90
Width: 1784
GlyphClass: 2
Flags: W
HStem: 0 194<482.581 713.59 1175.93 1409.17> 913 182<324 466 712 770> 1107 20G<1586 1625>
VStem: 210 205<268.752 651.16> 1629 204<476.57 853.673>
DStem2: 795.713 0 987.943 0 0.224951 0.97437<481.603 1068.37>
LayerCount: 2
Fore
SplineSet
324 1095 m 1,0,-1
 854 1095 l 1,1,-1
 770 913 l 1,2,-1
 712 899 l 1,3,4
 640 873 640 873 561 793 c 0,5,6
 454 685 454 685 431 569 c 2,7,-1
 430 564 l 2,8,9
 415 489 415 489 415 441 c 0,10,11
 415 365 415 365 441 303 c 0,12,13
 487 194 487 194 587 194 c 0,14,15
 690 194 690 194 786 303 c 0,16,17
 886 417 886 417 926 564 c 1,18,19
 926 564 926 564 928 573 c 2,20,-1
 1036 1041 l 1,21,-1
 1250 1135 l 1,22,-1
 1120 572 l 2,23,24
 1119 569 1119 569 1119 568 c 128,-1,25
 1119 567 1119 567 1118 565 c 0,26,27
 1104 488 1104 488 1104 421 c 0,28,29
 1104 359 1104 359 1136 295 c 0,30,31
 1186 194 1186 194 1283 194 c 0,32,33
 1284 194 1284 194 1285 194 c 0,34,35
 1386 194 1386 194 1481 303 c 0,36,37
 1577 413 1577 413 1612 564 c 0,38,39
 1629 637 1629 637 1629 695 c 0,40,41
 1629 771 1629 771 1601 825 c 0,42,43
 1556 911 1556 911 1503 939 c 1,44,-1
 1445 965 l 1,45,46
 1572 1101 1572 1101 1600 1127 c 1,47,48
 1650 1100 1650 1100 1706 1052 c 0,49,50
 1787 983 1787 983 1819 846 c 0,51,52
 1833 786 1833 786 1833 722 c 0,53,54
 1833 646 1833 646 1814 564 c 0,55,56
 1779 411 1779 411 1689 281 c 0,57,58
 1598 149 1598 149 1480 75 c 0,59,60
 1361 0 1361 0 1240 0 c 128,-1,61
 1119 0 1119 0 1034 75 c 0,62,63
 972 130 972 130 940 217 c 1,64,65
 864 129 864 129 786 83 c 0,66,67
 646 0 646 0 542 0 c 0,68,69
 422 0 422 0 336 75 c 0,70,71
 251 149 251 149 223 281 c 0,72,73
 210 343 210 343 210 407 c 0,74,75
 210 483 210 483 228 563 c 0,76,77
 259 701 259 701 349 815 c 0,78,79
 393 871 393 871 466 913 c 1,80,-1
 238 913 l 1,81,-1
 324 1095 l 1,0,-1
EndSplineSet
Validated: 1
EndChar

StartChar: x
Encoding: 120 120 91
Width: 1072
GlyphClass: 2
Flags: W
HStem: 0 21G<200 259.326 815.75 857.87> 1100 20G<517.846 560 1061.93 1118.62>
VStem: 345 199<777.232 1035.39> 833 197<93.3765 326.525>
DStem2: 88 76 240 0 0.689187 0.724583<49.6881 626.001 891.96 1440.83>
LayerCount: 2
Fore
SplineSet
88 76 m 1,0,-1
 519 530 l 1,1,2
 452 574 452 574 424 617 c 0,3,4
 345 741 345 741 345 916 c 0,5,6
 345 966 345 966 354 1029 c 1,7,-1
 564 1120 l 1,8,-1
 548 1040 l 1,9,10
 544 1002 544 1002 544 968 c 0,11,12
 544 888 544 888 565 828 c 0,13,14
 596 741 596 741 670 689 c 1,15,-1
 1081 1120 l 1,16,-1
 1239 1036 l 1,17,-1
 825 606 l 1,18,19
 904 556 904 556 949 485 c 0,20,21
 1023 369 1023 369 1029 229 c 0,22,23
 1030 207 1030 207 1030 186 c 0,24,25
 1030 136 1030 136 1023 92 c 1,26,-1
 812 0 l 1,27,-1
 827 80 l 1,28,29
 833 120 833 120 833 156 c 0,30,31
 832 214 832 214 818 260 c 0,32,33
 783 376 783 376 670 445 c 1,34,-1
 240 0 l 1,35,-1
 88 76 l 1,0,-1
EndSplineSet
Validated: 1
EndChar

StartChar: y
Encoding: 121 121 92
Width: 1138
GlyphClass: 2
Flags: W
HStem: -382 21G<711.593 755.182> 0 194<481.532 716.546> 926 182<322 464 710 768> 1107 20G<1202.47 1243.37>
VStem: 213 206<263.971 659.379>
DStem2: 707 -382 898.684 -382 0.224951 0.97437<133.434 491.468 743.273 1452.29>
LayerCount: 2
Fore
SplineSet
322 1108 m 1,0,-1
 852 1108 l 1,1,-1
 768 926 l 1,2,-1
 710 912 l 1,3,4
 637 886 637 886 559 806 c 0,5,6
 460 704 460 704 434 574 c 2,7,-1
 432 564 l 2,8,9
 419 498 419 498 419 441 c 0,10,11
 420 362 420 362 443 303 c 0,12,13
 485 194 485 194 589 194 c 0,14,15
 686 194 686 194 784 295 c 128,-1,16
 882 396 882 396 922 544 c 1,17,-1
 1034 1033 l 1,18,-1
 1248 1127 l 1,19,-1
 919 -294 l 1,20,-1
 707 -382 l 1,21,-1
 817 97 l 1,22,23
 803 86 803 86 784 75 c 0,24,25
 654 0 654 0 544 0 c 0,26,27
 422 0 422 0 338 75 c 0,28,29
 254 149 254 149 225 281 c 0,30,31
 213 335 213 335 213 414 c 0,32,33
 213 477 213 477 230 564 c 0,34,35
 257 705 257 705 351 827 c 0,36,37
 391 880 391 880 464 926 c 1,38,-1
 236 926 l 1,39,-1
 322 1108 l 1,0,-1
EndSplineSet
Validated: 1
EndChar

StartChar: z
Encoding: 122 122 93
Width: 963
GlyphClass: 2
Flags: W
HStem: 22 184<394 758.812> 924 180<440 751.86>
VStem: 798 198<741.414 888.231>
DStem2: 135 181 394 206 0.750872 0.660447<210.987 873.65>
LayerCount: 2
Fore
SplineSet
323 924 m 1,0,-1
 440 1104 l 1,1,-1
 672 1103 l 2,2,3
 840 1103 840 1103 930 997 c 0,4,5
 996 919 996 919 996 818 c 0,6,7
 996 781 996 781 987 741 c 1,8,-1
 979 711 l 1,9,-1
 394 206 l 1,10,-1
 737 206 l 2,11,12
 765 206 765 206 784 226 c 0,13,14
 798 241 798 241 817 271 c 1,15,-1
 960 202 l 1,16,17
 875 30 875 30 659 22 c 1,18,-1
 259 22 l 2,19,20
 94 22 94 22 94 98 c 1,21,22
 95 108 95 108 97 118 c 0,23,24
 104 151 104 151 135 181 c 1,25,26
 135 181 135 181 791 758 c 1,27,-1
 796 773 l 1,28,29
 798 785 798 785 798 797 c 0,30,31
 797 853 797 853 753 890 c 0,32,33
 717 920 717 920 620 924 c 1,34,-1
 323 924 l 1,0,-1
EndSplineSet
Validated: 1
EndChar

StartChar: braceleft
Encoding: 123 123 94
Width: 788
GlyphClass: 2
Flags: W
HStem: -336 182<501.25 616> 612 198<286 387> 1589 182<885.495 1043>
VStem: 253 196<-96.7148 121.366>
DStem2: 169.421 -336 363.884 -336 0.224951 0.97437<391.225 972.648 1173.97 1941.71>
LayerCount: 2
Fore
SplineSet
616 -336 m 1,0,-1
 581 -336 l 2,1,2
 412 -336 412 -336 319 -213 c 0,3,4
 253 -126 253 -126 253 -23 c 0,5,6
 253 -20 253 -20 253 -17 c 0,7,8
 253 26 253 26 265 78 c 2,9,-1
 293 199 l 1,10,-1
 387 612 l 1,11,-1
 151 612 l 1,12,-1
 286 810 l 1,13,-1
 433 808 l 1,14,-1
 554 1332 l 1,15,-1
 560 1357 l 2,16,17
 601 1527 601 1527 748 1648 c 0,18,19
 897 1771 897 1771 1058 1771 c 0,20,21
 1063 1771 1063 1771 1068 1771 c 2,22,-1
 1105 1770 l 1,23,-1
 1185 1770 l 1,24,-1
 1057 1587 l 1,25,-1
 1043 1588 l 1,26,-1
 1026 1589 l 1,27,28
 942 1589 942 1589 865 1533 c 0,29,30
 785 1475 785 1475 758 1372 c 2,31,-1
 752 1349 l 1,32,-1
 461 86 l 1,33,-1
 456 63 l 2,34,35
 449 31 449 31 449 0 c 0,36,37
 449 -57 449 -57 488 -98 c 0,38,39
 541 -154 541 -154 623 -154 c 2,40,-1
 652 -154 l 1,41,-1
 743 -152 l 1,42,-1
 616 -336 l 1,0,-1
EndSplineSet
Validated: 1
EndChar

StartChar: bar
Encoding: 124 124 95
Width: 538
GlyphClass: 2
Flags: W
VStem: 116 633
DStem2: 116 -232 313.76 -232 0.224951 0.97437<138.906 1839.2>
LayerCount: 2
Fore
SplineSet
335 -140 m 1,0,-1
 116 -232 l 1,1,-1
 530 1560 l 1,2,-1
 749 1649 l 1,3,-1
 335 -140 l 1,0,-1
EndSplineSet
Validated: 1
EndChar

StartChar: braceright
Encoding: 125 125 96
Width: 788
GlyphClass: 2
Flags: W
HStem: -336 184<62 237.836> 627 196<732 833> 1589 182<503 618.188>
VStem: 671 195<1313.63 1531.68>
DStem2: 269.574 -336 464.649 -336 0.224951 0.97437<271.26 1032.22 1233.32 1807.32>
LayerCount: 2
Fore
SplineSet
503 1771 m 1,0,-1
 538 1771 l 2,1,2
 708 1771 708 1771 801 1648 c 0,3,4
 866 1562 866 1562 866 1453 c 1,5,6
 865 1406 865 1406 854 1357 c 2,7,-1
 826 1236 l 1,8,-1
 732 823 l 1,9,-1
 968 823 l 1,10,-1
 833 625 l 1,11,-1
 687 627 l 1,12,-1
 566 103 l 1,13,-1
 559 78 l 1,14,15
 512 -97 512 -97 371 -213 c 0,16,17
 221 -336 221 -336 61 -336 c 0,18,19
 56 -336 56 -336 51 -336 c 2,20,-1
 15 -335 l 1,21,-1
 -65 -335 l 1,22,-1
 62 -152 l 1,23,-1
 78 -152 l 1,24,-1
 93 -154 l 1,25,26
 177 -154 177 -154 254 -98 c 0,27,28
 338 -37 338 -37 362 63 c 1,29,-1
 367 86 l 1,30,-1
 658 1349 l 1,31,-1
 664 1372 l 2,32,33
 671 1401 671 1401 671 1427 c 0,34,35
 670 1491 670 1491 631 1533 c 0,36,37
 579 1589 579 1589 496 1589 c 2,38,-1
 467 1589 l 1,39,-1
 376 1587 l 1,40,-1
 503 1771 l 1,0,-1
EndSplineSet
Validated: 1
EndChar

StartChar: asciitilde
Encoding: 126 126 97
Width: 1116
GlyphClass: 2
Flags: W
HStem: 527 184<832.128 1001.19>
DStem2: 611 846 534 670 0.917671 -0.397342<-24.8201 358.794>
LayerCount: 2
Fore
SplineSet
534 670 m 2,0,1
 521 676 521 676 510 676 c 0,2,3
 461 674 461 674 419 580 c 1,4,-1
 197 506 l 1,5,-1
 208 541 l 1,6,-1
 218 571 l 1,7,8
 307 846 307 846 540 859 c 0,9,10
 559 860 559 860 571 858 c 0,11,12
 586 856 586 856 611 846 c 0,13,14
 788 777 788 777 912 719 c 0,15,16
 929 711 929 711 944 711 c 0,17,18
 992 712 992 712 1015 787 c 0,19,20
 1019 802 1019 802 1021 808 c 1,21,-1
 1239 880 l 1,22,-1
 1230 845 l 1,23,-1
 1215 795 l 1,24,25
 1132 527 1132 527 918 527 c 0,26,27
 901 527 901 527 882 529 c 0,28,29
 850 532 850 532 825 544 c 1,30,-1
 534 670 l 2,0,1
EndSplineSet
Validated: 1
EndChar

StartChar: exclamdown
Encoding: 161 161 99
Width: 600
GlyphClass: 2
Flags: W
HStem: 0 21G<206.621 251.663> 1248 264<541.008 695.842>
VStem: 485 267<1303.49 1456.44>
DStem2: 202 0 402.453 0 0.224951 0.97437<136.433 1137.19>
LayerCount: 2
Fore
SplineSet
488 1380 m 0,0,1
 502 1436 502 1436 548 1474 c 128,-1,2
 594 1512 594 1512 649 1512 c 128,-1,3
 704 1512 704 1512 732 1474 c 0,4,5
 752 1447 752 1447 752 1413 c 0,6,7
 752 1396 752 1396 748 1380 c 0,8,9
 734 1324 734 1324 689 1286 c 128,-1,10
 644 1248 644 1248 588 1248 c 0,11,12
 534 1248 534 1248 505 1286 c 0,13,14
 485 1312 485 1312 485 1341 c 128,-1,15
 485 1370 485 1370 488 1380 c 0,0,1
202 0 m 1,16,-1
 458 1108 l 1,17,-1
 677 1200 l 1,18,-1
 423 89 l 1,19,-1
 202 0 l 1,16,-1
EndSplineSet
Validated: 1
EndChar

StartChar: cent
Encoding: 162 162 100
Width: 1068
GlyphClass: 2
Flags: W
VStem: 211 203<266.665 647.35>
DStem2: 381 -208 577.76 -208 0.224951 0.97437<138.681 239.749 475.371 1125.57 1400.42 1505.43>
LayerCount: 2
Fore
SplineSet
1067 429 m 1,0,1
 1027 332 1027 332 993 280 c 0,2,3
 910 154 910 154 784 74 c 0,4,5
 705 24 705 24 628 8 c 1,6,-1
 599 -116 l 1,7,-1
 381 -208 l 1,8,-1
 433 17 l 1,9,10
 380 36 380 36 338 74 c 0,11,12
 256 148 256 148 225 280 c 0,13,14
 211 340 211 340 211 405 c 0,15,16
 211 482 211 482 230 563 c 0,17,18
 266 716 266 716 355 846 c 0,19,20
 443 975 443 975 564 1052 c 0,21,22
 622 1089 622 1089 684 1108 c 1,23,-1
 719 1259 l 1,24,-1
 937 1348 l 1,25,-1
 884 1117 l 1,26,27
 954 1100 954 1100 1010 1052 c 0,28,29
 1097 977 1097 977 1118 872 c 1,30,-1
 1125 840 l 1,31,-1
 921 758 l 1,32,33
 918 817 918 817 900 850 c 0,34,35
 875 896 875 896 837 916 c 1,36,-1
 675 212 l 1,37,38
 732 238 732 238 784 301 c 2,39,-1
 800 320 l 1,40,-1
 1067 429 l 1,0,1
483 236 m 1,41,-1
 633 889 l 1,42,43
 597 863 597 863 563 824 c 0,44,45
 471 717 471 717 433 566 c 2,46,-1
 432 562 l 2,47,48
 414 489 414 489 414 428 c 0,49,50
 414 361 414 361 435 309 c 0,51,52
 451 270 451 270 483 236 c 1,41,-1
EndSplineSet
Validated: 1
EndChar

StartChar: sterling
Encoding: 163 163 101
Width: 1179
GlyphClass: 2
Flags: W
HStem: 22 196<211 270 469 1049> 600 198<354 361 602 1050> 1329 182<799.211 1066.17>
VStem: 1114 199<1088.87 1282.4>
DStem2: 224.75 22 423.75 22 0.224951 0.97437<245.921 593.836 840.974 1298.28>
LayerCount: 2
Fore
SplineSet
58 22 m 1,0,-1
 211 218 l 1,1,-1
 270 218 l 1,2,-1
 361 600 l 1,3,-1
 219 600 l 1,4,-1
 354 798 l 1,5,-1
 407 798 l 1,6,-1
 477 1097 l 2,7,8
 517 1267 517 1267 665 1388 c 0,9,10
 815 1511 815 1511 985 1511 c 0,11,12
 1142 1511 1142 1511 1247 1392 c 0,13,14
 1313 1317 1313 1317 1313 1193 c 0,15,16
 1313 1159 1313 1159 1301 1105 c 2,17,-1
 1297 1087 l 1,18,-1
 1088 1015 l 1,19,-1
 1108 1110 l 2,20,21
 1114 1139 1114 1139 1114 1172 c 0,22,23
 1114 1223 1114 1223 1084 1265 c 1,24,25
 1041 1329 1041 1329 943 1329 c 0,26,27
 856 1329 856 1329 782 1273 c 0,28,29
 698 1210 698 1210 675 1112 c 2,30,-1
 602 798 l 1,31,-1
 1187 798 l 1,32,-1
 1050 600 l 1,33,-1
 558 600 l 1,34,-1
 469 218 l 1,35,-1
 1204 224 l 1,36,-1
 1049 28 l 1,37,-1
 58 22 l 1,0,-1
EndSplineSet
Validated: 1
EndChar

StartChar: currency
Encoding: 164 164 102
Width: 1542
GlyphClass: 2
Flags: W
HStem: 267 207<733.033 1031.94> 1044 207<845.386 1142.41>
VStem: 441 210<557.739 852.387> 1225 207<672.579 961.949>
DStem2: 228 336 414 259 0.800766 0.598978<102.821 291.644 1351.61 1564> 644 1256 422 1179 0.662261 -0.749273<0 142.198 986.878 1151.87>
LayerCount: 2
Fore
SplineSet
871 474 m 0,0,1
 988 474 988 474 1089 558 c 0,2,3
 1174 629 1174 629 1216 755 c 2,4,-1
 1217 758 l 1,5,6
 1225 794 1225 794 1225 836 c 0,7,8
 1225 903 1225 903 1182 960 c 0,9,10
 1119 1044 1119 1044 1004 1044 c 128,-1,11
 889 1044 889 1044 787.5 960 c 128,-1,12
 686 876 686 876 659 759 c 0,13,14
 651 724 651 724 651 692 c 0,15,16
 651 618 651 618 695 558 c 0,17,18
 757 474 757 474 871 474 c 0,0,1
228 336 m 1,19,-1
 464 510 l 1,20,-1
 462 512 l 1,21,22
 441 574 441 574 441 643 c 0,23,24
 441 699 441 699 455 759 c 0,25,26
 498 943 498 943 576 1006 c 1,27,-1
 577 1007 l 1,28,-1
 422 1179 l 1,29,-1
 644 1256 l 1,30,-1
 739 1153 l 1,31,32
 763 1168 763 1168 794 1185 c 0,33,34
 919 1251 919 1251 1052 1251 c 0,35,36
 1177 1251 1177 1251 1278 1185 c 0,37,38
 1301 1170 1301 1170 1319 1153 c 1,39,-1
 1481 1272 l 1,40,-1
 1668 1197 l 1,41,-1
 1412 1008 l 1,42,-1
 1412 1006 l 1,43,44
 1432 934 1432 934 1432 865 c 0,45,46
 1432 810 1432 810 1420 759 c 2,47,48
 1420 759 1420 759 1419 755 c 0,49,50
 1399 638 1399 638 1299 513 c 1,51,-1
 1467 324 l 1,52,-1
 1244 249 l 1,53,-1
 1138 366 l 1,54,55
 1110 348 1110 348 1081 333 c 0,56,57
 953 267 953 267 824 267 c 0,58,59
 696 267 696 267 597 333 c 0,60,61
 576 347 576 347 558 364 c 1,62,-1
 414 259 l 1,63,-1
 228 336 l 1,19,-1
EndSplineSet
Validated: 1
EndChar

StartChar: yen
Encoding: 165 165 103
Width: 1118
GlyphClass: 2
Flags: W
HStem: 0 21G<456.64 505.5> 374 196<291 508 830 959> 702 195<406 458 689 725 1050 1075> 1492 20G<526.574 570.029 1249.69 1288.69>
DStem2: 567 1512 377 1418 0.149702 -0.988731<64.4973 591.752 818.147 861.711> 452 0 647.531 0 0.224951 0.97437<126.089 385.934> 696 660 830 573 0.554024 0.832501<1.81157 51.8642 395.925 1011.08>
LayerCount: 2
Fore
SplineSet
666 80 m 1,0,-1
 452 0 l 1,1,-1
 539 375 l 1,2,-1
 539 376 l 1,3,-1
 137 374 l 1,4,-1
 291 570 l 1,5,-1
 508 571 l 1,6,-1
 488 702 l 1,7,-1
 253 701 l 1,8,-1
 406 897 l 1,9,-1
 458 897 l 1,10,-1
 377 1418 l 1,11,-1
 567 1512 l 1,12,-1
 660 898 l 1,13,-1
 855 899 l 1,14,-1
 1263 1512 l 1,15,-1
 1394 1410 l 1,16,-1
 1050 900 l 1,17,-1
 1229 901 l 1,18,-1
 1075 705 l 1,19,-1
 919 704 l 1,20,-1
 830 573 l 1,21,-1
 1114 574 l 1,22,-1
 959 378 l 1,23,-1
 735 377 l 1,24,-1
 666 80 l 1,0,-1
725 703 m 1,25,-1
 689 703 l 1,26,-1
 696 660 l 1,27,-1
 725 703 l 1,25,-1
EndSplineSet
Validated: 1
EndChar

StartChar: brokenbar
Encoding: 166 166 104
Width: 536
GlyphClass: 2
Flags: W
VStem: 110 641
DStem2: 110 -262 305.991 -262 0.224951 0.97437<137.482 838.351 1215.01 1890.84>
LayerCount: 2
Fore
SplineSet
352 786 m 1,0,-1
 537 1580 l 1,1,-1
 751 1668 l 1,2,-1
 569 879 l 1,3,-1
 352 786 l 1,0,-1
516 648 m 1,4,-1
 327 -171 l 1,5,-1
 110 -262 l 1,6,-1
 298 555 l 1,7,-1
 516 648 l 1,4,-1
EndSplineSet
Validated: 1
EndChar

StartChar: section
Encoding: 167 167 105
Width: 1077
GlyphClass: 2
Flags: W
HStem: -44 174<455.81 685.313> 1338 174<730.01 960.19>
VStem: 285 237<603 796.627> 915 217<672.203 835>
LayerCount: 2
Fore
SplineSet
529 776 m 0,0,1
 527 771 527 771 525 763 c 0,2,3
 522 754 522 754 522 745 c 0,4,5
 524 711 524 711 550 675 c 0,6,7
 584 628 584 628 667 610 c 0,8,9
 700 603 700 603 730 603 c 0,10,11
 775 603 775 603 815 617 c 0,12,13
 884 641 884 641 907 692 c 0,14,15
 912 702 912 702 913 709 c 0,16,17
 915 719 915 719 915 728 c 0,18,19
 915 762 915 762 889 792 c 0,20,21
 846 842 846 842 771 858 c 0,22,23
 734 866 734 866 699 866 c 0,24,25
 654 866 654 866 618 853 c 0,26,27
 550 828 550 828 529 776 c 0,0,1
236 134 m 1,28,-1
 435 212 l 1,29,30
 446 182 446 182 461 168 c 0,31,32
 501 130 501 130 563 130 c 2,33,-1
 566 130 l 2,34,35
 637 130 637 130 686 174 c 1,36,37
 742 230 742 230 752 280 c 0,38,39
 755 295 755 295 755 309 c 0,40,41
 755 335 755 335 744 362 c 1,42,-1
 695 378 l 1,43,44
 364 481 364 481 337 507 c 1,45,46
 285 564 285 564 285 642 c 0,47,48
 285 669 285 669 291 699 c 1,49,50
 323 835 323 835 450 934 c 0,51,52
 477 955 477 955 506 973 c 1,53,54
 459 1022 459 1022 458 1106 c 1,55,56
 461 1137 461 1137 468 1165 c 0,57,58
 500 1296 500 1296 602 1392 c 0,59,60
 730 1512 730 1512 893 1512 c 0,61,62
 1055 1512 1055 1512 1140 1406 c 0,63,64
 1169 1370 1169 1370 1180 1334 c 1,65,-1
 981 1256 l 1,66,67
 970 1286 970 1286 955 1300 c 0,68,69
 915 1338 915 1338 853 1338 c 2,70,-1
 850 1338 l 2,71,72
 779 1338 779 1338 730 1294 c 1,73,74
 674 1238 674 1238 664 1188 c 0,75,76
 661 1173 661 1173 661 1159 c 0,77,78
 661 1133 661 1133 672 1106 c 1,79,-1
 721 1090 l 1,80,81
 1027 1000 1027 1000 1079 961 c 1,82,83
 1132 919 1132 919 1132 835 c 0,84,85
 1132 805 1132 805 1125 769 c 1,86,87
 1093 633 1093 633 966 534 c 0,88,89
 939 513 939 513 910 495 c 1,90,91
 957 446 957 446 958 362 c 1,92,93
 955 332 955 332 948 303 c 0,94,95
 916 170 916 170 814 76 c 0,96,97
 684 -44 684 -44 523 -44 c 0,98,99
 361 -44 361 -44 276 62 c 0,100,101
 247 98 247 98 236 134 c 1,28,-1
EndSplineSet
Validated: 1
EndChar

StartChar: dieresis
Encoding: 168 168 106
Width: 996
GlyphClass: 2
Flags: W
HStem: 1218 294<502.655 673.345 949.934 1121.17>
VStem: 431 314<1288.12 1441.88> 882 314<1291.12 1444.88>
LayerCount: 2
Fore
SplineSet
886 1368 m 0,0,1
 900 1429 900 1429 955 1472 c 128,-1,2
 1010 1515 1010 1515 1073 1515 c 128,-1,3
 1136 1515 1136 1515 1171 1472 c 0,4,5
 1196 1441 1196 1441 1196 1401 c 0,6,7
 1196 1385 1196 1385 1192 1368 c 0,8,9
 1178 1307 1178 1307 1123 1264 c 128,-1,10
 1068 1221 1068 1221 1005 1221 c 128,-1,11
 942 1221 942 1221 907 1264 c 0,12,13
 882 1295 882 1295 882 1335 c 0,14,15
 882 1351 882 1351 886 1368 c 0,0,1
435 1365 m 0,16,17
 449 1426 449 1426 504 1469 c 128,-1,18
 559 1512 559 1512 622 1512 c 128,-1,19
 685 1512 685 1512 720 1469 c 0,20,21
 745 1438 745 1438 745 1398 c 0,22,23
 745 1382 745 1382 741 1365 c 0,24,25
 727 1304 727 1304 672 1261 c 128,-1,26
 617 1218 617 1218 554 1218 c 128,-1,27
 491 1218 491 1218 456 1261 c 0,28,29
 431 1292 431 1292 431 1332 c 0,30,31
 431 1348 431 1348 435 1365 c 0,16,17
EndSplineSet
Validated: 1
EndChar

StartChar: copyright
Encoding: 169 169 107
Width: 1261
GlyphClass: 2
Flags: W
HStem: 180 79<513.365 881.469> 336 141<661.946 861.314> 1026 143<756.71 972.069> 1251 80<727.758 1100.57>
VStem: 237 78<468.976 827.145> 449 164<526.077 847.805> 1295 77<681.243 1046.45>
LayerCount: 2
Fore
SplineSet
947 1331 m 0,0,1
 1046 1331 1046 1331 1138 1288 c 0,2,3
 1223 1248 1223 1248 1288 1161 c 0,4,5
 1350 1078 1350 1078 1366 975 c 0,6,7
 1372 937 1372 937 1372 877 c 0,8,9
 1372 827 1372 827 1355 754 c 0,10,11
 1326 632 1326 632 1265 535 c 0,12,13
 1202 435 1202 435 1101 350 c 0,14,15
 1002 267 1002 267 892 223 c 0,16,17
 785 180 785 180 673 180 c 128,-1,18
 561 180 561 180 471 223 c 0,19,20
 384 265 384 265 322 350 c 0,21,22
 259 436 259 436 243 535 c 0,23,24
 237 572 237 572 237 612 c 0,25,26
 237 680 237 680 254 754 c 0,27,28
 282 874 282 874 345 975 c 0,29,30
 410 1078 410 1078 509 1161 c 1,31,32
 606 1244 606 1244 713 1286 c 0,33,34
 828 1331 828 1331 947 1331 c 0,0,1
920 1251 m 0,35,36
 823 1251 823 1251 731 1215 c 128,-1,37
 639 1179 639 1179 551 1105 c 0,38,39
 464 1032 464 1032 408 944 c 128,-1,40
 352 856 352 856 329 759 c 1,41,-1
 328 754 l 1,42,43
 315 696 315 696 315 641 c 0,44,45
 315 603 315 603 321 566 c 0,46,47
 334 487 334 487 390 406 c 0,48,49
 442 331 442 331 517 296 c 0,50,51
 595 259 595 259 691 259 c 0,52,53
 786 259 786 259 881 296 c 0,54,55
 972 332 972 332 1061 406 c 0,56,57
 1145 477 1145 477 1201 565 c 0,58,59
 1255 649 1255 649 1280 754 c 0,60,61
 1295 816 1295 816 1295 874 c 0,62,63
 1295 911 1295 911 1289 945 c 0,64,65
 1273 1034 1273 1034 1222 1105 c 0,66,67
 1167 1181 1167 1181 1094 1215 c 0,68,69
 1016 1251 1016 1251 920 1251 c 0,35,36
1116 654 m 1,70,71
 1086 582 1086 582 1060 544 c 0,72,73
 998 454 998 454 898 392 c 0,74,75
 808 336 808 336 715 336 c 2,76,-1
 712 336 l 1,77,78
 613 340 613 340 550 392 c 0,79,80
 491 440 491 440 461 544 c 0,81,82
 449 586 449 586 449 656 c 0,83,84
 449 700 449 700 462 753 c 0,85,86
 490 867 490 867 557 962 c 0,87,88
 626 1060 626 1060 717 1114 c 0,89,90
 807 1168 807 1168 904 1169 c 1,91,-1
 907 1169 l 2,92,93
 1004 1169 1004 1169 1065 1114 c 0,94,95
 1116 1068 1116 1068 1151 981 c 0,96,97
 1153 976 1153 976 1157 958 c 1,98,-1
 999 897 l 1,99,100
 996 938 996 938 982 965 c 0,101,102
 950 1026 950 1026 871 1026 c 2,103,-1
 870 1026 l 2,104,105
 792 1026 792 1026 719 946 c 0,106,107
 650 870 650 870 625 779 c 0,108,109
 622 768 622 768 620 755 c 0,110,111
 613 718 613 718 613 681 c 0,112,113
 613 677 613 677 613 672 c 0,114,115
 613 611 613 611 632 568 c 0,116,117
 672 477 672 477 760 477 c 0,118,119
 764 477 764 477 769 477 c 0,120,121
 833 477 833 477 897 559 c 2,122,-1
 908 573 l 1,123,-1
 1116 654 l 1,70,71
EndSplineSet
Validated: 1
EndChar

StartChar: ordfeminine
Encoding: 170 170 108
Width: 1083
GlyphClass: 2
Flags: W
HStem: 429 198<315 1010> 697 151<605.375 700> 713 131<969 1053> 1372 140<728.262 941.049>
VStem: 417 157<876.797 1185.34> 982 158<1000.8 1332.53>
LayerCount: 2
Fore
SplineSet
710 698 m 1,0,1
 697 697 697 697 690 697 c 0,2,3
 580 702 580 702 516 752 c 0,4,5
 453 801 453 801 428 901 c 0,6,7
 417 944 417 944 417 1008 c 0,8,9
 417 1049 417 1049 432 1105 c 0,10,11
 472 1255 472 1255 551 1354 c 0,12,13
 598 1413 598 1413 691 1465 c 0,14,15
 775 1512 775 1512 883 1512 c 0,16,17
 979 1512 979 1512 1044 1458 c 0,18,19
 1110 1404 1110 1404 1132 1309 c 0,20,21
 1140 1274 1140 1274 1140 1198 c 0,22,23
 1140 1168 1140 1168 1128 1105 c 0,24,25
 1104 980 1104 980 1030 901 c 0,26,27
 980 848 980 848 969 844 c 1,28,-1
 1120 844 l 1,29,-1
 1053 713 l 1,30,-1
 751 713 l 1,31,-1
 817 847 l 1,32,-1
 820 854 l 1,33,34
 845 898 845 898 868 916 c 0,35,36
 927 961 927 961 960 1040 c 0,37,38
 981 1090 981 1090 982 1193 c 0,39,40
 982 1246 982 1246 962 1293 c 0,41,42
 928 1372 928 1372 848 1372 c 0,43,44
 764 1372 764 1372 690 1293 c 0,45,46
 620 1218 620 1218 588 1105 c 0,47,48
 574 1056 574 1056 574 1014 c 2,49,-1
 574 1010 l 1,50,51
 577 949 577 949 596 909 c 0,52,53
 625 848 625 848 688 848 c 0,54,55
 694 848 694 848 700 848 c 1,56,-1
 710 698 l 1,0,1
315 627 m 1,57,-1
 1148 627 l 1,58,-1
 1010 429 l 1,59,-1
 179 429 l 1,60,-1
 315 627 l 1,57,-1
EndSplineSet
Validated: 1
EndChar

StartChar: guillemotleft
Encoding: 171 171 109
Width: 1066
GlyphClass: 2
Flags: W
DStem2: 484 702 259 687 0.428871 -0.903366<0 370.435> 259 687 484 702 0.667789 0.744351<161.418 627.926> 846 711 621 696 0.428871 -0.903366<0 370.864> 621 696 846 711 0.667789 0.744351<161.418 627.926>
LayerCount: 2
Fore
SplineSet
1092 1221 m 1,0,-1
 1150 1065 l 1,1,-1
 846 711 l 1,2,-1
 1003 375 l 1,3,-1
 856 201 l 1,4,-1
 621 696 l 1,5,-1
 1092 1221 l 1,0,-1
730 1212 m 1,6,-1
 788 1056 l 1,7,-1
 484 702 l 1,8,-1
 640 366 l 1,9,-1
 494 192 l 1,10,-1
 259 687 l 1,11,-1
 730 1212 l 1,6,-1
EndSplineSet
Validated: 1
EndChar

StartChar: logicalnot
Encoding: 172 172 110
Width: 1083
GlyphClass: 2
Flags: W
HStem: 600 198<354 851>
VStem: 692 206<362 568>
LayerCount: 2
Fore
SplineSet
354 798 m 1,0,-1
 1187 798 l 1,1,-1
 898 362 l 1,2,-1
 692 362 l 1,3,-1
 851 600 l 1,4,-1
 219 600 l 1,5,-1
 354 798 l 1,0,-1
EndSplineSet
Validated: 1
EndChar

StartChar: uni00AD
Encoding: 173 173 111
Width: 1083
GlyphClass: 2
Flags: W
HStem: 600 198<354 1050>
LayerCount: 2
Fore
SplineSet
354 798 m 1,0,-1
 1187 798 l 1,1,-1
 1050 600 l 1,2,-1
 219 600 l 1,3,-1
 354 798 l 1,0,-1
EndSplineSet
Validated: 1
EndChar

StartChar: registered
Encoding: 174 174 112
Width: 1261
GlyphClass: 2
Flags: W
HStem: 180 79<513.365 881.469> 642 137<702 834> 1067 140<760.025 1008.45> 1251 80<727.758 1100.57>
VStem: 237 78<468.976 827.145> 1022 147<836.786 1032.12> 1295 77<681.243 1046.45>
DStem2: 432.907 180 563.131 180 0.224951 0.97437<264.318 503.493 644.18 949.434> 972 683 834 642 0.187112 -0.982339<14.4544 274.961>
LayerCount: 2
Fore
SplineSet
947 1331 m 0,0,1
 1046 1331 1046 1331 1138 1288 c 0,2,3
 1223 1248 1223 1248 1288 1161 c 0,4,5
 1350 1078 1350 1078 1366 975 c 0,6,7
 1372 937 1372 937 1372 877 c 0,8,9
 1372 827 1372 827 1355 754 c 0,10,11
 1326 632 1326 632 1265 535 c 0,12,13
 1202 435 1202 435 1101 350 c 0,14,15
 1002 267 1002 267 892 223 c 0,16,17
 785 180 785 180 673 180 c 128,-1,18
 561 180 561 180 471 223 c 0,19,20
 384 265 384 265 322 350 c 0,21,22
 259 436 259 436 243 535 c 0,23,24
 237 572 237 572 237 612 c 0,25,26
 237 680 237 680 254 754 c 0,27,28
 282 874 282 874 345 975 c 0,29,30
 410 1078 410 1078 509 1161 c 1,31,32
 606 1244 606 1244 713 1286 c 0,33,34
 828 1331 828 1331 947 1331 c 0,0,1
920 1251 m 0,35,36
 823 1251 823 1251 731 1215 c 128,-1,37
 639 1179 639 1179 551 1105 c 0,38,39
 464 1032 464 1032 408 944 c 128,-1,40
 352 856 352 856 329 759 c 1,41,-1
 328 754 l 1,42,43
 315 696 315 696 315 641 c 0,44,45
 315 603 315 603 321 566 c 0,46,47
 334 487 334 487 390 406 c 0,48,49
 442 331 442 331 517 296 c 0,50,51
 595 259 595 259 691 259 c 0,52,53
 786 259 786 259 881 296 c 0,54,55
 972 332 972 332 1061 406 c 0,56,57
 1145 477 1145 477 1201 565 c 0,58,59
 1255 649 1255 649 1280 754 c 0,60,61
 1295 816 1295 816 1295 874 c 0,62,63
 1295 911 1295 911 1289 945 c 0,64,65
 1273 1034 1273 1034 1222 1105 c 0,66,67
 1167 1181 1167 1181 1094 1215 c 0,68,69
 1016 1251 1016 1251 920 1251 c 0,35,36
1009 1033 m 0,70,71
 992 1067 992 1067 916 1067 c 2,72,-1
 776 1067 l 2,73,74
 770 1067 770 1067 766 1052 c 2,75,-1
 702 779 l 1,76,-1
 850 779 l 2,77,78
 939 779 939 779 973 828 c 0,79,80
 1006 875 1006 875 1016 919 c 0,81,82
 1017 920 1017 920 1019 936 c 0,83,84
 1022 954 1022 954 1022 977 c 0,85,86
 1023 1005 1023 1005 1009 1033 c 0,70,71
670 642 m 1,87,-1
 616 409 l 1,88,-1
 471 345 l 1,89,-1
 639 1074 l 2,90,91
 645 1099 645 1099 658 1120 c 0,92,93
 668 1137 668 1137 690 1162 c 0,94,95
 709 1184 709 1184 742 1196 c 128,-1,96
 775 1208 775 1208 815 1208 c 2,97,-1
 816 1208 l 1,98,-1
 953 1207 l 1,99,-1
 956 1207 l 2,100,101
 1074 1207 1074 1207 1126 1136 c 0,102,103
 1169 1077 1169 1077 1169 1002 c 0,104,105
 1169 970 1169 970 1161 934 c 1,106,-1
 1160 931 l 1,107,108
 1130 805 1130 805 1032 726 c 0,109,110
 1001 701 1001 701 972 683 c 1,111,-1
 1024 413 l 1,112,-1
 890 348 l 1,113,-1
 834 642 l 1,114,115
 828 642 828 642 821 642 c 2,116,-1
 670 642 l 1,87,-1
EndSplineSet
Validated: 1
EndChar

StartChar: macron
Encoding: 175 175 113
Width: 1083
GlyphClass: 2
Flags: W
HStem: 1314 198<519 1214>
LayerCount: 2
Fore
SplineSet
519 1512 m 1,0,-1
 1352 1512 l 1,1,-1
 1214 1314 l 1,2,-1
 383 1314 l 1,3,-1
 519 1512 l 1,0,-1
EndSplineSet
Validated: 1
EndChar

StartChar: degree
Encoding: 176 176 114
Width: 848
GlyphClass: 2
Flags: W
HStem: 823 153<564.885 749.062> 1370 142<639.061 819.762>
VStem: 375 165<997.695 1253.68> 847 159<1080 1345.03>
LayerCount: 2
Fore
SplineSet
737 1370 m 0,0,1
 680 1370 680 1370 620 1307 c 0,2,3
 563 1247 563 1247 547 1169 c 0,4,5
 540 1135 540 1135 540 1101 c 0,6,7
 540 1064 540 1064 558 1031 c 0,8,9
 588 976 588 976 645 976 c 0,10,11
 648 976 648 976 650 976 c 0,12,13
 729 996 729 996 768 1036 c 0,14,15
 822 1092 822 1092 840 1167 c 0,16,17
 847 1197 847 1197 847 1225 c 0,18,19
 847 1268 847 1268 830 1307 c 0,20,21
 803 1370 803 1370 737 1370 c 0,0,1
773 1512 m 0,22,23
 853 1512 853 1512 915 1466 c 0,24,25
 975 1421 975 1421 996 1340 c 0,26,27
 1005 1305 1005 1305 1006 1258 c 0,28,29
 1006 1243 1006 1243 1006 1243 c 1,30,31
 1004 1208 1004 1208 996 1159 c 1,32,33
 981 1083 981 1083 917 995 c 0,34,35
 865 923 865 923 774 867 c 0,36,37
 703 823 703 823 614 823 c 0,38,39
 537 823 537 823 472 869 c 128,-1,40
 407 915 407 915 384 992 c 0,41,42
 375 1022 375 1022 375 1060 c 0,43,44
 375 1104 375 1104 388 1160 c 0,45,46
 412 1263 412 1263 470 1340 c 0,47,48
 532 1422 532 1422 609 1466 c 0,49,50
 690 1512 690 1512 773 1512 c 0,22,23
EndSplineSet
Validated: 1
EndChar

StartChar: plusminus
Encoding: 177 177 115
Width: 1084
GlyphClass: 2
Flags: W
HStem: 168 198<255 951> 741 198<387 613 857 1082>
DStem2: 480.518 168 678.74 168 0.224951 0.97437<352.481 588.116 835.929 1069.39>
LayerCount: 2
Fore
SplineSet
748 468 m 1,0,-1
 529 378 l 1,1,-1
 613 741 l 1,2,-1
 251 741 l 1,3,-1
 387 939 l 1,4,-1
 659 939 l 1,5,-1
 721 1210 l 1,6,-1
 941 1302 l 1,7,-1
 857 939 l 1,8,-1
 1220 939 l 1,9,-1
 1082 741 l 1,10,-1
 811 741 l 1,11,-1
 748 468 l 1,0,-1
255 366 m 1,12,-1
 1088 366 l 1,13,-1
 951 168 l 1,14,-1
 120 168 l 1,15,-1
 255 366 l 1,12,-1
EndSplineSet
Validated: 1
EndChar

StartChar: uni00B2
Encoding: 178 178 116
Width: 965
GlyphClass: 2
Flags: W
HStem: 680 133<495 847.619> 1380 132<661.654 895.866>
VStem: 920 158<1190.33 1355.99>
LayerCount: 2
Fore
SplineSet
767 1380 m 0,0,1
 719 1380 719 1380 665 1338 c 128,-1,2
 611 1296 611 1296 596 1231 c 1,3,-1
 592 1212 l 1,4,-1
 425 1152 l 1,5,-1
 441 1234 l 1,6,7
 468 1350 468 1350 580 1432 c 0,8,9
 690 1512 690 1512 820 1512 c 0,10,11
 949 1512 949 1512 1023 1431 c 0,12,13
 1078 1371 1078 1371 1078 1293 c 0,14,15
 1078 1265 1078 1265 1071 1234 c 1,16,-1
 1065 1211 l 1,17,-1
 1064 1210 l 1,18,19
 1044 1124 1044 1124 936 1052 c 0,20,21
 865 1005 865 1005 743 969 c 1,22,23
 534 898 534 898 495 813 c 1,24,25
 511 813 511 813 535 813 c 2,26,-1
 603 813 l 1,27,28
 673 818 673 818 799 818 c 0,29,30
 836 818 836 818 848 824 c 0,31,32
 864 832 864 832 876 855 c 1,33,-1
 887 874 l 1,34,-1
 1003 815 l 1,35,-1
 995 800 l 1,36,37
 932 690 932 690 764 682 c 0,38,39
 744 681 744 681 674 681 c 1,40,41
 615 680 615 680 558 680 c 0,42,43
 506 680 506 680 454 680 c 0,44,45
 427 680 427 680 398 691 c 0,46,47
 366 703 366 703 353 723 c 0,48,49
 342 739 342 739 336 764 c 0,50,51
 331 783 331 783 337 809 c 1,52,-1
 337 812 l 1,53,-1
 339 815 l 1,54,55
 427 971 427 971 664 1068 c 1,56,-1
 707 1086 l 1,57,-1
 819 1131 l 1,58,59
 883 1162 883 1162 908 1212 c 1,60,-1
 916 1232 l 1,61,62
 920 1248 920 1248 920 1264 c 0,63,64
 919 1305 919 1305 895 1338 c 0,65,66
 864 1380 864 1380 767 1380 c 0,0,1
EndSplineSet
Validated: 1
EndChar

StartChar: uni00B3
Encoding: 179 179 117
Width: 975
GlyphClass: 2
Flags: W
HStem: 660 140<562.757 811.167> 1368 141<593 882>
VStem: 362 171<849.065 974> 885 161<870.731 1053.97>
LayerCount: 2
Fore
SplineSet
870 1206 m 1,0,1
 901 1197 901 1197 919 1189 c 0,2,3
 960 1171 960 1171 995 1138 c 0,4,5
 1050 1087 1050 1087 1050 999 c 0,6,7
 1050 982 1050 982 1048 965 c 2,8,-1
 1046 953 l 1,9,-1
 1046 952 l 1,10,11
 1019 833 1019 833 900 747 c 0,12,13
 780 660 780 660 640 660 c 0,14,15
 501 660 501 660 422 743 c 0,16,17
 362 806 362 806 362 888 c 0,18,19
 362 916 362 916 369 947 c 2,20,-1
 375 974 l 1,21,-1
 555 1038 l 1,22,-1
 539 975 l 2,23,24
 533 950 533 950 533 928 c 0,25,26
 533 882 533 882 558 848 c 0,27,28
 593 800 593 800 671 800 c 0,29,30
 672 800 672 800 674 800 c 0,31,32
 758 800 758 800 816 847 c 0,33,34
 868 889 868 889 883 950 c 1,35,-1
 884 961 l 2,36,37
 885 968 885 968 885 974 c 0,38,39
 884 1022 884 1022 841 1055 c 0,40,41
 806 1082 806 1082 751 1083 c 0,42,43
 658 1085 658 1085 647 1144 c 0,44,45
 645 1154 645 1154 648 1169 c 0,46,47
 654 1199 654 1199 697 1235 c 1,48,-1
 882 1368 l 1,49,-1
 479 1368 l 1,50,-1
 593 1509 l 1,51,-1
 964 1508 l 2,52,53
 1103 1508 1103 1508 1114 1432 c 0,54,55
 1116 1418 1116 1418 1113 1403 c 0,56,57
 1106 1369 1106 1369 1059 1336 c 2,58,-1
 870 1206 l 1,0,1
EndSplineSet
Validated: 1
EndChar

StartChar: acute
Encoding: 180 180 118
Width: 781
GlyphClass: 2
Flags: W
HStem: 1023 198<432 630> 1347 198<743 941>
VStem: 432 509
DStem2: 432 1221 432 1023 0.84407 0.536233<0 498.041>
LayerCount: 2
Fore
SplineSet
941 1545 m 1,0,-1
 942 1347 l 1,1,-1
 432 1023 l 1,2,-1
 432 1221 l 1,3,-1
 941 1545 l 1,0,-1
EndSplineSet
Validated: 1
EndChar

StartChar: uni00B5
Encoding: 181 181 119
Width: 1118
GlyphClass: 2
Flags: W
HStem: 0 194<482.058 716.194> 925 182<326 434 714 772> 1113 20G<1204.47 1245.36>
DStem2: 36 -278 231.684 -278 0.224951 0.97437<134.334 426.876 788.991 1130.08> 731.378 -278 923.609 -278 0.224951 0.97437<640.857 1351.77>
LayerCount: 2
Fore
SplineSet
36 -278 m 1,0,-1
 230 564 l 2,1,2
 265 716 265 716 355 846 c 0,3,4
 402 914 402 914 434 925 c 1,5,-1
 240 925 l 1,6,-1
 326 1107 l 1,7,-1
 856 1107 l 1,8,-1
 772 925 l 1,9,-1
 714 911 l 2,10,11
 626 889 626 889 563 825 c 0,12,13
 471 732 471 732 433 569 c 1,14,-1
 432 564 l 1,15,16
 417 499 417 499 417 442 c 0,17,18
 418 365 418 365 443 303 c 0,19,20
 487 194 487 194 589 194 c 0,21,22
 685 194 685 194 784 295 c 0,23,24
 889 402 889 402 926 565 c 2,25,-1
 1036 1039 l 1,26,-1
 1250 1133 l 1,27,-1
 1118 564 l 2,28,29
 1083 413 1083 413 993 281 c 0,30,31
 902 148 902 148 784 75 c 0,32,33
 663 0 663 0 544 0 c 0,34,35
 413 0 413 0 338 75 c 0,36,37
 328 85 328 85 318 95 c 1,38,-1
 252 -190 l 1,39,-1
 36 -278 l 1,0,-1
EndSplineSet
Validated: 1
EndChar

StartChar: paragraph
Encoding: 182 182 120
Width: 1138
GlyphClass: 2
Flags: W
HStem: 0 21G<794.632 836.487> 382 193<574.855 808.14> 1315 194<717.953 950.279>
VStem: 300 211<646.064 1036.79> 1016 210<1038.5 1241.78>
DStem2: 790 0 867.458 0 0.224951 0.97437<55.3975 487.57 758.151 1088.75> 913.379 0 984.837 0 0.224951 0.97437<114.6 1114.79>
LayerCount: 2
Fore
SplineSet
790 0 m 1,0,-1
 900 475 l 1,1,2
 883 463 883 463 873 457 c 0,3,4
 746 382 746 382 632 382 c 0,5,6
 513 382 513 382 427 457 c 0,7,8
 344 529 344 529 313 663 c 0,9,10
 300 719 300 719 300 804 c 0,11,12
 300 868 300 868 318 946 c 0,13,14
 352 1095 352 1095 444 1228 c 1,15,16
 533 1359 533 1359 652 1434 c 0,17,18
 770 1509 770 1509 892 1509 c 0,19,20
 1012 1509 1012 1509 1098 1434 c 0,21,22
 1180 1363 1180 1363 1212 1228 c 0,23,24
 1226 1169 1226 1169 1226 1106 c 0,25,26
 1225 1022 1225 1022 1206 946 c 2,27,-1
 1205 942 l 1,28,-1
 1007 96 l 1,29,-1
 927 59 l 1,30,-1
 1172 1087 l 1,31,-1
 1109 1059 l 1,32,-1
 876 37 l 1,33,-1
 790 0 l 1,0,-1
696 575 m 0,34,35
 781 575 781 575 878 684 c 0,36,37
 963 780 963 780 1001 945 c 0,38,39
 1016 1010 1016 1010 1016 1067 c 0,40,41
 1016 1143 1016 1143 990 1206 c 0,42,43
 945 1315 945 1315 846 1315 c 0,44,45
 741 1315 741 1315 650 1206 c 0,46,47
 533 1065 533 1065 519 950 c 0,48,49
 515 918 515 918 513 891 c 0,50,51
 511 859 511 859 511 834 c 0,52,53
 511 752 511 752 539 678 c 0,54,55
 578 575 578 575 696 575 c 0,34,35
EndSplineSet
Validated: 1
EndChar

StartChar: periodcentered
Encoding: 183 183 121
Width: 560
GlyphClass: 2
Flags: W
HStem: 562 264<363.008 519.165>
VStem: 306 268<616.803 769.199>
LayerCount: 2
Fore
SplineSet
310 694 m 1,0,1
 324 750 324 750 370 788 c 128,-1,2
 416 826 416 826 471 826 c 128,-1,3
 526 826 526 826 554 788 c 0,4,5
 574 761 574 761 574 727 c 0,6,7
 574 710 574 710 570 694 c 0,8,9
 556 636 556 636 511 600 c 0,10,11
 464 562 464 562 410 562 c 0,12,13
 354 562 354 562 327 600 c 0,14,15
 306 630 306 630 306 658 c 0,16,17
 306 673 306 673 310 694 c 1,0,1
EndSplineSet
Validated: 1
EndChar

StartChar: cedilla
Encoding: 184 184 122
Width: 1222
GlyphClass: 2
Flags: W
HStem: -386 452
VStem: 377 376
LayerCount: 2
Fore
SplineSet
594 66 m 1,0,-1
 753 -142 l 1,1,-1
 473 -386 l 1,2,-1
 377 -256 l 1,3,-1
 519 -142 l 1,4,-1
 450 -50 l 1,5,-1
 594 66 l 1,0,-1
EndSplineSet
Validated: 1
EndChar

StartChar: uni00B9
Encoding: 185 185 123
Width: 776
GlyphClass: 2
Flags: W
HStem: 1492 20G<587.15 741>
VStem: 331 517
DStem2: 331 1345 455 1304 0.867325 0.497743<87.1408 292.253> 495 675 682.226 675 0.224951 0.97437<94.4581 736.383>
LayerCount: 2
Fore
SplineSet
331 1345 m 1,0,-1
 622 1512 l 1,1,-1
 634 1512 l 2,2,3
 848 1512 848 1512 848 1407 c 0,4,5
 848 1401 848 1401 847 1395 c 2,6,-1
 694 726 l 1,7,-1
 495 675 l 1,8,-1
 654 1368 l 2,9,10
 661 1399 661 1399 623 1401 c 1,11,-1
 455 1304 l 1,12,-1
 331 1345 l 1,0,-1
EndSplineSet
Validated: 1
EndChar

StartChar: ordmasculine
Encoding: 186 186 124
Width: 1083
GlyphClass: 2
Flags: W
HStem: 429 198<315 1010> 679 143<643.995 860.949> 1371 141<746.331 963.519>
VStem: 432 165<869.012 1184.96> 1008 160<1011.55 1325.85>
LayerCount: 2
Fore
SplineSet
998 1114 m 0,0,1
 1008 1154 1008 1154 1008 1191 c 0,2,3
 1007 1245 1007 1245 987 1289 c 0,4,5
 950 1371 950 1371 860 1371 c 0,6,7
 780 1371 780 1371 706 1288 c 0,8,9
 636 1209 636 1209 608 1095 c 0,10,11
 597 1050 597 1050 597 1009 c 0,12,13
 598 949 598 949 620 902 c 0,14,15
 657 823 657 823 738 822 c 1,16,-1
 740 822 l 2,17,18
 830 822 830 822 896 901 c 0,19,20
 966 984 966 984 998 1114 c 0,0,1
445 1086 m 0,21,22
 472 1207 472 1207 543 1304 c 0,23,24
 615 1402 615 1402 706 1457 c 1,25,26
 799 1512 799 1512 897 1512 c 128,-1,27
 995 1512 995 1512 1062 1457 c 128,-1,28
 1129 1402 1129 1402 1155 1304 c 0,29,30
 1168 1255 1168 1255 1168 1203 c 0,31,32
 1168 1150 1168 1150 1155 1095 c 0,33,34
 1129 984 1129 984 1059 887 c 0,35,36
 989 791 989 791 896 735 c 128,-1,37
 803 679 803 679 705 679 c 0,38,39
 613 679 613 679 540 735 c 0,40,41
 470 789 470 789 444 887 c 0,42,43
 432 933 432 933 432 972 c 0,44,45
 432 1028 432 1028 445 1086 c 0,21,22
315 627 m 1,46,-1
 1148 627 l 1,47,-1
 1010 429 l 1,48,-1
 179 429 l 1,49,-1
 315 627 l 1,46,-1
EndSplineSet
Validated: 1
EndChar

StartChar: guillemotright
Encoding: 187 187 125
Width: 1066
GlyphClass: 2
Flags: W
DStem2: 242 348 300 192 0.668573 0.743646<0 466.497> 536 1212 390 1038 0.430358 -0.902658<94.2302 464.659> 604 357 662 201 0.668573 0.743646<0 466.497> 898 1221 752 1047 0.430358 -0.902658<94.2302 464.659>
LayerCount: 2
Fore
SplineSet
300 192 m 1,0,-1
 242 348 l 1,1,-1
 546 702 l 1,2,-1
 390 1038 l 1,3,-1
 536 1212 l 1,4,-1
 772 717 l 1,5,-1
 300 192 l 1,0,-1
662 201 m 1,6,-1
 604 357 l 1,7,-1
 908 711 l 1,8,-1
 752 1047 l 1,9,-1
 898 1221 l 1,10,-1
 1134 726 l 1,11,-1
 662 201 l 1,6,-1
EndSplineSet
Validated: 1
EndChar

StartChar: onequarter
Encoding: 188 188 126
Width: 1663
GlyphClass: 2
Flags: W
HStem: 1 21G<1286.59 1345.55> 219 137<1124 1332 1544 1572> 1492 20G<587.15 741>
DStem2: 223 -132 382 -216 0.581797 0.813334<24.1858 2195.57> 289.296 -216 476.522 -216 0.224951 0.97437<1008.9 1650.82> 331 1345 455 1304 0.867325 0.497743<87.1408 292.253> 952 385 1124 356 0.753273 0.657708<110.489 522.985> 1231.9 -216 1414.59 -216 0.224951 0.97437<327.434 446.368 624.623 873.301>
LayerCount: 2
Fore
SplineSet
1282 1 m 1,0,-1
 1332 219 l 1,1,-1
 1071 219 l 2,2,3
 898 219 898 219 898 289 c 0,4,5
 898 297 898 297 900 305 c 0,6,7
 909 340 909 340 952 384 c 1,8,-1
 952 385 l 1,9,-1
 1488 853 l 1,10,-1
 1505 853 l 2,11,12
 1573 853 1573 853 1606 820 c 0,13,14
 1632 794 1632 794 1632 750 c 0,15,16
 1632 737 1632 737 1630 724 c 1,17,-1
 1630 723 l 1,18,-1
 1544 353 l 1,19,-1
 1695 355 l 1,20,-1
 1572 221 l 1,21,-1
 1514 221 l 1,22,-1
 1479 63 l 1,23,-1
 1282 1 l 1,0,-1
1362 356 m 1,24,-1
 1428 635 l 1,25,-1
 1124 356 l 1,26,-1
 1362 356 l 1,24,-1
331 1345 m 1,27,-1
 622 1512 l 1,28,-1
 634 1512 l 2,29,30
 848 1512 848 1512 848 1407 c 0,31,32
 848 1401 848 1401 847 1395 c 2,33,-1
 694 726 l 1,34,-1
 495 675 l 1,35,-1
 654 1368 l 2,36,37
 661 1399 661 1399 623 1401 c 1,38,-1
 455 1304 l 1,39,-1
 331 1345 l 1,27,-1
223 -132 m 1,40,-1
 1500 1654 l 1,41,-1
 1661 1572 l 1,42,-1
 382 -216 l 1,43,-1
 223 -132 l 1,40,-1
EndSplineSet
Validated: 1
EndChar

StartChar: onehalf
Encoding: 189 189 127
Width: 1783
GlyphClass: 2
Flags: W
HStem: 0 133<1176 1528.62> 700 132<1342.59 1570.84> 1492 20G<587.15 741>
VStem: 1600 159<509.69 666.67>
DStem2: 213 -135 372 -219 0.581797 0.813334<24.1858 2195.57> 288.604 -219 475.83 -219 0.224951 0.97437<1011.97 1653.9> 331 1345 455 1304 0.867325 0.497743<87.1408 292.253>
LayerCount: 2
Fore
SplineSet
1106 472 m 1,0,-1
 1122 554 l 1,1,2
 1149 670 1149 670 1261 752 c 0,3,4
 1371 832 1371 832 1501 832 c 0,5,6
 1630 832 1630 832 1704 751 c 0,7,8
 1759 691 1759 691 1759 613 c 0,9,10
 1759 585 1759 585 1752 554 c 1,11,-1
 1746 531 l 1,12,-1
 1745 530 l 1,13,14
 1725 444 1725 444 1617 372 c 0,15,16
 1546 325 1546 325 1424 289 c 1,17,18
 1215 218 1215 218 1176 133 c 1,19,20
 1196 133 1196 133 1216 133 c 2,21,-1
 1284 133 l 1,22,23
 1354 138 1354 138 1480 138 c 0,24,25
 1517 138 1517 138 1529 144 c 0,26,27
 1543 151 1543 151 1557 175 c 2,28,-1
 1568 194 l 1,29,-1
 1684 135 l 1,30,-1
 1676 120 l 2,31,32
 1613 2 1613 2 1445 2 c 0,33,34
 1425 2 1425 2 1355 1 c 128,-1,35
 1285 0 1285 0 1239 0 c 0,36,37
 1187 0 1187 0 1135 0 c 0,38,39
 1108 0 1108 0 1079 11 c 0,40,41
 1047 23 1047 23 1034 43 c 0,42,43
 1016 70 1016 70 1017 84 c 0,44,45
 1018 103 1018 103 1018 129 c 2,46,-1
 1018 132 l 1,47,-1
 1020 135 l 2,48,49
 1130 300 1130 300 1345 388 c 1,50,-1
 1388 406 l 1,51,-1
 1500 451 l 1,52,53
 1564 482 1564 482 1589 532 c 1,54,-1
 1597 552 l 1,55,56
 1600 567 1600 567 1600 588 c 0,57,58
 1600 627 1600 627 1570 661 c 0,59,60
 1536 700 1536 700 1448 700 c 0,61,62
 1400 700 1400 700 1346 658 c 0,63,64
 1290 615 1290 615 1277 551 c 2,65,-1
 1273 532 l 1,66,-1
 1106 472 l 1,0,-1
331 1345 m 1,67,-1
 622 1512 l 1,68,-1
 634 1512 l 2,69,70
 848 1512 848 1512 848 1407 c 0,71,72
 848 1401 848 1401 847 1395 c 2,73,-1
 694 726 l 1,74,-1
 495 675 l 1,75,-1
 654 1368 l 2,76,77
 661 1399 661 1399 623 1401 c 1,78,-1
 455 1304 l 1,79,-1
 331 1345 l 1,67,-1
213 -135 m 1,80,-1
 1490 1651 l 1,81,-1
 1651 1569 l 1,82,-1
 372 -219 l 1,83,-1
 213 -135 l 1,80,-1
EndSplineSet
Validated: 1
EndChar

StartChar: threequarters
Encoding: 190 190 128
Width: 1905
GlyphClass: 2
Flags: W
HStem: 0 21G<1528.5 1587.23> 218 137<1366 1573 1786 1814> 660 140<562.757 811.167> 1368 141<593 882>
VStem: 362 171<849.065 974> 885 161<870.731 1054.55>
DStem2: 465 -135 624 -219 0.581797 0.813334<24.1858 2195.57> 1473.44 -219 1655.13 -219 0.224951 0.97437<329.262 448.196 626.676 875.129>
LayerCount: 2
Fore
SplineSet
1573 218 m 1,0,-1
 1312 218 l 2,1,2
 1140 218 1140 218 1140 288 c 0,3,4
 1140 296 1140 296 1142 304 c 0,5,6
 1151 339 1151 339 1193 383 c 1,7,-1
 1194 384 l 1,8,-1
 1730 852 l 1,9,-1
 1747 852 l 2,10,11
 1815 852 1815 852 1848 819 c 0,12,13
 1874 793 1874 793 1874 747 c 1,14,15
 1873 735 1873 735 1872 723 c 1,16,-1
 1872 722 l 1,17,-1
 1786 352 l 1,18,-1
 1937 354 l 1,19,-1
 1814 220 l 1,20,-1
 1756 220 l 1,21,-1
 1720 62 l 1,22,-1
 1524 0 l 1,23,-1
 1573 218 l 1,0,-1
1604 355 m 1,24,-1
 1669 634 l 1,25,-1
 1366 355 l 1,26,-1
 1604 355 l 1,24,-1
479 1368 m 1,27,-1
 593 1509 l 1,28,-1
 964 1508 l 2,29,30
 1103 1508 1103 1508 1114 1432 c 0,31,32
 1116 1418 1116 1418 1113 1403 c 0,33,34
 1106 1369 1106 1369 1059 1336 c 2,35,-1
 870 1206 l 1,36,37
 901 1197 901 1197 919 1189 c 0,38,39
 960 1171 960 1171 995 1138 c 0,40,41
 1050 1087 1050 1087 1050 999 c 0,42,43
 1050 982 1050 982 1048 965 c 2,44,-1
 1046 953 l 1,45,-1
 1046 952 l 1,46,47
 1019 833 1019 833 900 747 c 0,48,49
 780 660 780 660 640 660 c 0,50,51
 501 660 501 660 422 743 c 0,52,53
 362 806 362 806 362 888 c 0,54,55
 362 916 362 916 369 947 c 2,56,-1
 375 974 l 1,57,-1
 555 1038 l 1,58,-1
 539 975 l 2,59,60
 533 950 533 950 533 928 c 0,61,62
 533 882 533 882 558 848 c 0,63,64
 593 800 593 800 671 800 c 0,65,66
 672 800 672 800 674 800 c 0,67,68
 758 800 758 800 816 847 c 0,69,70
 868 889 868 889 883 950 c 1,71,-1
 884 961 l 2,72,73
 885 968 885 968 885 974 c 0,74,75
 884 1022 884 1022 841 1055 c 0,76,77
 806 1082 806 1082 751 1083 c 0,78,79
 658 1085 658 1085 647 1144 c 0,80,81
 645 1154 645 1154 648 1169 c 0,82,83
 654 1199 654 1199 697 1235 c 1,84,-1
 882 1368 l 1,85,-1
 479 1368 l 1,27,-1
465 -135 m 1,86,-1
 1742 1651 l 1,87,-1
 1903 1569 l 1,88,-1
 624 -219 l 1,89,-1
 465 -135 l 1,86,-1
EndSplineSet
Validated: 1
EndChar

StartChar: questiondown
Encoding: 191 191 129
Width: 1287
GlyphClass: 2
Flags: W
HStem: 0 185<529.311 859.473> 1250 264<921.008 1077.17>
VStem: 250 201<264.503 567.861> 864 268<1304.8 1457.2>
LayerCount: 2
Fore
SplineSet
868 1382 m 1,0,1
 882 1438 882 1438 928 1476 c 128,-1,2
 974 1514 974 1514 1029 1514 c 128,-1,3
 1084 1514 1084 1514 1112 1476 c 0,4,5
 1132 1449 1132 1449 1132 1415 c 0,6,7
 1132 1398 1132 1398 1128 1382 c 0,8,9
 1114 1324 1114 1324 1069 1288 c 0,10,11
 1022 1250 1022 1250 968 1250 c 0,12,13
 912 1250 912 1250 885 1288 c 0,14,15
 864 1318 864 1318 864 1346 c 0,16,17
 864 1361 864 1361 868 1382 c 1,0,1
1271 590 m 1,18,-1
 1251 493 l 1,19,20
 1204 291 1204 291 1025 144 c 1,21,22
 847 0 847 0 643 0 c 0,23,24
 438 0 438 0 328 144 c 0,25,26
 250 246 250 246 250 377 c 0,27,28
 250 432 250 432 264 493 c 2,29,-1
 274 534 l 1,30,31
 338 687 338 687 477 798 c 0,32,33
 534 844 534 844 736 994 c 0,34,35
 826 1061 826 1061 842 1114 c 2,36,-1
 846 1127 l 1,37,-1
 1061 1220 l 1,38,-1
 1032 1095 l 1,39,40
 972 958 972 958 810 844 c 1,41,-1
 775 822 l 1,42,43
 534 654 534 654 481 544 c 1,44,-1
 462 500 l 1,45,46
 451 454 451 454 451 413 c 0,47,48
 452 331 452 331 491 270 c 0,49,50
 545 185 545 185 695 185 c 1,51,52
 831 186 831 186 929 281 c 0,53,54
 1020 369 1020 369 1050 500 c 1,55,-1
 1053 512 l 1,56,-1
 1271 590 l 1,18,-1
EndSplineSet
Validated: 1
EndChar

StartChar: Oacute
Encoding: 211 211 130
Width: 1424
GlyphClass: 2
Flags: W
HStem: -1 194<631.14 909.844> 1328 190<874.167 1153.7> 1544 198<1065 1263> 1792 198<1247 1445>
VStem: 296 210<340.18 815.022> 1275 201<692.352 1185.66>
DStem2: 1065 1742 1066 1544 0.837435 0.546537<0 346.39>
LayerCount: 2
Fore
SplineSet
1445 1990 m 1,0,-1
 1446 1792 l 1,1,-1
 1066 1544 l 1,2,-1
 1065 1742 l 1,3,-1
 1445 1990 l 1,0,-1
763 193 m 0,4,5
 863 193 863 193 961 268 c 1,6,7
 1070 350 1070 350 1140 476 c 0,8,9
 1209 599 1209 599 1253 754 c 1,10,-1
 1254 760 l 1,11,12
 1275 894 1275 894 1275 980 c 0,13,14
 1275 1017 1275 1017 1271 1045 c 0,15,16
 1252 1179 1252 1179 1188 1252 c 0,17,18
 1121 1328 1121 1328 1024 1328 c 0,19,20
 930 1328 930 1328 825 1252 c 0,21,22
 736 1187 736 1187 651 1049 c 0,23,24
 565 909 565 909 532 778 c 0,25,26
 506 674 506 674 506 572 c 0,27,28
 506 519 506 519 513 468 c 0,29,30
 530 343 530 343 598 268 c 128,-1,31
 666 193 666 193 763 193 c 0,4,5
712 -1 m 0,32,33
 600 -1 600 -1 508 60 c 0,34,35
 418 120 418 120 364 219 c 0,36,37
 317 305 317 305 300 460 c 0,38,39
 296 496 296 496 296 561 c 0,40,41
 296 635 296 635 325 758 c 0,42,43
 362 915 362 915 437 1053 c 0,44,45
 513 1194 513 1194 613 1296 c 0,46,47
 712 1397 712 1397 830 1457 c 0,48,49
 950 1518 950 1518 1062 1518 c 0,50,51
 1173 1518 1173 1518 1266 1457 c 0,52,53
 1354 1400 1354 1400 1409 1296 c 0,54,55
 1460 1199 1460 1199 1473 1053 c 0,56,57
 1476 1018 1476 1018 1476 982 c 0,58,59
 1476 874 1476 874 1449 758 c 0,60,61
 1413 605 1413 605 1337 464 c 0,62,63
 1260 322 1260 322 1161 221 c 0,64,65
 1064 122 1064 122 944 60 c 0,66,67
 826 -1 826 -1 712 -1 c 0,32,33
EndSplineSet
Validated: 1
EndChar

StartChar: multiply
Encoding: 215 215 131
Width: 1092
GlyphClass: 2
Flags: W
HStem: 366 666
DStem2: 252 443 438 366 0.776147 0.630552<95.8108 401.454 628.458 932.064> 592 1032 370 955 0.609646 -0.792674<0 243.214 425.535 667.164>
LayerCount: 2
Fore
SplineSet
438 366 m 1,0,-1
 252 443 l 1,1,-1
 567 699 l 1,2,-1
 370 955 l 1,3,-1
 592 1032 l 1,4,-1
 740 839 l 1,5,-1
 976 1030 l 1,6,-1
 1163 955 l 1,7,-1
 847 699 l 1,8,-1
 1045 443 l 1,9,-1
 823 368 l 1,10,-1
 675 559 l 1,11,-1
 438 366 l 1,0,-1
EndSplineSet
Validated: 1
EndChar

StartChar: oacute
Encoding: 243 243 132
Width: 1088
GlyphClass: 2
Flags: W
HStem: 3 193<484.168 719.631> 936 194<632.643 868.619> 1160 198<807 1005> 1408 198<989 1187>
VStem: 208 210<270.929 641.221> 932 206<485.215 866.087>
DStem2: 807 1358 808 1160 0.837435 0.546537<0 346.39>
LayerCount: 2
Fore
SplineSet
1187 1606 m 1,0,-1
 1188 1408 l 1,1,-1
 808 1160 l 1,2,-1
 807 1358 l 1,3,-1
 1187 1606 l 1,0,-1
589 196 m 0,4,5
 700 196 700 196 785 305 c 0,6,7
 868 412 868 412 913 554 c 1,8,-1
 917 566 l 1,9,10
 932 622 932 622 932 679 c 0,11,12
 931 754 931 754 906 827 c 0,13,14
 869 936 869 936 760 936 c 0,15,16
 657 936 657 936 560 826 c 1,17,18
 467 716 467 716 433 566 c 0,19,20
 418 500 418 500 418 443 c 0,21,22
 418 367 418 367 444 305 c 0,23,24
 490 196 490 196 589 196 c 0,4,5
545 3 m 0,25,26
 427 3 427 3 339 78 c 0,27,28
 254 150 254 150 223 275 c 0,29,30
 208 335 208 335 208 395 c 0,31,32
 208 473 208 473 228 554 c 1,33,34
 266 720 266 720 356 849 c 0,35,36
 447 980 447 980 565 1055 c 128,-1,37
 683 1130 683 1130 805 1130 c 128,-1,38
 927 1130 927 1130 1011 1055 c 0,39,40
 1093 982 1093 982 1124 849 c 0,41,42
 1138 789 1138 789 1138 724 c 0,43,44
 1138 647 1138 647 1119 566 c 0,45,46
 1082 410 1082 410 994 284 c 0,47,48
 902 153 902 153 785 78 c 128,-1,49
 668 3 668 3 545 3 c 0,25,26
EndSplineSet
Validated: 1
EndChar

StartChar: divide
Encoding: 247 247 133
Width: 1083
GlyphClass: 2
Flags: W
HStem: 153 264<516.008 672.165> 600 198<354 1050> 996 264<726.008 881.995>
VStem: 463 264<208.062 364.117> 673 264<1051.72 1207.12>
LayerCount: 2
Fore
SplineSet
463 285 m 0,0,1
 477 341 477 341 523 379 c 128,-1,2
 569 417 569 417 624 417 c 128,-1,3
 679 417 679 417 707 379 c 0,4,5
 727 352 727 352 727 318 c 0,6,7
 727 302 727 302 723 285 c 0,8,9
 709 227 709 227 664 191 c 0,10,11
 617 153 617 153 563 153 c 0,12,13
 507 153 507 153 480 191 c 0,14,15
 462 217 462 217 460 243 c 128,-1,16
 458 269 458 269 463 285 c 0,0,1
673 1128 m 0,17,18
 687 1184 687 1184 733 1222 c 128,-1,19
 779 1260 779 1260 834 1260 c 128,-1,20
 889 1260 889 1260 917 1222 c 0,21,22
 937 1195 937 1195 937 1161 c 0,23,24
 937 1144 937 1144 933 1128 c 0,25,26
 918 1069 918 1069 874 1034 c 0,27,28
 826 996 826 996 773 996 c 0,29,30
 714 996 714 996 690 1034 c 0,31,32
 673 1061 673 1061 671 1088 c 0,33,34
 669 1114 669 1114 673 1128 c 0,17,18
354 798 m 1,35,-1
 1187 798 l 1,36,-1
 1050 600 l 1,37,-1
 219 600 l 1,38,-1
 354 798 l 1,35,-1
EndSplineSet
Validated: 1
EndChar

StartChar: Aogonek
Encoding: 260 260 134
Width: 1405
GlyphClass: 2
Flags: W
HStem: 0 21G<184.62 229.111> 21 182<744 802 1082 1129> 684 192<582 1202> 1303 211<853.624 1121.05>
VStem: 1243 209<875.219 1151.46>
DStem2: 88.1145 -398 288.336 -398 0.224951 0.97437<545.877 1155.47 1352.45 1622.5>
LayerCount: 2
Fore
SplineSet
582 876 m 1,0,-1
 1241 874 l 1,1,2
 1243 899 1243 899 1243 924 c 0,3,4
 1241 986 1241 986 1235 1038 c 0,5,6
 1224 1133 1224 1133 1151 1227 c 0,7,8
 1092 1303 1092 1303 987 1303 c 0,9,10
 889 1303 889 1303 788 1227 c 1,11,-1
 774 1215 l 1,12,13
 691 1146 691 1146 622 1050 c 1,14,-1
 582 876 l 1,0,-1
180 0 m 1,15,-1
 426 1065 l 1,16,17
 492 1203 492 1203 623 1324 c 0,18,19
 701 1396 701 1396 804 1447 c 0,20,21
 939 1514 939 1514 1036 1514 c 0,22,23
 1143 1514 1143 1514 1240 1447 c 0,24,25
 1333 1383 1333 1383 1386 1282 c 0,26,27
 1443 1173 1443 1173 1450 1039 c 0,28,29
 1452 999 1452 999 1452 943 c 0,30,31
 1452 846 1452 846 1431 764 c 0,32,33
 1387 592 1387 592 1322 473 c 0,34,35
 1284 404 1284 404 1183 295 c 0,36,37
 1130 238 1130 238 1082 203 c 1,38,-1
 1276 203 l 1,39,-1
 1191 22 l 1,40,-1
 1263 -76 l 1,41,-1
 1121 -190 l 1,42,-1
 1189 -282 l 1,43,-1
 1046 -398 l 1,44,-1
 887 -190 l 1,45,-1
 1129 21 l 1,46,-1
 660 21 l 1,47,-1
 744 203 l 1,48,-1
 802 217 l 1,49,50
 854 238 854 238 940 301 c 0,51,52
 1044 377 1044 377 1116 496 c 0,53,54
 1167 580 1167 580 1202 684 c 1,55,-1
 538 684 l 1,56,-1
 401 90 l 1,57,-1
 180 0 l 1,15,-1
EndSplineSet
Validated: 1
EndChar

StartChar: aogonek
Encoding: 261 261 135
Width: 1112
GlyphClass: 2
Flags: W
HStem: -1 208<465.124 574.192> 933 194<631.416 868.024>
VStem: 210 202<263.555 645.529> 935 203<461.422 859.645>
LayerCount: 2
Fore
SplineSet
586 0 m 1,0,1
 573 -1 573 -1 561 -1 c 0,2,3
 426 2 426 2 338 75 c 0,4,5
 261 139 261 139 225 281 c 0,6,7
 210 340 210 340 210 406 c 0,8,9
 210 482 210 482 230 564 c 0,10,11
 281 772 281 772 382 908 c 0,12,13
 443 989 443 989 562 1062 c 0,14,15
 669 1127 669 1127 808 1127 c 0,16,17
 930 1127 930 1127 1014 1052 c 0,18,19
 1097 978 1097 978 1127 846 c 0,20,21
 1138 797 1138 797 1138 713 c 0,22,23
 1138 657 1138 657 1122 564 c 0,24,25
 1091 387 1091 387 997 281 c 0,26,27
 931 207 931 207 918 202 c 1,28,-1
 1112 202 l 1,29,-1
 1026 20 l 1,30,-1
 1092 -70 l 1,31,-1
 950 -184 l 1,32,-1
 1018 -276 l 1,33,-1
 875 -392 l 1,34,-1
 716 -184 l 1,35,-1
 950 20 l 1,36,-1
 639 20 l 1,37,-1
 723 206 l 1,38,-1
 727 216 l 1,39,40
 753 265 753 265 789 302 c 0,41,42
 888 404 888 404 919 558 c 2,43,-1
 920 563 l 2,44,45
 935 638 935 638 935 685 c 0,46,47
 935 761 935 761 909 824 c 0,48,49
 864 933 864 933 763 933 c 0,50,51
 656 933 656 933 561 824 c 0,52,53
 471 721 471 721 430 564 c 0,54,55
 412 495 412 495 412 438 c 2,56,-1
 412 432 l 2,57,58
 412 358 412 358 440 292 c 0,59,60
 476 207 476 207 558 207 c 0,61,62
 566 207 566 207 573 208 c 1,63,-1
 586 0 l 1,0,1
EndSplineSet
Validated: 1
EndChar

StartChar: Cacute
Encoding: 262 262 136
Width: 1322
GlyphClass: 2
Flags: W
HStem: -1 190<628.834 903.924> 1328 190<873.199 1157.35> 1544 198<1065 1263> 1792 198<1247 1445>
VStem: 298 211<333.088 825.661>
DStem2: 1065 1742 1066 1544 0.837435 0.546537<0 346.39>
LayerCount: 2
Fore
SplineSet
1445 1990 m 1,0,-1
 1446 1792 l 1,1,-1
 1066 1544 l 1,2,-1
 1065 1742 l 1,3,-1
 1445 1990 l 1,0,-1
1281 472 m 1,4,5
 1236 340 1236 340 1144 224 c 0,6,7
 1071 132 1071 132 944 60 c 0,8,9
 836 -1 836 -1 712 -1 c 0,10,11
 601 -1 601 -1 508 60 c 0,12,13
 417 120 417 120 365 221 c 128,-1,14
 313 322 313 322 301 464 c 0,15,16
 298 499 298 499 298 534 c 0,17,18
 298 642 298 642 325 758 c 0,19,20
 362 917 362 917 437 1054 c 0,21,22
 515 1196 515 1196 613 1296 c 0,23,24
 713 1398 713 1398 830 1458 c 128,-1,25
 947 1518 947 1518 1062 1518 c 0,26,27
 1176 1518 1176 1518 1268 1456 c 1,28,29
 1398 1366 1398 1366 1436 1195 c 1,30,-1
 1440 1166 l 1,31,-1
 1243 1087 l 1,32,33
 1243 1099 1243 1099 1243 1111 c 0,34,35
 1243 1183 1243 1183 1188 1252 c 0,36,37
 1127 1328 1127 1328 1025 1328 c 0,38,39
 927 1328 927 1328 825 1252 c 128,-1,40
 723 1176 723 1176 645 1041 c 0,41,42
 566 904 566 904 530 748 c 0,43,44
 509 657 509 657 509 570 c 0,45,46
 509 516 509 516 515 476 c 0,47,48
 537 330 537 330 596 264 c 0,49,50
 663 189 663 189 756 189 c 0,51,52
 758 189 758 189 760 189 c 0,53,54
 914 189 914 189 1012 349 c 1,55,-1
 1024 373 l 1,56,-1
 1281 472 l 1,4,5
EndSplineSet
Validated: 1
EndChar

StartChar: cacute
Encoding: 263 263 137
Width: 1068
GlyphClass: 2
Flags: W
HStem: -1 193<481.869 706.896> 933 193<636.852 873.079> 1160 198<807 1005> 1408 198<989 1187>
VStem: 211 207<263.609 648.732>
DStem2: 807 1358 808 1160 0.837435 0.546537<0 346.39>
LayerCount: 2
Fore
SplineSet
1187 1606 m 1,0,-1
 1188 1408 l 1,1,-1
 808 1160 l 1,2,-1
 807 1358 l 1,3,-1
 1187 1606 l 1,0,-1
1067 429 m 1,4,5
 1027 332 1027 332 993 280 c 0,6,7
 911 156 911 156 784 74 c 0,8,9
 667 -1 667 -1 547 -1 c 0,10,11
 546 -1 546 -1 544 -1 c 0,12,13
 422 -1 422 -1 338 74 c 0,14,15
 256 147 256 147 225 280 c 0,16,17
 211 340 211 340 211 405 c 0,18,19
 211 481 211 481 230 563 c 0,20,21
 265 715 265 715 355 846 c 0,22,23
 444 976 444 976 564 1052 c 0,24,25
 679 1125 679 1125 804 1126 c 1,26,-1
 807 1126 l 2,27,28
 925 1126 925 1126 1010 1052 c 0,29,30
 1091 982 1091 982 1118 872 c 0,31,32
 1122 856 1122 856 1125 840 c 1,33,-1
 921 758 l 1,34,35
 917 814 917 814 900 850 c 0,36,37
 861 932 861 932 759 933 c 1,38,-1
 757 933 l 2,39,40
 662 933 662 933 563 824 c 0,41,42
 474 726 474 726 438 585 c 2,43,-1
 432 562 l 1,44,45
 418 484 418 484 418 436 c 0,46,47
 418 431 418 431 419 405 c 0,48,49
 422 349 422 349 442 301 c 0,50,51
 487 192 487 192 586 192 c 0,52,53
 587 192 587 192 588 192 c 0,54,55
 675 192 675 192 784 301 c 0,56,57
 792 309 792 309 800 320 c 1,58,-1
 1067 429 l 1,4,5
EndSplineSet
Validated: 1
EndChar

StartChar: Eogonek
Encoding: 280 280 138
Width: 1234
GlyphClass: 2
Flags: W
HStem: 0 195<513.771 904.62> 794 171<724.064 815> 1348 168<767.278 1063.32>
VStem: 228 206<269.408 586.75> 466 199<1024.24 1246.17>
LayerCount: 2
Fore
SplineSet
1241 248 m 1,0,1
 1198 195 1198 195 1140 148 c 0,2,3
 1056 80 1056 80 949 43 c 1,4,-1
 1035 -73 l 1,5,-1
 893 -187 l 1,6,-1
 961 -279 l 1,7,-1
 818 -395 l 1,8,-1
 659 -187 l 1,9,-1
 908 30 l 1,10,11
 800 0 800 0 672 0 c 0,12,13
 407 0 407 0 298 142 c 1,14,15
 228 244 228 244 228 345 c 0,16,17
 228 358 228 358 229 371 c 0,18,19
 235 449 235 449 235 450 c 128,-1,20
 235 451 235 451 242 483 c 0,21,22
 267 596 267 596 316 672 c 0,23,24
 390 787 390 787 533 888 c 1,25,-1
 566 896 l 1,26,27
 470 977 470 977 466 1087 c 0,28,29
 465 1112 465 1112 472 1142 c 2,30,-1
 475 1155 l 2,31,32
 509 1300 509 1300 654 1408 c 0,33,34
 800 1516 800 1516 970 1516 c 0,35,36
 1132 1516 1132 1516 1236 1412 c 0,37,38
 1254 1394 1254 1394 1267 1374 c 1,39,-1
 1099 1264 l 1,40,41
 1090 1280 1090 1280 1075 1295 c 1,42,43
 1016 1348 1016 1348 922 1348 c 0,44,45
 857 1348 857 1348 779 1310 c 0,46,47
 705 1273 705 1273 671 1172 c 2,48,-1
 669 1166 l 1,49,-1
 668 1160 l 2,50,51
 665 1142 665 1142 665 1129 c 0,52,53
 667 1069 667 1069 706 1026 c 0,54,55
 757 970 757 970 870 965 c 0,56,57
 935 962 935 962 966 962 c 0,58,59
 993 962 993 962 1000 964 c 1,60,-1
 815 794 l 1,61,-1
 802 794 l 2,62,63
 646 794 646 794 560 701 c 0,64,65
 480 615 480 615 446 512 c 1,66,-1
 443 497 l 2,67,68
 434 452 434 452 434 412 c 0,69,70
 434 333 434 333 470 280 c 0,71,72
 526 195 526 195 723 195 c 128,-1,73
 920 195 920 195 1036 286 c 0,74,75
 1064 308 1064 308 1086 334 c 1,76,-1
 1241 248 l 1,0,1
EndSplineSet
Validated: 1
EndChar

StartChar: eogonek
Encoding: 281 281 139
Width: 1073
GlyphClass: 2
Flags: W
HStem: 3 193<483.733 656.989> 466 192<658 884.192> 936 194<632.845 887.527>
VStem: 210 207<270.963 648.647> 930 196<703.678 893.483>
LayerCount: 2
Fore
SplineSet
1069 417 m 1,0,1
 1037 346 1037 346 994 284 c 0,2,3
 905 156 905 156 785 78 c 0,4,5
 748 54 748 54 710 38 c 1,6,-1
 794 -76 l 1,7,-1
 652 -190 l 1,8,-1
 720 -282 l 1,9,-1
 577 -398 l 1,10,-1
 418 -190 l 1,11,-1
 658 19 l 1,12,13
 602 3 602 3 545 3 c 0,14,15
 427 3 427 3 339 78 c 128,-1,16
 251 153 251 153 223 279 c 0,17,18
 210 337 210 337 210 413 c 0,19,20
 210 475 210 475 228 554 c 0,21,22
 265 718 265 718 356 849 c 128,-1,23
 447 980 447 980 565 1055 c 0,24,25
 684 1130 684 1130 805 1130 c 0,26,27
 918 1130 918 1130 1011 1055 c 0,28,29
 1111 974 1111 974 1124 849 c 0,30,31
 1126 829 1126 829 1126 801 c 0,32,33
 1126 708 1126 708 1072 628 c 0,34,35
 1005 528 1005 528 812 484 c 0,36,37
 751 470 751 470 584 466 c 1,38,-1
 658 660 l 1,39,40
 687 658 687 658 725 658 c 0,41,42
 752 658 752 658 784 664 c 0,43,44
 909 687 909 687 926 764 c 0,45,46
 930 782 930 782 930 798 c 0,47,48
 931 824 931 824 918 850 c 0,49,50
 875 936 875 936 760 936 c 0,51,52
 657 936 657 936 560 826 c 1,53,54
 470 720 470 720 433 566 c 0,55,56
 417 499 417 499 417 441 c 0,57,58
 417 366 417 366 443 305 c 0,59,60
 489 196 489 196 589 196 c 0,61,62
 690 196 690 196 785 305 c 2,63,-1
 799 321 l 1,64,-1
 1069 417 l 1,0,1
EndSplineSet
Validated: 1
EndChar

StartChar: Lslash
Encoding: 321 321 140
Width: 1110
GlyphClass: 2
Flags: W
HStem: 21 188<456.165 944.023> 927 198<812 1010> 1492 20G<698.333 742.35>
VStem: 250 206<212.301 409.281>
DStem2: 204.594 21 400.821 21 0.224951 0.97437<251.707 513.146 930.053 1437.84> 601 884 548 655 0.862062 0.506803<0 375.238>
LayerCount: 2
Fore
SplineSet
1010 1125 m 1,0,-1
 1011 927 l 1,1,-1
 548 655 l 1,2,-1
 459 273 l 2,3,4
 456 259 456 259 456 249 c 0,5,6
 455 217 455 217 485 214 c 1,7,8
 520 209 520 209 611 209 c 0,9,10
 694 209 694 209 851 214 c 0,11,12
 914 216 914 216 945 230 c 0,13,14
 983 247 983 247 1014 308 c 1,15,-1
 1157 224 l 1,16,17
 1059 37 1059 37 800 23 c 1,18,-1
 457 21 l 1,19,20
 250 21 250 21 250 186 c 0,21,22
 250 209 250 209 254 235 c 1,23,-1
 320 521 l 1,24,-1
 317 519 l 1,25,-1
 316 717 l 1,26,-1
 373 750 l 1,27,-1
 528 1422 l 1,28,-1
 747 1512 l 1,29,-1
 601 884 l 1,30,-1
 1010 1125 l 1,0,-1
EndSplineSet
Validated: 1
EndChar

StartChar: lslash
Encoding: 322 322 141
Width: 656
GlyphClass: 2
Flags: W
HStem: 0 195<387.5 546.703> 519 198<170 368> 927 198<666 864> 1491 20G<715.333 759.379>
VStem: 588 13<238.945 266.595>
DStem2: 170 717 171 519 0.862062 0.506803<0 121.931 550.877 705.562> 216.362 0 413.9 0 0.224951 0.97437<255.306 647.589 1066.9 1458.51>
LayerCount: 2
Fore
SplineSet
171 519 m 1,0,-1
 170 717 l 1,1,-1
 416 861 l 1,2,-1
 545 1421 l 1,3,-1
 764 1511 l 1,4,-1
 645 996 l 1,5,-1
 864 1125 l 1,6,-1
 865 927 l 1,7,-1
 591 766 l 1,8,-1
 467 230 l 1,9,10
 473 195 473 195 514 195 c 0,11,12
 549 195 549 195 588 245 c 0,13,14
 595 254 595 254 601 267 c 1,15,-1
 545 23 l 1,16,17
 494 0 494 0 441 0 c 0,18,19
 334 0 334 0 294 76 c 0,20,21
 265 131 265 131 265 186 c 0,22,23
 265 211 265 211 269 228 c 2,24,-1
 362 631 l 1,25,-1
 171 519 l 1,0,-1
EndSplineSet
Validated: 1
EndChar

StartChar: Nacute
Encoding: 323 323 142
Width: 1404
GlyphClass: 2
Flags: W
HStem: 0 21G<184.62 229.111> 18 182<742 800 1079 1188> 1303 211<854.081 1119.08> 1544 198<1045 1243> 1792 198<1227 1425>
VStem: 1243 210<682.531 1153.89>
DStem2: 180 0 380.222 0 0.224951 0.97437<137.407 1214.91> 1045 1742 1046 1544 0.837435 0.546537<0 346.39>
LayerCount: 2
Fore
SplineSet
1425 1990 m 1,0,-1
 1426 1792 l 1,1,-1
 1046 1544 l 1,2,-1
 1045 1742 l 1,3,-1
 1425 1990 l 1,0,-1
180 0 m 1,4,-1
 426 1065 l 1,5,6
 488 1196 488 1196 623 1324 c 0,7,8
 699 1396 699 1396 804 1447 c 0,9,10
 942 1514 942 1514 1036 1514 c 0,11,12
 1143 1514 1143 1514 1240 1447 c 0,13,14
 1334 1382 1334 1382 1386 1282 c 0,15,16
 1439 1180 1439 1180 1450 1039 c 0,17,18
 1453 1000 1453 1000 1453 962 c 0,19,20
 1453 859 1453 859 1431 764 c 0,21,22
 1395 609 1395 609 1320 470 c 0,23,24
 1274 385 1274 385 1181 292 c 0,25,26
 1122 233 1122 233 1079 200 c 1,27,-1
 1274 200 l 1,28,-1
 1188 18 l 1,29,-1
 658 18 l 1,30,-1
 742 200 l 1,31,-1
 800 214 l 1,32,33
 851 235 851 235 938 298 c 0,34,35
 1040 373 1040 373 1114 493 c 1,36,37
 1191 620 1191 620 1228 778 c 0,38,39
 1243 843 1243 843 1243 919 c 0,40,41
 1243 975 1243 975 1235 1038 c 0,42,43
 1222 1138 1222 1138 1151 1227 c 0,44,45
 1090 1303 1090 1303 987 1303 c 0,46,47
 889 1303 889 1303 788 1227 c 1,48,-1
 774 1215 l 1,49,50
 691 1146 691 1146 622 1050 c 1,51,-1
 401 90 l 1,52,-1
 180 0 l 1,4,-1
EndSplineSet
Validated: 1
EndChar

StartChar: nacute
Encoding: 324 324 143
Width: 1115
GlyphClass: 2
Flags: W
HStem: 0 21G<134.694 175.532> 20 182<606 664 944 1052> 933 194<662.221 894.997> 1162 198<835 1033> 1410 198<1017 1215>
VStem: 961 203<460.987 859.869>
DStem2: 130 0 322.298 0 0.224951 0.97437<139.73 848.321> 835 1360 836 1162 0.837435 0.546537<0 346.39>
LayerCount: 2
Fore
SplineSet
1215 1608 m 1,0,-1
 1216 1410 l 1,1,-1
 836 1162 l 1,2,-1
 835 1360 l 1,3,-1
 1215 1608 l 1,0,-1
130 0 m 1,4,-1
 268 588 l 2,5,6
 309 762 309 762 408 908 c 0,7,8
 472 1002 472 1002 588 1062 c 0,9,10
 714 1127 714 1127 834 1127 c 0,11,12
 952 1127 952 1127 1040 1052 c 0,13,14
 1122 983 1122 983 1153 846 c 0,15,16
 1164 797 1164 797 1164 719 c 0,17,18
 1164 656 1164 656 1148 564 c 0,19,20
 1117 386 1117 386 1023 281 c 0,21,22
 957 207 957 207 944 202 c 1,23,-1
 1138 202 l 1,24,-1
 1052 20 l 1,25,-1
 522 20 l 1,26,-1
 606 202 l 1,27,-1
 664 216 l 2,28,29
 753 238 753 238 815 302 c 0,30,31
 914 403 914 403 945 558 c 2,32,-1
 946 563 l 2,33,34
 961 638 961 638 961 685 c 0,35,36
 961 761 961 761 935 824 c 0,37,38
 890 933 890 933 789 933 c 0,39,40
 694 933 694 933 594 832 c 0,41,42
 490 727 490 727 452 562 c 2,43,-1
 344 94 l 1,44,-1
 130 0 l 1,4,-1
EndSplineSet
Validated: 1
EndChar

StartChar: Sacute
Encoding: 346 346 144
Width: 1241
GlyphClass: 2
Flags: W
HStem: -6 196<514.897 830.041> 1330 182<747.589 1019.2> 1540 198<937 1135> 1788 198<1119 1317>
VStem: 213 215<271.154 358> 421 199<999.358 1202.96>
DStem2: 675 992 530 830 0.936783 -0.34991<-74.4744 461.237> 912.873 -6 1109.49 -6 0.224951 0.97437<329.623 630.286> 937 1738 938 1540 0.837435 0.546537<0 346.39>
LayerCount: 2
Fore
SplineSet
1317 1986 m 1,0,-1
 1318 1788 l 1,1,-1
 938 1540 l 1,2,-1
 937 1738 l 1,3,-1
 1317 1986 l 1,0,-1
213 358 m 1,4,-1
 434 452 l 1,5,6
 428 426 428 426 428 398 c 0,7,8
 428 318 428 318 475 268 c 0,9,10
 548 190 548 190 666 190 c 0,11,12
 680 190 680 190 695 190 c 0,13,14
 798 190 798 190 903 280 c 1,15,16
 1000 372 1000 372 1029 497 c 1,17,-1
 1034 525 l 1,18,19
 1032 634 1032 634 953 672 c 1,20,-1
 530 830 l 1,21,22
 421 885 421 885 421 1030 c 0,23,24
 421 1054 421 1054 424 1081 c 2,25,-1
 426 1098 l 1,26,27
 465 1265 465 1265 615 1389 c 0,28,29
 764 1512 764 1512 934 1512 c 0,30,31
 1085 1512 1085 1512 1184 1410 c 0,32,33
 1248 1344 1248 1344 1260 1258 c 1,34,-1
 1062 1206 l 1,35,36
 1041 1281 1041 1281 988 1308 c 0,37,38
 945 1330 945 1330 892 1330 c 0,39,40
 797 1330 797 1330 731 1274 c 0,41,42
 640 1197 640 1197 626 1128 c 0,43,44
 620 1098 620 1098 620 1072 c 0,45,46
 620 1012 620 1012 675 992 c 0,47,48
 1135 825 1135 825 1155 810 c 0,49,50
 1239 746 1239 746 1239 610 c 0,51,52
 1239 574 1239 574 1233 531 c 1,53,-1
 1224 490 l 1,54,55
 1177 286 1177 286 999 142 c 1,56,57
 818 -6 818 -6 613 -6 c 0,58,59
 609 -6 609 -6 605 -6 c 0,60,61
 402 -6 402 -6 291 136 c 1,62,63
 227 229 227 229 213 337 c 1,64,-1
 213 358 l 1,4,-1
EndSplineSet
Validated: 1
EndChar

StartChar: sacute
Encoding: 347 347 145
Width: 973
GlyphClass: 2
Flags: W
HStem: 0 182<389.274 681.186> 932 174<582.969 812.19> 1162 198<749 947> 1410 198<931 1129>
VStem: 785 200<275.97 427.557>
DStem2: 525 700 420 526 0.960444 -0.278472<-25.4192 338.439> 749 1360 750 1162 0.837435 0.546537<0 346.39>
LayerCount: 2
Fore
SplineSet
1129 1608 m 1,0,-1
 1130 1410 l 1,1,-1
 750 1162 l 1,2,-1
 749 1360 l 1,3,-1
 1129 1608 l 1,0,-1
135 240 m 1,4,-1
 329 322 l 1,5,6
 332 285 332 285 371 243 c 0,7,8
 428 182 428 182 537 182 c 0,9,10
 616 182 616 182 683 225 c 0,11,12
 749 267 749 267 773 328 c 0,13,14
 781 349 781 349 783 358 c 0,15,16
 785 370 785 370 785 379 c 0,17,18
 786 414 786 414 758 428 c 1,19,-1
 420 526 l 1,20,21
 311 572 311 572 311 700 c 1,22,23
 314 733 314 733 320 759 c 0,24,25
 348 886 348 886 455 986 c 0,26,27
 584 1106 584 1106 745 1106 c 0,28,29
 907 1106 907 1106 992 1000 c 0,30,31
 1021 964 1021 964 1032 928 c 1,32,-1
 833 850 l 1,33,34
 822 879 822 879 807 894 c 0,35,36
 768 932 768 932 705 932 c 0,37,38
 704 932 704 932 702 932 c 0,39,40
 631 932 631 932 582 888 c 1,41,42
 532 837 532 837 517 782 c 0,43,44
 513 767 513 767 513 753 c 0,45,46
 514 724 514 724 525 700 c 1,47,-1
 573 684 l 1,48,-1
 790 628 l 1,49,50
 871 602 871 602 929 557 c 1,51,52
 985 515 985 515 985 428 c 0,53,54
 985 396 985 396 977 363 c 0,55,56
 944 223 944 223 819 128 c 0,57,58
 651 0 651 0 495 0 c 0,59,60
 317 0 317 0 208 116 c 0,61,62
 144 184 144 184 135 240 c 1,4,-1
EndSplineSet
Validated: 1
EndChar

StartChar: Zacute
Encoding: 377 377 146
Width: 1221
GlyphClass: 2
Flags: W
HStem: 20 188<404 979.931> 1308 184<588 987.619> 1545 198<881 1079> 1793 198<1063 1261>
VStem: 1074 200<998.109 1218.35>
DStem2: 183 236 404 208 0.74929 0.662242<147.05 1171.78> 881 1743 882 1545 0.837435 0.546537<0 346.39>
LayerCount: 2
Fore
SplineSet
1261 1991 m 1,0,-1
 1262 1793 l 1,1,-1
 882 1545 l 1,2,-1
 881 1743 l 1,3,-1
 1261 1991 l 1,0,-1
438 1308 m 1,4,-1
 588 1492 l 1,5,-1
 877 1491 l 2,6,7
 1088 1491 1088 1491 1197 1346 c 0,8,9
 1274 1244 1274 1244 1274 1114 c 0,10,11
 1274 1059 1274 1059 1260 998 c 2,12,-1
 1250 957 l 1,13,-1
 404 208 l 1,14,-1
 886 210 l 2,15,16
 947 210 947 210 981 228 c 0,17,18
 1019 248 1019 248 1050 309 c 1,19,-1
 1193 225 l 1,20,21
 1094 34 1094 34 833 20 c 1,22,-1
 334 20 l 2,23,24
 132 20 132 20 132 123 c 0,25,26
 132 136 132 136 135 150 c 0,27,28
 145 196 145 196 183 236 c 1,29,30
 183 236 183 236 1061 1012 c 1,31,-1
 1068 1032 l 1,32,33
 1074 1056 1074 1056 1074 1080 c 0,34,35
 1072 1150 1072 1150 1030 1218 c 0,36,37
 974 1308 974 1308 816 1308 c 2,38,-1
 438 1308 l 1,4,-1
EndSplineSet
Validated: 1
EndChar

StartChar: zacute
Encoding: 378 378 147
Width: 963
GlyphClass: 2
Flags: W
HStem: 22 184<394 758.812> 924 180<440 751.86> 1160 198<677 875> 1408 198<859 1057>
VStem: 798 198<741.414 888.231>
DStem2: 135 181 394 206 0.750872 0.660447<210.987 873.65> 677 1358 678 1160 0.837435 0.546537<0 346.39>
LayerCount: 2
Fore
SplineSet
1057 1606 m 1,0,-1
 1058 1408 l 1,1,-1
 678 1160 l 1,2,-1
 677 1358 l 1,3,-1
 1057 1606 l 1,0,-1
323 924 m 1,4,-1
 440 1104 l 1,5,-1
 672 1103 l 2,6,7
 840 1103 840 1103 930 997 c 0,8,9
 996 919 996 919 996 818 c 0,10,11
 996 781 996 781 987 741 c 1,12,-1
 979 711 l 1,13,-1
 394 206 l 1,14,-1
 737 206 l 2,15,16
 765 206 765 206 784 226 c 0,17,18
 798 241 798 241 817 271 c 1,19,-1
 960 202 l 1,20,21
 875 30 875 30 659 22 c 1,22,-1
 259 22 l 2,23,24
 94 22 94 22 94 98 c 1,25,26
 95 108 95 108 97 118 c 0,27,28
 104 151 104 151 135 181 c 1,29,30
 135 181 135 181 791 758 c 1,31,-1
 796 773 l 1,32,33
 798 785 798 785 798 797 c 0,34,35
 797 853 797 853 753 890 c 0,36,37
 717 920 717 920 620 924 c 1,38,-1
 323 924 l 1,4,-1
EndSplineSet
Validated: 1
EndChar

StartChar: Zdotaccent
Encoding: 379 379 148
Width: 1221
GlyphClass: 2
Flags: W
HStem: 20 188<404 979.931> 1308 184<588 987.619> 1602 264<870.008 1024.84>
VStem: 814 267<1657.49 1810.44> 1074 200<998.109 1218.35>
DStem2: 183 236 404 208 0.74929 0.662242<147.05 1171.78>
LayerCount: 2
Fore
SplineSet
817 1734 m 1,0,1
 831 1790 831 1790 877 1828 c 128,-1,2
 923 1866 923 1866 978 1866 c 128,-1,3
 1033 1866 1033 1866 1061 1828 c 0,4,5
 1081 1801 1081 1801 1081 1767 c 0,6,7
 1081 1750 1081 1750 1077 1734 c 0,8,9
 1063 1678 1063 1678 1018 1640 c 128,-1,10
 973 1602 973 1602 917 1602 c 0,11,12
 863 1602 863 1602 834 1640 c 1,13,14
 814 1668 814 1668 814 1695 c 0,15,16
 814 1713 814 1713 817 1734 c 1,0,1
438 1308 m 1,17,-1
 588 1492 l 1,18,-1
 877 1491 l 2,19,20
 1088 1491 1088 1491 1197 1346 c 0,21,22
 1274 1244 1274 1244 1274 1114 c 0,23,24
 1274 1059 1274 1059 1260 998 c 2,25,-1
 1250 957 l 1,26,-1
 404 208 l 1,27,-1
 886 210 l 2,28,29
 947 210 947 210 981 228 c 0,30,31
 1019 248 1019 248 1050 309 c 1,32,-1
 1193 225 l 1,33,34
 1094 34 1094 34 833 20 c 1,35,-1
 334 20 l 2,36,37
 132 20 132 20 132 123 c 0,38,39
 132 136 132 136 135 150 c 0,40,41
 145 196 145 196 183 236 c 1,42,43
 1061 1012 l 1,44,-1
 1068 1032 l 1,45,46
 1074 1056 1074 1056 1074 1080 c 0,47,48
 1072 1150 1072 1150 1030 1218 c 0,49,50
 974 1308 974 1308 816 1308 c 2,51,-1
 438 1308 l 1,17,-1
EndSplineSet
Validated: 1
EndChar

StartChar: zdotaccent
Encoding: 380 380 149
Width: 963
GlyphClass: 2
Flags: W
HStem: 22 184<394 758.812> 924 180<440 751.86> 1246 264<666.008 820.842>
VStem: 610 267<1301.49 1454.44> 798 198<741.414 888.231>
DStem2: 135 181 394 206 0.750872 0.660447<210.987 873.65>
LayerCount: 2
Fore
SplineSet
613 1378 m 1,0,1
 627 1434 627 1434 673 1472 c 128,-1,2
 719 1510 719 1510 774 1510 c 128,-1,3
 829 1510 829 1510 857 1472 c 0,4,5
 877 1445 877 1445 877 1411 c 0,6,7
 877 1394 877 1394 873 1378 c 0,8,9
 859 1322 859 1322 814 1284 c 128,-1,10
 769 1246 769 1246 713 1246 c 0,11,12
 659 1246 659 1246 630 1284 c 1,13,14
 610 1312 610 1312 610 1339 c 0,15,16
 610 1357 610 1357 613 1378 c 1,0,1
323 924 m 1,17,-1
 440 1104 l 1,18,-1
 672 1103 l 2,19,20
 840 1103 840 1103 930 997 c 0,21,22
 996 919 996 919 996 818 c 0,23,24
 996 781 996 781 987 741 c 1,25,-1
 979 711 l 1,26,-1
 394 206 l 1,27,-1
 737 206 l 2,28,29
 765 206 765 206 784 226 c 0,30,31
 798 241 798 241 817 271 c 1,32,-1
 960 202 l 1,33,34
 875 30 875 30 659 22 c 1,35,-1
 259 22 l 2,36,37
 94 22 94 22 94 98 c 1,38,39
 95 108 95 108 97 118 c 0,40,41
 104 151 104 151 135 181 c 1,42,43
 791 758 l 1,44,-1
 796 773 l 1,45,46
 798 785 798 785 798 797 c 0,47,48
 797 853 797 853 753 890 c 0,49,50
 717 920 717 920 620 924 c 1,51,-1
 323 924 l 1,17,-1
EndSplineSet
Validated: 1
EndChar

StartChar: Delta
Encoding: 916 916 150
Width: 1124
GlyphClass: 2
Flags: W
HStem: 0 195<305 897> 1492 20G<970.391 1019.34>
DStem2: 5 0 305 195 0.488042 0.87282<316.612 1377.86> 1018 1512 827 1119 0.0666504 -0.997776<379.396 1303.01>
LayerCount: 2
Fore
SplineSet
5 0 m 1,0,-1
 799 1420 l 1,1,-1
 1018 1512 l 1,2,-1
 1119 0 l 1,3,-1
 5 0 l 1,0,-1
305 195 m 1,4,-1
 897 198 l 1,5,-1
 827 1119 l 1,6,-1
 305 195 l 1,4,-1
EndSplineSet
Validated: 1
EndChar

StartChar: Pi
Encoding: 928 928 151
Width: 1275
GlyphClass: 2
Flags: W
HStem: 0 21G<204.614 247.609 881.569 924.609> 1287 204<694 1171>
VStem: 544 872<619 1491>
DStem2: 200 0 397.76 0 0.224951 0.97437<138.906 1365.14> 877 0 1074.76 0 0.224951 0.97437<138.906 1320.15>
LayerCount: 2
Fore
SplineSet
544 1491 m 1,0,-1
 1416 1491 l 1,1,-1
 1096 92 l 1,2,-1
 877 0 l 1,3,-1
 1171 1287 l 1,4,-1
 694 1287 l 1,5,-1
 419 92 l 1,6,-1
 200 0 l 1,7,-1
 544 1491 l 1,0,-1
EndSplineSet
Validated: 1
EndChar

StartChar: Sigma
Encoding: 931 931 152
Width: 1155
GlyphClass: 2
Flags: W
HStem: 20 193<541 958> 1302 190<769 1155>
DStem2: 156 20 541 213 0.615443 0.788181<389.065 966.783> 769 1302 479 1422 0.391141 -0.920331<0 471.532>
LayerCount: 2
Fore
SplineSet
984 780 m 1,0,-1
 541 213 l 1,1,-1
 1084 210 l 1,2,-1
 958 20 l 1,3,-1
 156 20 l 1,4,-1
 751 782 l 1,5,-1
 479 1422 l 1,6,-1
 655 1492 l 1,7,-1
 1290 1491 l 1,8,-1
 1155 1299 l 1,9,-1
 769 1302 l 1,10,-1
 984 780 l 1,0,-1
EndSplineSet
Validated: 1
EndChar

StartChar: Omega
Encoding: 937 937 153
Width: 1504
GlyphClass: 2
Flags: W
HStem: 20 203<176 348 1146 1291> 1328 190<858.503 1139.82>
VStem: 283 211<340.144 827.247> 1263 198<690.196 1179.79>
LayerCount: 2
Fore
SplineSet
40 20 m 1,0,-1
 176 223 l 1,1,-1
 348 223 l 1,2,3
 298 324 298 324 286 464 c 0,4,5
 283 499 283 499 283 534 c 0,6,7
 283 642 283 642 310 758 c 0,8,9
 347 919 347 919 422 1054 c 0,10,11
 499 1194 499 1194 598 1296 c 0,12,13
 698 1399 698 1399 815 1458 c 0,14,15
 934 1518 934 1518 1047 1518 c 0,16,17
 1161 1518 1161 1518 1251 1458 c 128,-1,18
 1341 1398 1341 1398 1394 1296 c 0,19,20
 1445 1198 1445 1198 1458 1054 c 0,21,22
 1461 1020 1461 1020 1461 986 c 0,23,24
 1459 870 1459 870 1434 758 c 0,25,26
 1400 606 1400 606 1322 464 c 0,27,28
 1243 320 1243 320 1146 222 c 1,29,-1
 1429 222 l 1,30,-1
 1291 21 l 1,31,-1
 829 20 l 1,32,-1
 875 221 l 1,33,34
 899 233 899 233 946 268 c 0,35,36
 1044 341 1044 341 1125 476 c 0,37,38
 1202 604 1202 604 1239 760 c 0,39,40
 1263 861 1263 861 1263 952 c 1,41,42
 1262 1002 1262 1002 1256 1045 c 0,43,44
 1239 1175 1239 1175 1173 1252 c 0,45,46
 1108 1328 1108 1328 1010 1328 c 128,-1,47
 912 1328 912 1328 810 1252 c 1,48,49
 711 1176 711 1176 632 1045 c 0,50,51
 555 917 555 917 518 760 c 0,52,53
 494 658 494 658 494 566 c 0,54,55
 494 520 494 520 500 476 c 0,56,57
 514 357 514 357 583 268 c 0,58,59
 607 237 607 237 625 223 c 1,60,-1
 579 20 l 1,61,-1
 40 20 l 1,0,-1
EndSplineSet
Validated: 1
EndChar

StartChar: mu
Encoding: 956 956 154
Width: 1118
GlyphClass: 2
Flags: W
HStem: 0 194<482.058 716.194> 925 182<326 434 714 772> 1113 20G<1204.47 1245.36>
DStem2: 36 -278 231.684 -278 0.224951 0.97437<134.334 426.876 788.991 1130.08> 731.378 -278 923.609 -278 0.224951 0.97437<640.857 1351.77>
LayerCount: 2
Fore
SplineSet
36 -278 m 1,0,-1
 230 564 l 2,1,2
 265 716 265 716 355 846 c 0,3,4
 402 914 402 914 434 925 c 1,5,-1
 240 925 l 1,6,-1
 326 1107 l 1,7,-1
 856 1107 l 1,8,-1
 772 925 l 1,9,-1
 714 911 l 2,10,11
 626 889 626 889 563 825 c 0,12,13
 471 732 471 732 433 569 c 1,14,-1
 432 564 l 1,15,16
 417 499 417 499 417 442 c 0,17,18
 418 365 418 365 443 303 c 0,19,20
 487 194 487 194 589 194 c 0,21,22
 685 194 685 194 784 295 c 0,23,24
 889 402 889 402 926 565 c 2,25,-1
 1036 1039 l 1,26,-1
 1250 1133 l 1,27,-1
 1118 564 l 2,28,29
 1083 413 1083 413 993 281 c 0,30,31
 902 148 902 148 784 75 c 0,32,33
 663 0 663 0 544 0 c 0,34,35
 413 0 413 0 338 75 c 0,36,37
 328 85 328 85 318 95 c 1,38,-1
 252 -190 l 1,39,-1
 36 -278 l 1,0,-1
EndSplineSet
Validated: 1
EndChar

StartChar: pi
Encoding: 960 960 155
Width: 1136
GlyphClass: 2
Flags: W
HStem: 0 21G<135.592 178.609 812.521 855.609> 898 204<534 1011>
VStem: 384 872<230 1102>
DStem2: 131 0 328.76 0 0.224951 0.97437<138.906 965.64> 808 0 1005.76 0 0.224951 0.97437<138.906 920.649>
LayerCount: 2
Fore
SplineSet
384 1102 m 1,0,-1
 1256 1102 l 1,1,-1
 1027 92 l 1,2,-1
 808 0 l 1,3,-1
 1011 898 l 1,4,-1
 534 898 l 1,5,-1
 350 92 l 1,6,-1
 131 0 l 1,7,-1
 384 1102 l 1,0,-1
EndSplineSet
Validated: 1
EndChar

StartChar: uni2010
Encoding: 8208 8208 156
Width: 1083
GlyphClass: 2
Flags: W
HStem: 600 198<434 970>
LayerCount: 2
Fore
SplineSet
434 798 m 1,0,-1
 1107 798 l 1,1,-1
 970 600 l 1,2,-1
 299 600 l 1,3,-1
 434 798 l 1,0,-1
EndSplineSet
Validated: 1
EndChar

StartChar: uni2011
Encoding: 8209 8209 157
Width: 1083
GlyphClass: 2
Flags: W
HStem: 600 198<434 970>
LayerCount: 2
Fore
SplineSet
434 798 m 1,0,-1
 1107 798 l 1,1,-1
 970 600 l 1,2,-1
 299 600 l 1,3,-1
 434 798 l 1,0,-1
EndSplineSet
Validated: 1
EndChar

StartChar: figuredash
Encoding: 8210 8210 158
Width: 1083
GlyphClass: 2
Flags: W
HStem: 600 198<354 1050>
LayerCount: 2
Fore
SplineSet
354 798 m 1,0,-1
 1187 798 l 1,1,-1
 1050 600 l 1,2,-1
 219 600 l 1,3,-1
 354 798 l 1,0,-1
EndSplineSet
Validated: 1
EndChar

StartChar: endash
Encoding: 8211 8211 159
Width: 1083
GlyphClass: 2
Flags: W
HStem: 600 198<354 1050>
LayerCount: 2
Fore
SplineSet
354 798 m 1,0,-1
 1187 798 l 1,1,-1
 1050 600 l 1,2,-1
 219 600 l 1,3,-1
 354 798 l 1,0,-1
EndSplineSet
Validated: 1
EndChar

StartChar: emdash
Encoding: 8212 8212 160
Width: 1093
GlyphClass: 2
Flags: W
HStem: 598 198<279 1134>
LayerCount: 2
Fore
SplineSet
279 796 m 1,0,-1
 1272 796 l 1,1,-1
 1134 598 l 1,2,-1
 143 598 l 1,3,-1
 279 796 l 1,0,-1
EndSplineSet
Validated: 1
EndChar

StartChar: afii00208
Encoding: 8213 8213 161
Width: 1093
GlyphClass: 2
Flags: W
HStem: 598 198<279 1134>
LayerCount: 2
Fore
SplineSet
279 796 m 1,0,-1
 1272 796 l 1,1,-1
 1134 598 l 1,2,-1
 143 598 l 1,3,-1
 279 796 l 1,0,-1
EndSplineSet
Validated: 1
EndChar

StartChar: underscoredbl
Encoding: 8215 8215 162
Width: 1083
GlyphClass: 2
Flags: W
HStem: -410 198<121 816>
LayerCount: 2
Fore
SplineSet
121 -212 m 1,0,-1
 954 -212 l 1,1,-1
 816 -410 l 1,2,-1
 -15 -410 l 1,3,-1
 121 -212 l 1,0,-1
EndSplineSet
Validated: 1
EndChar

StartChar: quoteleft
Encoding: 8216 8216 163
Width: 648
GlyphClass: 2
Flags: W
HStem: 967 542
VStem: 479 262
DStem2: 687 1509 479 1424 0.115202 -0.993342<60.4721 459.185>
LayerCount: 2
Fore
SplineSet
687 1509 m 1,0,-1
 741 1053 l 1,1,-1
 532 967 l 1,2,-1
 479 1424 l 1,3,-1
 687 1509 l 1,0,-1
EndSplineSet
Validated: 1
EndChar

StartChar: quoteright
Encoding: 8217 8217 164
Width: 648
GlyphClass: 2
Flags: W
HStem: 973 542
VStem: 394 434
DStem2: 394 1059 564 973 0.500214 0.865902<10.5689 527.408>
LayerCount: 2
Fore
SplineSet
659 1515 m 1,0,-1
 828 1430 l 1,1,-1
 564 973 l 1,2,-1
 394 1059 l 1,3,-1
 659 1515 l 1,0,-1
EndSplineSet
Validated: 1
EndChar

StartChar: quotesinglbase
Encoding: 8218 8218 165
Width: 648
GlyphClass: 2
Flags: W
HStem: -434 542
VStem: 70 433
DStem2: 70 -348 239 -434 0.500214 0.865902<10.0687 526.908>
LayerCount: 2
Fore
SplineSet
334 108 m 1,0,-1
 503 23 l 1,1,-1
 239 -434 l 1,2,-1
 70 -348 l 1,3,-1
 334 108 l 1,0,-1
EndSplineSet
Validated: 1
EndChar

StartChar: quotereversed
Encoding: 8219 8219 166
Width: 648
GlyphClass: 2
Flags: W
HStem: 973 542
VStem: 480 262
DStem2: 689 1515 480 1430 0.117346 -0.993091<59.8875 459.069>
LayerCount: 2
Fore
SplineSet
689 1515 m 1,0,-1
 742 1059 l 1,1,-1
 534 973 l 1,2,-1
 480 1430 l 1,3,-1
 689 1515 l 1,0,-1
EndSplineSet
Validated: 1
EndChar

StartChar: quotedblleft
Encoding: 8220 8220 167
Width: 972
GlyphClass: 2
Flags: W
HStem: 970 542
VStem: 479 587
DStem2: 688 1512 479 1427 0.117346 -0.993091<59.8875 459.186> 1012 1512 803 1427 0.117346 -0.993091<59.8875 459.186>
LayerCount: 2
Fore
SplineSet
1012 1512 m 1,0,-1
 1066 1056 l 1,1,-1
 857 970 l 1,2,-1
 803 1427 l 1,3,-1
 1012 1512 l 1,0,-1
688 1512 m 1,4,-1
 742 1056 l 1,5,-1
 533 970 l 1,6,-1
 479 1427 l 1,7,-1
 688 1512 l 1,4,-1
EndSplineSet
Validated: 1
EndChar

StartChar: quotedblright
Encoding: 8221 8221 168
Width: 972
GlyphClass: 2
Flags: W
HStem: 979 542
DStem2: 396 1065 565 979 0.501633 0.86508<10.3791 526.908> 720 1065 889 979 0.501633 0.86508<10.3791 526.908>
LayerCount: 2
Fore
SplineSet
660 1521 m 1,0,-1
 830 1436 l 1,1,-1
 565 979 l 1,2,-1
 396 1065 l 1,3,-1
 660 1521 l 1,0,-1
984 1521 m 1,4,-1
 1154 1436 l 1,5,-1
 889 979 l 1,6,-1
 720 1065 l 1,7,-1
 984 1521 l 1,4,-1
EndSplineSet
Validated: 1
EndChar

StartChar: quotedblbase
Encoding: 8222 8222 169
Width: 972
GlyphClass: 2
Flags: W
HStem: -432 542
DStem2: 70 -346 239 -432 0.501633 0.86508<10.3791 526.908> 394 -346 563 -432 0.501633 0.86508<10.3791 526.908>
LayerCount: 2
Fore
SplineSet
334 110 m 1,0,-1
 504 25 l 1,1,-1
 239 -432 l 1,2,-1
 70 -346 l 1,3,-1
 334 110 l 1,0,-1
658 110 m 1,4,-1
 828 25 l 1,5,-1
 563 -432 l 1,6,-1
 394 -346 l 1,7,-1
 658 110 l 1,4,-1
EndSplineSet
Validated: 1
EndChar

StartChar: uni201F
Encoding: 8223 8223 170
Width: 972
GlyphClass: 2
Flags: W
HStem: 973 542
VStem: 480 586
DStem2: 689 1515 480 1430 0.117346 -0.993091<59.8875 459.069> 1013 1515 804 1430 0.117346 -0.993091<59.8875 459.069>
LayerCount: 2
Fore
SplineSet
1013 1515 m 1,0,-1
 1066 1059 l 1,1,-1
 858 973 l 1,2,-1
 804 1430 l 1,3,-1
 1013 1515 l 1,0,-1
689 1515 m 1,4,-1
 742 1059 l 1,5,-1
 534 973 l 1,6,-1
 480 1430 l 1,7,-1
 689 1515 l 1,4,-1
EndSplineSet
Validated: 1
EndChar

StartChar: dagger
Encoding: 8224 8224 171
Width: 1083
GlyphClass: 2
Flags: W
HStem: 1 21G<447.596 491.667> 954 198<436 662 906 1131> 1494 20G<942.174 985.359>
DStem2: 443 1 641.222 1 0.224951 0.97437<136.958 977.839 1225.65 1458.14>
LayerCount: 2
Fore
SplineSet
662 91 m 1,0,-1
 443 1 l 1,1,-1
 662 954 l 1,2,-1
 300 954 l 1,3,-1
 436 1152 l 1,4,-1
 708 1152 l 1,5,-1
 770 1422 l 1,6,-1
 990 1514 l 1,7,-1
 906 1152 l 1,8,-1
 1269 1152 l 1,9,-1
 1131 954 l 1,10,-1
 860 954 l 1,11,-1
 662 91 l 1,0,-1
EndSplineSet
Validated: 1
EndChar

StartChar: daggerdbl
Encoding: 8225 8225 172
Width: 1084
GlyphClass: 2
Flags: W
HStem: 1 21G<447.641 491.667> 363 198<301 527 771 996> 954 198<436 662 906 1131> 1494 20G<942.174 985.359>
DStem2: 443 1 641.222 1 0.224951 0.97437<136.958 371.618 619.431 977.839 1225.65 1458.14>
LayerCount: 2
Fore
SplineSet
771 561 m 1,0,-1
 1134 561 l 1,1,-1
 996 363 l 1,2,-1
 725 363 l 1,3,-1
 662 91 l 1,4,-1
 443 1 l 1,5,-1
 527 363 l 1,6,-1
 165 363 l 1,7,-1
 301 561 l 1,8,-1
 573 561 l 1,9,-1
 662 954 l 1,10,-1
 300 954 l 1,11,-1
 436 1152 l 1,12,-1
 708 1152 l 1,13,-1
 770 1422 l 1,14,-1
 990 1514 l 1,15,-1
 906 1152 l 1,16,-1
 1269 1152 l 1,17,-1
 1131 954 l 1,18,-1
 860 954 l 1,19,-1
 771 561 l 1,0,-1
EndSplineSet
Validated: 1
EndChar

StartChar: bullet
Encoding: 8226 8226 173
Width: 880
GlyphClass: 2
Flags: W
HStem: 410 572<501.845 699.234>
VStem: 303 596<604.172 789.511>
LayerCount: 2
Fore
SplineSet
311 696 m 0,0,1
 338 814 338 814 442 898 c 128,-1,2
 546 982 546 982 667 982 c 0,3,4
 786 982 786 982 852 898 c 0,5,6
 899 838 899 838 899 762 c 0,7,8
 899 731 899 731 891 696 c 0,9,10
 864 579 864 579 759 494 c 0,11,12
 655 410 655 410 535 410 c 0,13,14
 408 410 408 410 345 496 c 0,15,16
 303 553 303 553 303 621 c 0,17,18
 303 622 303 622 303 624 c 0,19,20
 303 658 303 658 311 696 c 0,0,1
EndSplineSet
Validated: 1
EndChar

StartChar: uni2023
Encoding: 8227 8227 174
Width: 878
GlyphClass: 2
Flags: W
LayerCount: 2
Fore
SplineSet
218 296 m 1,0,-1
 398 1075 l 1,1,-1
 940 700 l 1,2,-1
 218 296 l 1,0,-1
EndSplineSet
Validated: 1
EndChar

StartChar: onedotenleader
Encoding: 8228 8228 175
Width: 560
GlyphClass: 2
Flags: W
HStem: 0 264<233.008 389.165>
VStem: 176 268<54.8027 207.199>
LayerCount: 2
Fore
SplineSet
180 132 m 1,0,1
 194 188 194 188 240 226 c 128,-1,2
 286 264 286 264 341 264 c 128,-1,3
 396 264 396 264 424 226 c 0,4,5
 444 199 444 199 444 165 c 0,6,7
 444 148 444 148 440 132 c 0,8,9
 426 74 426 74 381 38 c 0,10,11
 334 0 334 0 280 0 c 0,12,13
 224 0 224 0 197 38 c 0,14,15
 176 68 176 68 176 96 c 0,16,17
 176 111 176 111 180 132 c 1,0,1
EndSplineSet
Validated: 1
EndChar

StartChar: twodotenleader
Encoding: 8229 8229 176
Width: 976
GlyphClass: 2
Flags: W
HStem: 0 264<234.008 390.165 649.008 804.995>
VStem: 177 268<54.8027 207.199> 592 268<55.7246 207.199>
LayerCount: 2
Fore
SplineSet
596 132 m 0,0,1
 610 188 610 188 656 226 c 128,-1,2
 702 264 702 264 757 264 c 128,-1,3
 812 264 812 264 840 226 c 0,4,5
 860 199 860 199 860 165 c 0,6,7
 860 148 860 148 856 132 c 0,8,9
 841 73 841 73 797 38 c 0,10,11
 749 0 749 0 696 0 c 0,12,13
 640 0 640 0 613 38 c 0,14,15
 592 68 592 68 592 94 c 0,16,17
 592 114 592 114 596 132 c 0,0,1
181 132 m 1,18,19
 195 188 195 188 241 226 c 128,-1,20
 287 264 287 264 342 264 c 128,-1,21
 397 264 397 264 425 226 c 0,22,23
 445 199 445 199 445 165 c 0,24,25
 445 148 445 148 441 132 c 0,26,27
 427 74 427 74 382 38 c 0,28,29
 335 0 335 0 281 0 c 0,30,31
 225 0 225 0 198 38 c 0,32,33
 177 68 177 68 177 96 c 0,34,35
 177 111 177 111 181 132 c 1,18,19
EndSplineSet
Validated: 1
EndChar

StartChar: ellipsis
Encoding: 8230 8230 177
Width: 1390
GlyphClass: 2
Flags: W
HStem: 0 264<234.008 390.165 649.008 804.995 1063.01 1219>
VStem: 177 268<54.8027 207.199> 592 268<55.7246 207.199> 1006 268<55.7246 207.199>
LayerCount: 2
Fore
SplineSet
1010 132 m 0,0,1
 1024 188 1024 188 1070 226 c 128,-1,2
 1116 264 1116 264 1171 264 c 128,-1,3
 1226 264 1226 264 1254 226 c 0,4,5
 1274 199 1274 199 1274 165 c 0,6,7
 1274 148 1274 148 1270 132 c 0,8,9
 1255 73 1255 73 1211 38 c 0,10,11
 1163 0 1163 0 1110 0 c 0,12,13
 1054 0 1054 0 1027 38 c 0,14,15
 1006 68 1006 68 1006 94 c 0,16,17
 1006 114 1006 114 1010 132 c 0,0,1
596 132 m 0,18,19
 610 188 610 188 656 226 c 128,-1,20
 702 264 702 264 757 264 c 128,-1,21
 812 264 812 264 840 226 c 0,22,23
 860 199 860 199 860 165 c 0,24,25
 860 148 860 148 856 132 c 0,26,27
 841 73 841 73 797 38 c 0,28,29
 749 0 749 0 696 0 c 0,30,31
 640 0 640 0 613 38 c 0,32,33
 592 68 592 68 592 92 c 0,34,35
 592 114 592 114 596 132 c 0,18,19
181 132 m 1,36,37
 195 188 195 188 241 226 c 128,-1,38
 287 264 287 264 342 264 c 128,-1,39
 397 264 397 264 425 226 c 0,40,41
 445 199 445 199 445 165 c 0,42,43
 445 148 445 148 441 132 c 0,44,45
 427 74 427 74 382 38 c 0,46,47
 335 0 335 0 281 0 c 0,48,49
 225 0 225 0 198 38 c 0,50,51
 177 68 177 68 177 96 c 0,52,53
 177 111 177 111 181 132 c 1,36,37
EndSplineSet
Validated: 1
EndChar

StartChar: uni2027
Encoding: 8231 8231 178
Width: 560
GlyphClass: 2
Flags: W
HStem: 562 264<363.008 519.165>
VStem: 306 268<616.803 769.199>
LayerCount: 2
Fore
SplineSet
310 694 m 1,0,1
 324 750 324 750 370 788 c 128,-1,2
 416 826 416 826 471 826 c 128,-1,3
 526 826 526 826 554 788 c 0,4,5
 574 761 574 761 574 727 c 0,6,7
 574 710 574 710 570 694 c 0,8,9
 556 636 556 636 511 600 c 0,10,11
 464 562 464 562 410 562 c 0,12,13
 354 562 354 562 327 600 c 0,14,15
 306 630 306 630 306 658 c 0,16,17
 306 673 306 673 310 694 c 1,0,1
EndSplineSet
Validated: 1
EndChar

StartChar: perthousand
Encoding: 8240 8240 179
Width: 2399
GlyphClass: 2
Flags: W
HStem: 0 151<1262.59 1455.59 1925.59 2118.59> 539 150<1328.43 1523.36 1991.43 2186.36> 822 151<564.593 757.593> 1361 150<630.427 825.357>
VStem: 374 165<995.736 1252.68> 847 161<1075.93 1340.33> 1072 165<173.736 430.681> 1545 161<253.928 518.326> 1735 165<173.736 430.681> 2208 161<253.928 518.326>
DStem2: 288 -135 447 -219 0.581797 0.813334<24.1858 2195.57>
LayerCount: 2
Fore
SplineSet
2088 539 m 0,0,1
 2030 539 2030 539 1980 484 c 0,2,3
 1924 422 1924 422 1907 346 c 0,4,5
 1900 315 1900 315 1900 287 c 0,6,7
 1900 285 1900 285 1900 283 c 0,8,9
 1900 242 1900 242 1918 208 c 0,10,11
 1948 151 1948 151 2009 151 c 0,12,13
 2080 151 2080 151 2130 207 c 0,14,15
 2181 265 2181 265 2200 344 c 0,16,17
 2208 378 2208 378 2208 408 c 0,18,19
 2208 410 2208 410 2208 413 c 0,20,21
 2208 446 2208 446 2195 478 c 0,22,23
 2170 539 2170 539 2088 539 c 0,0,1
2356 336 m 0,24,25
 2333 240 2333 240 2278 168 c 0,26,27
 2224 97 2224 97 2138 46 c 0,28,29
 2060 0 2060 0 1974 0 c 0,30,31
 1898 0 1898 0 1832 46 c 0,32,33
 1768 91 1768 91 1744 169 c 0,34,35
 1735 199 1735 199 1735 237 c 0,36,37
 1735 281 1735 281 1748 337 c 0,38,39
 1772 440 1772 440 1830 517 c 0,40,41
 1892 599 1892 599 1969 643 c 0,42,43
 2050 689 2050 689 2133 689 c 0,44,45
 2208 689 2208 689 2275 643 c 0,46,47
 2336 601 2336 601 2358 522 c 0,48,49
 2369 483 2369 483 2369 436 c 0,50,51
 2369 388 2369 388 2356 336 c 0,24,25
727 1361 m 0,52,53
 669 1361 669 1361 619 1306 c 0,54,55
 563 1244 563 1244 546 1168 c 0,56,57
 539 1137 539 1137 539 1109 c 0,58,59
 539 1107 539 1107 539 1105 c 0,60,61
 539 1064 539 1064 557 1030 c 0,62,63
 587 973 587 973 648 973 c 0,64,65
 719 973 719 973 769 1029 c 0,66,67
 820 1087 820 1087 839 1166 c 0,68,69
 847 1200 847 1200 847 1230 c 0,70,71
 847 1232 847 1232 847 1235 c 0,72,73
 847 1268 847 1268 834 1300 c 0,74,75
 809 1361 809 1361 727 1361 c 0,52,53
995 1158 m 0,76,77
 972 1062 972 1062 917 990 c 0,78,79
 863 919 863 919 777 868 c 0,80,81
 699 822 699 822 613 822 c 0,82,83
 537 822 537 822 471 868 c 0,84,85
 407 913 407 913 383 991 c 0,86,87
 374 1021 374 1021 374 1059 c 0,88,89
 374 1103 374 1103 387 1159 c 0,90,91
 411 1262 411 1262 469 1339 c 0,92,93
 531 1421 531 1421 608 1465 c 0,94,95
 689 1511 689 1511 772 1511 c 0,96,97
 847 1511 847 1511 914 1465 c 0,98,99
 975 1423 975 1423 997 1344 c 0,100,101
 1008 1305 1008 1305 1008 1258 c 0,102,103
 1008 1210 1008 1210 995 1158 c 0,76,77
1425 539 m 0,104,105
 1367 539 1367 539 1317 484 c 0,106,107
 1261 422 1261 422 1244 346 c 0,108,109
 1237 315 1237 315 1237 287 c 0,110,111
 1237 285 1237 285 1237 283 c 0,112,113
 1237 242 1237 242 1255 208 c 0,114,115
 1285 151 1285 151 1346 151 c 0,116,117
 1417 151 1417 151 1467 207 c 0,118,119
 1518 265 1518 265 1537 344 c 0,120,121
 1545 378 1545 378 1545 408 c 0,122,123
 1545 410 1545 410 1545 413 c 0,124,125
 1545 446 1545 446 1532 478 c 0,126,127
 1507 539 1507 539 1425 539 c 0,104,105
1693 336 m 0,128,129
 1670 240 1670 240 1615 168 c 0,130,131
 1561 97 1561 97 1475 46 c 0,132,133
 1397 0 1397 0 1311 0 c 0,134,135
 1235 0 1235 0 1169 46 c 0,136,137
 1105 91 1105 91 1081 169 c 0,138,139
 1072 199 1072 199 1072 237 c 0,140,141
 1072 281 1072 281 1085 337 c 0,142,143
 1109 440 1109 440 1167 517 c 0,144,145
 1229 599 1229 599 1306 643 c 0,146,147
 1387 689 1387 689 1470 689 c 0,148,149
 1545 689 1545 689 1612 643 c 0,150,151
 1673 601 1673 601 1695 522 c 0,152,153
 1706 483 1706 483 1706 436 c 0,154,155
 1706 388 1706 388 1693 336 c 0,128,129
288 -135 m 1,156,-1
 1565 1651 l 1,157,-1
 1726 1569 l 1,158,-1
 447 -219 l 1,159,-1
 288 -135 l 1,156,-1
EndSplineSet
Validated: 1
EndChar

StartChar: minute
Encoding: 8242 8242 180
Width: 648
GlyphClass: 2
Flags: W
HStem: 982 542
VStem: 397 433
DStem2: 397 1068 566 982 0.500214 0.865902<10.0687 526.908>
LayerCount: 2
Fore
SplineSet
661 1524 m 1,0,-1
 830 1439 l 1,1,-1
 566 982 l 1,2,-1
 397 1068 l 1,3,-1
 661 1524 l 1,0,-1
EndSplineSet
Validated: 1
EndChar

StartChar: second
Encoding: 8243 8243 181
Width: 972
GlyphClass: 2
Flags: W
HStem: 979 542
DStem2: 396 1065 565 979 0.501633 0.86508<10.3791 526.908> 720 1065 889 979 0.501633 0.86508<10.3791 526.908>
LayerCount: 2
Fore
SplineSet
660 1521 m 1,0,-1
 830 1436 l 1,1,-1
 565 979 l 1,2,-1
 396 1065 l 1,3,-1
 660 1521 l 1,0,-1
984 1521 m 1,4,-1
 1154 1436 l 1,5,-1
 889 979 l 1,6,-1
 720 1065 l 1,7,-1
 984 1521 l 1,4,-1
EndSplineSet
Validated: 1
EndChar

StartChar: uni2034
Encoding: 8244 8244 182
Width: 1296
GlyphClass: 2
Flags: W
HStem: 979 542
DStem2: 396 1065 565 979 0.501633 0.86508<10.3791 526.908> 720 1065 889 979 0.501633 0.86508<10.3791 526.908> 1044 1065 1213 979 0.501633 0.86508<10.3791 526.908>
LayerCount: 2
Fore
SplineSet
1308 1521 m 1,0,-1
 1478 1436 l 1,1,-1
 1213 979 l 1,2,-1
 1044 1065 l 1,3,-1
 1308 1521 l 1,0,-1
660 1521 m 1,4,-1
 830 1436 l 1,5,-1
 565 979 l 1,6,-1
 396 1065 l 1,7,-1
 660 1521 l 1,4,-1
984 1521 m 1,8,-1
 1154 1436 l 1,9,-1
 889 979 l 1,10,-1
 720 1065 l 1,11,-1
 984 1521 l 1,8,-1
EndSplineSet
Validated: 1
EndChar

StartChar: uni2035
Encoding: 8245 8245 183
Width: 648
GlyphClass: 2
Flags: W
HStem: 973 542
VStem: 480 262
DStem2: 689 1515 480 1430 0.117346 -0.993091<59.8875 459.069>
LayerCount: 2
Fore
SplineSet
689 1515 m 1,0,-1
 742 1059 l 1,1,-1
 534 973 l 1,2,-1
 480 1430 l 1,3,-1
 689 1515 l 1,0,-1
EndSplineSet
Validated: 1
EndChar

StartChar: uni2036
Encoding: 8246 8246 184
Width: 972
GlyphClass: 2
Flags: W
HStem: 976 542
VStem: 481 586
DStem2: 689 1518 481 1433 0.115202 -0.993342<60.4721 459.185> 1013 1518 805 1433 0.115202 -0.993342<60.4721 459.185>
LayerCount: 2
Fore
SplineSet
1013 1518 m 1,0,-1
 1067 1062 l 1,1,-1
 858 976 l 1,2,-1
 805 1433 l 1,3,-1
 1013 1518 l 1,0,-1
689 1518 m 1,4,-1
 743 1062 l 1,5,-1
 534 976 l 1,6,-1
 481 1433 l 1,7,-1
 689 1518 l 1,4,-1
EndSplineSet
Validated: 1
EndChar

StartChar: uni2037
Encoding: 8247 8247 185
Width: 1296
GlyphClass: 2
Flags: W
HStem: 979 542
DStem2: 690 1521 482 1436 0.115202 -0.993342<60.4721 459.185> 1014 1521 806 1436 0.115202 -0.993342<60.4721 459.185> 1338 1521 1130 1436 0.115202 -0.993342<60.4721 459.185>
LayerCount: 2
Fore
SplineSet
690 1521 m 1,0,-1
 744 1065 l 1,1,-1
 535 979 l 1,2,-1
 482 1436 l 1,3,-1
 690 1521 l 1,0,-1
1338 1521 m 1,4,-1
 1392 1065 l 1,5,-1
 1183 979 l 1,6,-1
 1130 1436 l 1,7,-1
 1338 1521 l 1,4,-1
1014 1521 m 1,8,-1
 1068 1065 l 1,9,-1
 859 979 l 1,10,-1
 806 1436 l 1,11,-1
 1014 1521 l 1,8,-1
EndSplineSet
Validated: 1
EndChar

StartChar: guilsinglleft
Encoding: 8249 8249 186
Width: 706
GlyphClass: 2
Flags: W
VStem: 259 529
DStem2: 484 702 259 687 0.428871 -0.903366<0 370.435> 259 687 484 702 0.667789 0.744351<161.418 627.926>
LayerCount: 2
Fore
SplineSet
730 1212 m 1,0,-1
 788 1056 l 1,1,-1
 484 702 l 1,2,-1
 640 366 l 1,3,-1
 494 192 l 1,4,-1
 259 687 l 1,5,-1
 730 1212 l 1,0,-1
EndSplineSet
Validated: 1
EndChar

StartChar: guilsinglright
Encoding: 8250 8250 187
Width: 706
GlyphClass: 2
Flags: W
VStem: 234 531
DStem2: 234 366 300 192 0.684675 0.728848<0 458.512> 536 1212 406 1056 0.399811 -0.916598<91.0138 471.463>
LayerCount: 2
Fore
SplineSet
536 1212 m 1,0,-1
 765 687 l 1,1,-1
 300 192 l 1,2,-1
 234 366 l 1,3,-1
 546 702 l 1,4,-1
 406 1056 l 1,5,-1
 536 1212 l 1,0,-1
EndSplineSet
Validated: 1
EndChar

StartChar: uni2043
Encoding: 8259 8259 188
Width: 1190
GlyphClass: 2
Flags: W
DStem2: 284 596 432 470 0.89069 0.454612<74.541 294.577 697.23 915.031> 559 1012 351 887 0.831845 -0.555007<0 157.894 487.304 647.693> 561 280 758.222 280 0.224951 0.97437<136.733 297.639 694.159 852.667>
LayerCount: 2
Fore
SplineSet
779 370 m 1,0,-1
 561 280 l 1,1,-1
 628 570 l 1,2,-1
 432 470 l 1,3,-1
 284 596 l 1,4,-1
 568 741 l 1,5,-1
 351 887 l 1,6,-1
 559 1012 l 1,7,-1
 707 913 l 1,8,-1
 752 1111 l 1,9,-1
 972 1203 l 1,10,-1
 905 913 l 1,11,-1
 1099 1012 l 1,12,-1
 1249 887 l 1,13,-1
 964 741 l 1,14,-1
 1182 596 l 1,15,-1
 976 470 l 1,16,-1
 826 570 l 1,17,-1
 779 370 l 1,0,-1
EndSplineSet
Validated: 1
EndChar

StartChar: fraction
Encoding: 8260 8260 189
Width: 1065
GlyphClass: 2
Flags: W
DStem2: -20 -132 139 -216 0.581797 0.813334<24.1858 2195.57>
LayerCount: 2
Fore
SplineSet
-20 -132 m 1,0,-1
 1257 1654 l 1,1,-1
 1418 1572 l 1,2,-1
 139 -216 l 1,3,-1
 -20 -132 l 1,0,-1
EndSplineSet
Validated: 1
EndChar

StartChar: Euro
Encoding: 8364 8364 190
Width: 1446
GlyphClass: 2
Flags: W
HStem: 0 190<760.461 1027.92> 452 182<306 431.562 643 976> 765 182<420 451 721 1090> 1329 190<997.851 1280.12>
VStem: 426 217<317.793 452 635 764.89>
LayerCount: 2
Fore
SplineSet
1367 1088 m 1,0,1
 1367 1094 1367 1094 1367 1112 c 0,2,3
 1367 1184 1367 1184 1312 1253 c 0,4,5
 1251 1329 1251 1329 1149 1329 c 0,6,7
 1051 1329 1051 1329 949 1253 c 128,-1,8
 847 1177 847 1177 769 1042 c 0,9,10
 743 997 743 997 721 948 c 1,11,-1
 1243 951 l 1,12,-1
 1090 768 l 1,13,-1
 658 766 l 1,14,15
 655 754 655 754 654 749 c 0,16,17
 641 701 641 701 636 635 c 1,18,-1
 1129 637 l 1,19,-1
 976 455 l 1,20,-1
 643 453 l 1,21,22
 664 332 664 332 722 269 c 0,23,24
 795 190 795 190 880 190 c 2,25,-1
 884 190 l 2,26,27
 1038 190 1038 190 1136 350 c 1,28,-1
 1148 374 l 1,29,-1
 1405 473 l 1,30,31
 1360 340 1360 340 1268 225 c 0,32,33
 1195 134 1195 134 1068 61 c 0,34,35
 962 0 962 0 836 0 c 0,36,37
 722 0 722 0 632 60 c 0,38,39
 539 123 539 123 489 222 c 0,40,41
 439 320 439 320 426 452 c 1,42,-1
 154 451 l 1,43,-1
 306 633 l 1,44,-1
 428 634 l 1,45,46
 434 695 434 695 449 759 c 1,47,-1
 451 765 l 1,48,-1
 268 764 l 1,49,-1
 420 947 l 1,50,-1
 510 947 l 1,51,52
 534 1005 534 1005 561 1054 c 0,53,54
 639 1197 639 1197 737 1297 c 0,55,56
 833 1395 833 1395 955 1458 c 0,57,58
 1073 1519 1073 1519 1187 1519 c 128,-1,59
 1301 1519 1301 1519 1392 1457 c 0,60,61
 1523 1367 1523 1367 1560 1196 c 1,62,-1
 1564 1167 l 1,63,-1
 1367 1088 l 1,0,1
EndSplineSet
Validated: 1
EndChar

StartChar: afii61248
Encoding: 8453 8453 191
Width: 1842
GlyphClass: 2
Flags: W
HStem: 0 143<1315.42 1525.89> 690 143<540.212 766 1428.81 1657.41> 1369 143<650.213 862.609>
VStem: 340 165<864.689 1192.35> 1118 157<180.912 504.235> 1693 158<342.712 654.753>
DStem2: 344 -132 503 -216 0.581797 0.813334<24.1858 2195.57>
LayerCount: 2
Fore
SplineSet
1007 997 m 1,0,1
 978 926 978 926 951 887 c 0,2,3
 889 796 889 796 790 735 c 0,4,5
 699 679 699 679 606 679 c 2,6,-1
 603 679 l 1,7,8
 506 683 506 683 442 735 c 0,9,10
 377 788 377 788 352 887 c 0,11,12
 340 935 340 935 340 999 c 0,13,14
 340 1043 340 1043 353 1096 c 0,15,16
 382 1215 382 1215 448 1305 c 0,17,18
 519 1403 519 1403 608 1457 c 128,-1,19
 697 1511 697 1511 795 1512 c 1,20,-1
 798 1512 l 2,21,22
 894 1512 894 1512 956 1457 c 0,23,24
 1029 1392 1029 1392 1043 1324 c 0,25,26
 1044 1319 1044 1319 1048 1301 c 1,27,-1
 890 1240 l 1,28,29
 887 1281 887 1281 873 1308 c 0,30,31
 841 1369 841 1369 762 1369 c 2,32,-1
 761 1369 l 2,33,34
 684 1369 684 1369 611 1289 c 0,35,36
 542 1213 542 1213 516 1122 c 0,37,38
 512 1108 512 1108 511 1098 c 0,39,40
 505 1048 505 1048 505 1009 c 0,41,42
 506 946 506 946 520 912 c 0,43,44
 558 820 558 820 660 820 c 0,45,46
 724 820 724 820 788 902 c 2,47,-1
 799 916 l 1,48,-1
 1007 997 l 1,0,1
1547 690 m 0,49,50
 1463 690 1463 690 1389 608 c 0,51,52
 1316 527 1316 527 1287 414 c 0,53,54
 1275 367 1275 367 1275 324 c 0,55,56
 1275 267 1275 267 1296 218 c 0,57,58
 1328 143 1328 143 1412 143 c 0,59,60
 1416 143 1416 143 1421 143 c 2,61,-1
 1423 143 l 2,62,63
 1491 143 1491 143 1580 238 c 0,64,65
 1650 313 1650 313 1681 435 c 0,66,67
 1693 482 1693 482 1693 523 c 0,68,69
 1693 575 1693 575 1674 618 c 0,70,71
 1642 690 1642 690 1547 690 c 0,49,50
1580 833 m 0,72,73
 1679 833 1679 833 1746 778 c 0,74,75
 1811 725 1811 725 1838 625 c 0,76,77
 1851 576 1851 576 1851 524 c 128,-1,78
 1851 472 1851 472 1838 416 c 0,79,80
 1812 306 1812 306 1742 208 c 0,81,82
 1673 112 1673 112 1579 56 c 128,-1,83
 1485 0 1485 0 1388 0 c 0,84,85
 1294 0 1294 0 1223 56 c 0,86,87
 1158 107 1158 107 1132 202 c 1,88,89
 1118 259 1118 259 1118 307 c 0,90,91
 1118 351 1118 351 1128 407 c 1,92,93
 1156 528 1156 528 1226 625 c 0,94,95
 1298 725 1298 725 1390 778 c 0,96,97
 1485 833 1485 833 1580 833 c 0,72,73
344 -132 m 1,98,-1
 1621 1654 l 1,99,-1
 1782 1572 l 1,100,-1
 503 -216 l 1,101,-1
 344 -132 l 1,98,-1
EndSplineSet
Validated: 1
EndChar

StartChar: afii61289
Encoding: 8467 8467 192
Width: 788
GlyphClass: 2
Flags: W
HStem: 0 142<356 574.151> 1395 120<706.051 809.81>
VStem: 228 193<151.136 389.43> 817 144<1181.3 1369.4>
DStem2: 182.668 0 371.742 0 0.224951 0.97437<232.814 481.349 702.086 824.376 989.849 1450.5>
LayerCount: 2
Fore
SplineSet
110 449 m 1,0,-1
 341 684 l 1,1,-1
 446 1139 l 2,2,3
 498 1365 498 1365 587 1440 c 128,-1,4
 676 1515 676 1515 787 1515 c 0,5,6
 883 1515 883 1515 930 1450 c 0,7,8
 961 1407 961 1407 961 1347 c 0,9,10
 961 1314 961 1314 952 1276 c 0,11,12
 930 1184 930 1184 840 1052 c 128,-1,13
 750 920 750 920 531 689 c 1,14,-1
 435 274 l 2,15,16
 421 212 421 212 421 183 c 0,17,18
 421 170 421 170 424 164 c 0,19,20
 435 142 435 142 461 142 c 0,21,22
 490 142 490 142 525 158 c 0,23,24
 562 175 562 175 684 249 c 1,25,-1
 647 87 l 1,26,27
 516 0 516 0 402 0 c 0,28,29
 310 0 310 0 260 58 c 0,30,31
 228 95 228 95 228 160 c 1,32,33
 229 198 229 198 239 244 c 2,34,-1
 291 469 l 1,35,-1
 190 371 l 1,36,-1
 110 449 l 1,0,-1
585 923 m 1,37,38
 717 1086 717 1086 760 1156 c 0,39,40
 799 1219 799 1219 811 1275 c 0,41,42
 817 1302 817 1302 817 1323 c 0,43,44
 817 1351 817 1351 807 1370 c 0,45,46
 794 1395 794 1395 763 1395 c 128,-1,47
 732 1395 732 1395 711 1369 c 0,48,49
 679 1329 679 1329 637 1150 c 2,50,-1
 585 923 l 1,37,38
EndSplineSet
Validated: 1
EndChar

StartChar: trademark
Encoding: 8482 8482 193
Width: 1991
GlyphClass: 2
Flags: W
HStem: 1372 137<612 732 880 1073 1237.84 1434.9 1701.09 1908.67>
VStem: 935 155<867.262 1196.73> 1950 157<1001.97 1331.43>
DStem2: 568 667 716.224 667 0.224951 0.97437<99.0267 723.823> 1346 667 1495.46 667 0.224951 0.97437<98.2773 657.86>
LayerCount: 2
Fore
SplineSet
612 1365 m 1,0,1
 599 1356 599 1356 597 1352 c 1,2,-1
 591 1325 l 1,3,-1
 471 1390 l 1,4,-1
 484 1406 l 1,5,6
 564 1509 564 1509 687 1509 c 2,7,-1
 688 1509 l 1,8,-1
 1172 1510 l 1,9,-1
 1073 1372 l 1,10,-1
 880 1372 l 1,11,-1
 731 731 l 1,12,-1
 568 667 l 1,13,-1
 732 1372 l 1,14,-1
 650 1372 l 1,15,16
 623 1370 623 1370 614 1366 c 1,17,-1
 612 1366 l 1,18,-1
 612 1365 l 1,0,1
1102 674 m 1,19,-1
 1094 678 l 2,20,21
 1082 683 1082 683 1038 723 c 0,22,23
 1001 756 1001 756 976 805 c 0,24,25
 950 855 950 855 940 924 c 0,26,27
 935 957 935 957 935 990 c 0,28,29
 936 1056 936 1056 951 1119 c 0,30,31
 965 1180 965 1180 1008 1256 c 0,32,33
 1047 1325 1047 1325 1111 1391 c 0,34,35
 1145 1426 1145 1426 1243 1484 c 0,36,37
 1302 1519 1302 1519 1385 1519 c 2,38,-1
 1387 1519 l 2,39,40
 1472 1519 1472 1519 1510 1484 c 0,41,42
 1566 1432 1566 1432 1582 1411 c 1,43,-1
 1583 1410 l 1,44,-1
 1589 1393 l 1,45,-1
 1605 1412 l 2,46,47
 1623 1433 1623 1433 1709 1484 c 0,48,49
 1768 1519 1768 1519 1862 1519 c 2,50,-1
 1864 1519 l 2,51,52
 1926 1519 1926 1519 1975 1484 c 0,53,54
 2034 1442 2034 1442 2064 1391 c 0,55,56
 2095 1340 2095 1340 2104 1256 c 0,57,58
 2107 1228 2107 1228 2107 1203 c 0,59,60
 2106 1148 2106 1148 2096 1104 c 0,61,62
 2078 1023 2078 1023 2032 940 c 0,63,64
 1990 863 1990 863 1930 805 c 0,65,66
 1884 760 1884 760 1830 723 c 0,67,68
 1773 684 1773 684 1760 678 c 2,69,-1
 1748 673 l 1,70,-1
 1627 770 l 1,71,-1
 1660 796 l 1,72,73
 1716 796 1716 796 1791 860 c 0,74,75
 1848 909 1848 909 1884 965 c 0,76,77
 1943 1057 1943 1057 1943 1106 c 1,78,79
 1943 1106 1943 1106 1944 1111 c 0,80,81
 1950 1142 1950 1142 1950 1177 c 0,82,83
 1950 1210 1950 1210 1945 1244 c 0,84,85
 1937 1300 1937 1300 1900 1337 c 0,86,87
 1860 1377 1860 1377 1818 1377 c 0,88,89
 1817 1377 1817 1377 1816 1377 c 0,90,91
 1770 1377 1770 1377 1715 1338 c 1,92,-1
 1706 1331 l 1,93,94
 1660 1299 1660 1299 1631 1259 c 1,95,-1
 1510 730 l 1,96,-1
 1346 667 l 1,97,-1
 1482 1260 l 1,98,99
 1473 1292 1473 1292 1438 1334 c 1,100,-1
 1436 1338 l 1,101,102
 1401 1374 1401 1374 1352 1374 c 0,103,104
 1298 1374 1298 1374 1251 1338 c 0,105,106
 1189 1291 1189 1291 1161 1244 c 0,107,108
 1114 1166 1114 1166 1102 1111 c 0,109,110
 1090 1058 1090 1058 1090 1015 c 1,111,112
 1091 987 1091 987 1095 965 c 0,113,114
 1107 898 1107 898 1140 860 c 0,115,116
 1195 796 1195 796 1246 796 c 1,117,-1
 1268 770 l 1,118,-1
 1102 674 l 1,19,-1
EndSplineSet
Validated: 1
EndChar

StartChar: uni2126
Encoding: 8486 8486 194
Width: 1418
GlyphClass: 2
Flags: W
HStem: 20 203<176 348 1146 1291> 1328 190<858.503 1139.82>
VStem: 283 211<340.144 827.247> 1263 198<690.196 1179.79>
LayerCount: 2
Fore
SplineSet
40 20 m 1,0,-1
 176 223 l 1,1,-1
 348 223 l 1,2,3
 298 324 298 324 286 464 c 0,4,5
 283 499 283 499 283 534 c 0,6,7
 283 642 283 642 310 758 c 0,8,9
 347 919 347 919 422 1054 c 0,10,11
 499 1194 499 1194 598 1296 c 0,12,13
 698 1399 698 1399 815 1458 c 0,14,15
 934 1518 934 1518 1047 1518 c 0,16,17
 1161 1518 1161 1518 1251 1458 c 128,-1,18
 1341 1398 1341 1398 1394 1296 c 0,19,20
 1445 1198 1445 1198 1458 1054 c 0,21,22
 1461 1020 1461 1020 1461 986 c 0,23,24
 1459 870 1459 870 1434 758 c 0,25,26
 1400 606 1400 606 1322 464 c 0,27,28
 1243 320 1243 320 1146 222 c 1,29,-1
 1429 222 l 1,30,-1
 1291 21 l 1,31,-1
 829 20 l 1,32,-1
 875 221 l 1,33,34
 899 233 899 233 946 268 c 0,35,36
 1044 341 1044 341 1125 476 c 0,37,38
 1202 604 1202 604 1239 760 c 0,39,40
 1263 861 1263 861 1263 952 c 1,41,42
 1262 1002 1262 1002 1256 1045 c 0,43,44
 1239 1175 1239 1175 1173 1252 c 0,45,46
 1108 1328 1108 1328 1010 1328 c 128,-1,47
 912 1328 912 1328 810 1252 c 1,48,49
 711 1176 711 1176 632 1045 c 0,50,51
 555 917 555 917 518 760 c 0,52,53
 494 658 494 658 494 566 c 0,54,55
 494 520 494 520 500 476 c 0,56,57
 514 357 514 357 583 268 c 0,58,59
 607 237 607 237 625 223 c 1,60,-1
 579 20 l 1,61,-1
 40 20 l 1,0,-1
EndSplineSet
Validated: 1
EndChar

StartChar: estimated
Encoding: 8494 8494 195
Width: 1258
GlyphClass: 2
Flags: W
HStem: 0 73<479.11 829.08> 565 74<479 1075> 1057 73<687.436 1037.37>
VStem: 211 1094<409 727>
LayerCount: 2
Fore
SplineSet
461 565 m 1,0,-1
 376 194 l 1,1,2
 468 73 468 73 646 73 c 0,3,4
 900 73 900 73 1098 319 c 1,5,-1
 1160 276 l 1,6,7
 1000 103 1000 103 876 51.5 c 128,-1,8
 752 0 752 0 629 0 c 0,9,10
 392 0 392 0 283 160 c 0,11,12
 211 266 211 266 211 409 c 0,13,14
 211 482 211 482 230 565 c 0,15,16
 286 812 286 812 471 971 c 0,17,18
 655 1130 655 1130 890 1130 c 0,19,20
 1104 1130 1104 1130 1223 988 c 0,21,22
 1305 890 1305 890 1305 727 c 0,23,24
 1305 652 1305 652 1288 565 c 1,25,-1
 461 565 l 1,0,-1
1075 639 m 1,26,-1
 1143 936 l 1,27,28
 1043 1057 1043 1057 871 1057 c 0,29,30
 696 1057 696 1057 547 935 c 1,31,-1
 479 639 l 1,32,-1
 1075 639 l 1,26,-1
EndSplineSet
Validated: 1
EndChar

StartChar: partialdiff
Encoding: 8706 8706 196
Width: 1147
GlyphClass: 2
Flags: W
HStem: -25 145<406.453 596.25> 782 160<734.627 986.305> 1358 133<873.941 1043.86>
VStem: 160 217<148.977 412.296> 1082 184<940.562 1312.4>
LayerCount: 2
Fore
SplineSet
612 1198 m 1,0,1
 717 1354 717 1354 832 1423 c 0,2,3
 945 1491 945 1491 1039 1491 c 0,4,5
 1115 1491 1115 1491 1167 1452 c 0,6,7
 1220 1412 1220 1412 1239 1361 c 0,8,9
 1266 1288 1266 1288 1266 1193 c 0,10,11
 1266 1185 1266 1185 1266 1174 c 0,12,13
 1266 1078 1266 1078 1231 926 c 0,14,15
 1165 639 1165 639 1026 414 c 0,16,17
 886 188 886 188 716 82 c 0,18,19
 544 -25 544 -25 402 -25 c 0,20,21
 265 -25 265 -25 201 66 c 0,22,23
 160 124 160 124 160 222 c 0,24,25
 160 264 160 264 174 322 c 0,26,27
 225 532 225 532 417 709 c 0,28,29
 670 942 670 942 948 942 c 0,30,31
 952 942 952 942 955 942 c 0,32,33
 1012 942 1012 942 1053 940 c 1,34,-1
 1062 976 l 2,35,36
 1082 1056 1082 1056 1082 1153 c 0,37,38
 1082 1164 1082 1164 1082 1178 c 0,39,40
 1082 1263 1082 1263 1045 1314 c 0,41,42
 1013 1358 1013 1358 958 1358 c 0,43,44
 904 1358 904 1358 838 1292 c 0,45,46
 823 1277 823 1277 733 1138 c 1,47,-1
 612 1198 l 1,0,1
987 758 m 0,48,49
 965 782 965 782 911 782 c 0,50,51
 895 782 895 782 876 780 c 0,52,53
 791 771 791 771 713 730 c 0,54,55
 617 680 617 680 514 556 c 0,56,57
 410 431 410 431 383 308 c 0,58,59
 377 281 377 281 377 257 c 0,60,61
 377 207 377 207 402 171 c 0,62,63
 437 120 437 120 492 120 c 0,64,65
 494 120 494 120 496 120 c 0,66,67
 573 120 573 120 624 164 c 0,68,69
 704 233 704 233 801 368 c 0,70,71
 951 577 951 577 989 690 c 1,72,73
 996 706 996 706 995 730 c 0,74,75
 994 751 994 751 987 758 c 0,48,49
EndSplineSet
Validated: 1
EndChar

